<?xml version="1.0" standalone="no"?>
<!DOCTYPE svg PUBLIC "-//W3C//DTD SVG 20010904//EN"
 "http://www.w3.org/TR/2001/REC-SVG-20010904/DTD/svg10.dtd">
<svg version="1.0" xmlns="http://www.w3.org/2000/svg"
 width="2225.000000pt" height="977.000000pt" viewBox="0 0 2225.000000 977.000000"
 preserveAspectRatio="xMidYMid meet">
<metadata>
Created by potrace 1.15, written by Peter Selinger 2001-2017
</metadata>
<g transform="translate(0.000000,977.000000) scale(0.100000,-0.100000)"
fill="#000000" stroke="none">
<path d="M10670 9525 c0 -12 -15 -15 -75 -15 -60 0 -75 -3 -75 -15 0 -10 -10
-15 -30 -15 -20 0 -30 -5 -30 -15 0 -10 -10 -15 -30 -15 -20 0 -30 -5 -30 -15
0 -8 -7 -15 -15 -15 -8 0 -15 -7 -15 -15 0 -10 -10 -15 -30 -15 -20 0 -30 -5
-30 -15 0 -8 -7 -15 -15 -15 -8 0 -15 -7 -15 -15 0 -11 -12 -15 -45 -15 -33 0
-45 -4 -45 -15 0 -10 -10 -15 -30 -15 -20 0 -30 -5 -30 -15 0 -10 -10 -15 -30
-15 -20 0 -30 -5 -30 -15 0 -8 -7 -15 -15 -15 -8 0 -15 -7 -15 -15 0 -8 -7
-15 -15 -15 -10 0 -15 -10 -15 -30 0 -20 -5 -30 -15 -30 -8 0 -15 -7 -15 -15
0 -8 -7 -15 -15 -15 -8 0 -15 -7 -15 -15 0 -8 -7 -15 -15 -15 -8 0 -15 -7 -15
-15 0 -8 -7 -15 -15 -15 -10 0 -15 -10 -15 -30 0 -20 -5 -30 -15 -30 -10 0
-15 -10 -15 -30 0 -20 -5 -30 -15 -30 -10 0 -15 -10 -15 -30 0 -20 -5 -30 -15
-30 -8 0 -15 -7 -15 -15 0 -8 -7 -15 -15 -15 -11 0 -15 -12 -15 -45 0 -33 -4
-45 -15 -45 -10 0 -15 -10 -15 -30 0 -20 5 -30 15 -30 8 0 15 -4 15 -9 0 -5
-7 -11 -15 -15 -9 -3 -15 -18 -15 -35 0 -16 -6 -31 -15 -35 -8 -3 -15 -13 -15
-22 0 -10 5 -14 15 -10 9 3 15 1 14 -7 -1 -6 -1 -54 0 -104 1 -76 4 -93 16
-93 11 0 15 -12 15 -45 0 -33 4 -45 15 -45 11 0 15 -12 15 -45 0 -33 4 -45 15
-45 10 0 15 -10 15 -30 0 -20 5 -30 15 -30 10 0 15 -10 15 -30 0 -20 5 -30 15
-30 11 0 15 -11 15 -40 0 -27 5 -43 15 -46 9 -4 15 -19 15 -35 0 -19 5 -29 15
-29 12 0 15 -13 15 -60 0 -47 3 -60 15 -60 8 0 15 -9 15 -20 0 -11 7 -20 15
-20 12 0 15 -13 15 -55 0 -42 3 -55 15 -55 10 0 15 -10 15 -30 0 -20 5 -30 15
-30 10 0 15 -10 15 -30 0 -20 5 -30 15 -30 10 0 15 -10 15 -30 0 -20 5 -30 15
-30 10 0 15 -10 15 -30 0 -20 5 -30 15 -30 10 0 15 -10 15 -30 0 -20 5 -30 15
-30 10 0 15 -11 15 -35 0 -24 5 -35 15 -35 8 0 15 -7 15 -15 0 -8 7 -15 15
-15 8 0 15 -7 15 -15 0 -8 7 -15 15 -15 8 0 15 -7 15 -15 0 -8 7 -15 15 -15
10 0 15 -10 15 -29 0 -16 6 -31 15 -35 8 -3 15 -9 14 -13 -4 -25 3 -43 16 -43
8 0 15 -7 15 -15 0 -10 10 -15 30 -15 27 0 30 -3 30 -30 0 -20 5 -30 15 -30 8
0 15 -7 15 -15 0 -8 7 -15 15 -15 8 0 15 -7 15 -15 0 -8 7 -15 15 -15 8 0 15
-7 15 -15 0 -8 5 -15 10 -15 6 0 19 -9 30 -20 11 -11 20 -24 20 -30 0 -5 7
-10 15 -10 8 0 15 -7 15 -15 0 -8 7 -15 15 -15 13 0 15 -21 15 -126 0 -75 -4
-123 -9 -119 -5 3 -12 1 -15 -4 -4 -5 2 -12 11 -14 17 -4 17 -5 1 -6 -11 -1
-18 -9 -18 -21 0 -13 -5 -18 -15 -14 -11 5 -15 -1 -15 -25 0 -21 -5 -31 -15
-31 -8 0 -15 -7 -15 -15 0 -8 -7 -15 -15 -15 -8 0 -15 -7 -15 -15 0 -8 -7 -15
-15 -15 -9 0 -12 -6 -9 -15 4 -10 0 -15 -15 -15 -12 0 -21 -6 -21 -15 0 -10
-10 -15 -30 -15 -20 0 -30 -5 -30 -15 0 -8 -7 -15 -15 -15 -8 0 -15 -7 -15
-15 0 -11 -12 -15 -45 -15 -33 0 -45 4 -45 15 0 8 -7 15 -15 15 -14 0 -19 -17
-16 -46 0 -5 -19 -11 -44 -13 -35 -1 -45 2 -45 14 0 10 -10 15 -30 15 -20 0
-30 -5 -30 -15 0 -11 -12 -15 -45 -15 -43 0 -45 1 -45 30 0 29 -2 30 -45 30
-33 0 -45 4 -45 15 0 12 -13 15 -60 15 -47 0 -60 3 -60 15 0 10 -10 15 -30 15
-20 0 -30 5 -30 15 0 10 -10 15 -30 15 -20 0 -30 5 -30 15 0 11 -12 15 -45 15
-33 0 -45 4 -45 15 0 13 -20 15 -120 15 -100 0 -120 3 -120 15 0 12 -15 15
-75 15 -60 0 -75 -3 -75 -15 0 -13 -27 -15 -180 -15 -153 0 -180 -2 -180 -15
0 -11 -12 -15 -45 -15 -33 0 -45 -4 -45 -15 0 -12 -15 -15 -75 -15 -60 0 -75
-3 -75 -15 0 -13 -22 -15 -134 -15 -110 0 -135 -3 -140 -15 -4 -11 -22 -15
-76 -15 -56 0 -70 3 -70 15 0 13 -25 15 -165 15 -140 0 -165 2 -165 15 0 13
-22 15 -135 15 -113 0 -135 2 -135 15 0 12 -16 15 -81 15 -71 0 -80 2 -75 16
5 14 4 15 -9 4 -10 -8 -15 -9 -15 -1 0 6 -7 11 -15 11 -8 0 -15 7 -15 15 0 10
-10 15 -30 15 -20 0 -30 5 -30 15 0 12 -15 15 -75 15 -60 0 -75 3 -75 15 0 10
-10 15 -30 15 -20 0 -30 -5 -30 -15 0 -10 -11 -15 -35 -15 -24 0 -35 5 -35 15
0 13 -50 15 -386 15 -347 0 -387 -2 -402 -17 -16 -16 -17 -16 -20 0 -3 13 -15
17 -53 17 -31 0 -48 -4 -46 -11 1 -6 -4 -14 -12 -17 -10 -3 -12 0 -8 12 6 15
-18 16 -268 16 -238 0 -275 -2 -275 -15 0 -8 -7 -15 -15 -15 -8 0 -15 7 -15
15 0 8 -7 15 -15 15 -8 0 -15 -7 -15 -15 0 -12 -18 -15 -105 -15 -87 0 -105 3
-105 15 0 8 -7 15 -15 15 -8 0 -15 -7 -15 -15 0 -11 -12 -15 -45 -15 -33 0
-45 4 -45 15 0 8 -7 15 -15 15 -8 0 -15 -7 -15 -15 0 -12 -17 -15 -90 -15 -73
0 -90 3 -90 15 0 8 -7 15 -15 15 -10 0 -15 -10 -15 -30 l0 -30 -135 0 c-113 0
-135 -2 -135 -15 0 -12 -19 -15 -115 -15 -94 0 -117 -3 -121 -15 -4 -10 -20
-15 -50 -15 -32 0 -44 -4 -44 -15 0 -13 -23 -15 -145 -15 -120 0 -147 -3 -151
-15 -4 -9 -19 -15 -35 -15 -19 0 -29 5 -29 15 0 8 -6 15 -14 15 -8 0 -16 -7
-20 -15 -4 -11 -21 -15 -61 -15 -42 0 -55 -3 -55 -15 0 -8 -7 -15 -15 -15 -9
0 -12 -6 -9 -15 5 -12 -4 -15 -45 -15 -37 0 -53 -4 -57 -15 -4 -10 -20 -15
-45 -15 -28 0 -39 4 -39 15 0 8 -7 15 -15 15 -8 0 -15 -7 -15 -15 0 -8 -7 -15
-15 -15 -8 0 -15 -7 -15 -15 0 -12 -13 -15 -60 -15 -47 0 -60 -3 -60 -15 0
-12 -20 -15 -120 -15 -100 0 -120 -2 -120 -15 0 -10 -10 -15 -30 -15 -20 0
-30 -5 -30 -15 0 -10 -10 -15 -30 -15 -20 0 -30 -5 -30 -15 0 -12 -17 -15 -90
-15 -73 0 -90 -3 -90 -15 0 -10 -10 -15 -30 -15 -20 0 -30 -5 -30 -15 0 -11
-12 -15 -45 -15 -43 0 -45 -1 -45 -30 0 -29 -2 -30 -45 -30 -33 0 -45 -4 -45
-15 0 -10 -10 -15 -30 -15 -20 0 -30 -5 -30 -15 0 -11 -12 -15 -45 -15 l-45 0
0 -105 0 -105 45 0 c33 0 45 4 45 15 0 11 12 15 45 15 33 0 45 4 45 15 0 8 7
15 15 15 8 0 15 7 15 15 0 12 15 15 75 15 60 0 75 3 75 15 0 8 7 15 15 15 8 0
15 -7 15 -15 0 -10 10 -15 30 -15 20 0 30 5 30 15 0 10 10 15 30 15 20 0 30
-5 30 -15 0 -8 7 -15 15 -15 8 0 15 7 15 15 0 8 7 15 15 15 8 0 15 7 15 15 0
10 10 15 30 15 20 0 30 5 30 15 0 13 25 15 165 15 140 0 165 -2 165 -15 0 -10
10 -15 30 -15 20 0 30 -5 30 -15 0 -10 10 -15 30 -15 20 0 30 -5 30 -15 0 -12
13 -15 60 -15 47 0 60 -3 60 -15 0 -11 12 -15 45 -15 33 0 45 4 45 15 0 8 7
15 15 15 8 0 15 -7 15 -15 0 -8 7 -15 15 -15 8 0 15 7 15 15 0 10 10 15 30 15
20 0 30 -5 30 -15 0 -8 7 -15 15 -15 8 0 15 7 15 15 0 10 10 15 30 15 20 0 30
5 30 15 0 8 9 15 20 15 13 0 18 5 14 15 -5 13 15 15 145 15 128 0 151 -2 151
-15 0 -10 10 -15 30 -15 20 0 30 -5 30 -15 0 -12 18 -15 105 -15 87 0 105 -3
105 -15 0 -12 17 -15 90 -15 73 0 90 -3 90 -15 0 -11 12 -15 45 -15 33 0 45
-4 45 -15 0 -10 10 -15 30 -15 27 0 30 3 30 30 0 20 5 30 15 30 8 0 15 -7 15
-15 0 -12 18 -15 105 -15 87 0 105 3 105 15 0 10 10 15 30 15 27 0 30 -3 30
-30 0 -20 5 -30 15 -30 8 0 15 7 15 15 0 8 7 15 15 15 10 0 15 -10 15 -30 0
-30 0 -30 58 -30 39 0 52 -3 42 -10 -13 -8 -13 -10 0 -14 8 -3 38 -7 65 -8 34
-2 49 -7 48 -15 -2 -7 4 -13 12 -13 9 0 12 6 9 15 -4 10 0 15 10 15 9 0 19 -7
22 -15 4 -10 20 -15 50 -15 32 0 44 -4 44 -15 0 -13 25 -15 165 -15 140 0 165
-2 165 -15 0 -12 18 -15 105 -15 87 0 105 3 105 15 0 13 36 15 260 15 224 0
260 -2 260 -15 0 -12 18 -15 105 -15 87 0 105 3 105 15 0 11 12 15 45 15 33 0
45 -4 45 -15 0 -10 10 -15 30 -15 20 0 30 -5 30 -15 0 -13 11 -15 63 -13 43 2
61 7 60 16 -2 8 14 12 57 12 47 0 60 -3 60 -15 0 -10 10 -15 30 -15 20 0 30
-5 30 -15 0 -12 11 -15 45 -13 34 1 45 5 41 15 -4 9 4 13 29 13 32 0 35 -2 35
-30 0 -27 3 -30 30 -30 18 0 30 5 30 13 0 9 16 14 45 16 35 1 45 -2 45 -14 0
-11 12 -15 50 -15 40 0 48 3 44 15 -5 11 1 15 25 15 21 0 31 -5 31 -15 0 -12
20 -15 119 -15 96 0 120 -3 125 -15 3 -8 17 -15 31 -15 16 0 25 -6 25 -15 0
-12 18 -15 105 -15 87 0 105 -3 105 -15 0 -8 6 -15 14 -15 8 0 16 7 20 15 3 8
10 15 17 15 6 0 9 -7 5 -15 -4 -12 6 -15 59 -15 51 0 65 -3 65 -15 0 -11 12
-15 45 -15 33 0 45 -4 45 -15 0 -11 12 -15 45 -15 33 0 45 -4 45 -15 0 -10 10
-15 30 -15 20 0 30 -5 30 -15 0 -10 10 -15 30 -15 20 0 30 -5 30 -15 0 -10 10
-15 30 -15 20 0 30 -5 30 -15 0 -10 10 -15 30 -15 20 0 30 -5 30 -15 0 -10 10
-15 30 -15 20 0 30 -5 30 -15 0 -10 10 -15 30 -15 20 0 30 -5 30 -15 0 -9 9
-15 25 -15 14 0 28 -7 31 -15 4 -9 19 -15 35 -15 19 0 29 -5 29 -15 0 -9 9
-15 25 -15 13 0 28 -7 32 -15 5 -9 25 -16 51 -17 41 -1 55 -11 30 -21 -7 -3 6
-6 30 -6 30 -1 42 -5 42 -16 0 -10 10 -15 30 -15 20 0 30 -5 30 -15 0 -8 7
-15 15 -15 8 0 15 -7 15 -15 0 -8 7 -15 15 -15 8 0 15 -7 15 -15 0 -8 7 -15
15 -15 10 0 15 -10 15 -30 0 -20 5 -30 15 -30 8 0 15 -7 15 -15 0 -8 7 -15 15
-15 8 0 15 -7 15 -15 0 -8 -7 -15 -15 -15 -8 0 -15 -7 -15 -15 0 -10 10 -15
30 -15 29 0 30 -2 30 -45 0 -33 4 -45 15 -45 11 0 15 -12 15 -45 0 -33 -4 -45
-15 -45 -13 0 -15 -23 -15 -150 0 -127 2 -150 15 -150 13 0 15 -23 15 -150 0
-127 -2 -150 -15 -150 -8 0 -15 -7 -15 -15 0 -8 7 -15 15 -15 15 0 21 -43 15
-108 -1 -14 3 -21 12 -20 9 2 14 -11 16 -39 2 -34 0 -43 -12 -43 -13 0 -16
-14 -16 -75 0 -60 3 -75 15 -75 13 0 15 -35 15 -255 l0 -255 -30 0 c-27 0 -30
-3 -30 -30 0 -20 5 -30 15 -30 12 0 15 -15 15 -75 0 -60 -3 -75 -15 -75 -13 0
-15 -28 -15 -195 0 -206 0 -204 -44 -196 -5 1 -3 -6 5 -15 12 -16 12 -17 -3
-11 -13 5 -18 1 -18 -13 0 -11 -7 -20 -15 -20 -8 0 -15 -9 -15 -20 0 -16 -7
-20 -30 -20 -20 0 -30 -5 -30 -15 0 -22 -135 -22 -144 0 -7 20 -66 20 -66 0 0
-11 -12 -15 -45 -15 -33 0 -45 4 -45 15 0 12 -13 15 -60 15 -53 0 -60 2 -60
20 0 16 -7 20 -30 20 -23 0 -30 -4 -30 -20 0 -16 -7 -20 -30 -20 -23 0 -30 4
-30 20 0 19 -7 20 -165 20 -140 0 -165 2 -165 15 0 10 -10 15 -30 15 -19 0
-33 6 -37 17 -6 15 -7 15 -14 -3 -7 -17 -8 -17 -8 -1 -1 12 -9 17 -31 17 -20
0 -30 5 -30 15 0 11 -12 15 -45 15 -33 0 -45 -4 -45 -15 0 -8 -7 -15 -15 -15
-10 0 -15 10 -15 30 0 28 -3 30 -35 30 -21 0 -34 -5 -33 -11 2 -6 -9 -13 -24
-16 -20 -3 -28 1 -28 12 0 8 -7 15 -15 15 -8 0 -15 7 -15 15 0 8 -9 15 -20 15
-13 0 -18 5 -14 15 5 12 -2 15 -30 15 -26 0 -36 -4 -36 -16 0 -8 -5 -12 -10
-9 -6 4 -8 11 -5 16 4 5 -16 9 -44 9 -39 0 -51 4 -51 15 0 12 -14 15 -62 16
-35 0 -57 3 -50 6 20 8 14 18 -13 21 -16 1 -25 -3 -25 -13 0 -20 -46 -20 -57
0 -5 8 -21 16 -36 17 -15 1 -27 8 -27 15 0 8 -12 13 -30 13 -20 0 -30 5 -30
15 0 11 -12 15 -45 15 -33 0 -45 4 -45 15 0 11 -12 15 -51 15 -31 0 -48 -4
-44 -10 3 -5 1 -10 -4 -10 -6 0 -11 5 -11 10 0 6 -25 10 -55 10 -40 0 -57 4
-61 15 -5 11 -22 15 -70 15 -50 0 -64 3 -64 15 0 11 -12 15 -45 15 -33 0 -45
4 -45 15 0 12 -13 15 -60 15 -47 0 -60 3 -60 15 0 11 -13 15 -54 15 -60 0 -89
-7 -80 -21 3 -5 -9 -9 -25 -9 -20 0 -30 5 -29 13 2 9 -34 13 -149 15 -127 2
-153 5 -153 17 0 11 -12 15 -45 15 -33 0 -45 4 -45 15 0 13 -23 15 -150 15
l-150 0 0 24 c0 26 -15 43 -24 27 -4 -5 0 -12 6 -14 7 -3 -29 -6 -79 -6 -77
-1 -93 -4 -93 -17 0 -8 -5 -12 -10 -9 -6 4 -8 11 -5 16 4 5 -10 9 -29 9 -25 0
-36 4 -36 15 0 12 -13 15 -60 15 -47 0 -60 3 -60 15 0 10 -10 15 -30 15 -20 0
-30 5 -30 15 0 8 -9 15 -20 15 -11 0 -20 7 -20 15 0 11 -11 15 -40 15 -29 0
-40 4 -40 15 0 11 -12 15 -45 15 -33 0 -45 4 -45 15 0 12 -13 15 -60 15 -45 0
-62 4 -66 15 -4 8 -17 15 -30 15 -15 0 -24 6 -24 15 0 10 -10 15 -30 15 -20 0
-30 5 -30 15 0 12 -13 15 -60 15 -47 0 -60 3 -60 15 0 10 -10 15 -30 15 -20 0
-30 5 -30 15 0 10 -10 15 -29 15 -42 0 -66 10 -49 21 9 6 4 9 -14 9 -18 0 -28
5 -28 15 0 11 -12 15 -50 15 -41 0 -48 3 -43 16 4 10 1 15 -8 14 -42 -6 -79 1
-79 15 0 8 -7 15 -15 15 -10 0 -15 10 -15 30 0 20 -5 30 -15 30 -8 0 -15 -7
-15 -15 0 -10 -10 -15 -30 -15 -20 0 -30 5 -30 15 0 11 -12 15 -45 15 -33 0
-45 4 -45 15 0 10 -10 15 -29 15 -25 0 -30 5 -33 27 -3 28 -28 45 -28 19 0
-11 -9 -16 -30 -16 -20 0 -30 5 -30 15 0 10 -10 15 -30 15 -20 0 -30 5 -30 15
0 8 -7 15 -15 15 -8 0 -15 7 -15 15 0 12 -13 15 -60 15 -47 0 -60 3 -60 15 0
10 -11 15 -35 15 -23 0 -34 4 -33 13 2 6 -3 11 -9 9 -7 -1 -13 2 -13 8 0 5 -7
10 -16 10 -8 0 -12 5 -9 10 4 6 -8 10 -29 10 -20 0 -36 5 -36 10 0 17 -39 50
-59 50 -10 0 -21 7 -25 15 -3 9 -18 15 -36 15 -20 0 -30 5 -30 15 0 10 -10 15
-30 15 -20 0 -30 5 -30 15 0 10 -10 15 -30 15 -20 0 -30 5 -30 15 0 11 -12 15
-45 15 -33 0 -45 4 -45 15 0 8 -7 15 -15 15 -10 0 -15 10 -15 30 0 29 -2 30
-45 30 -33 0 -45 4 -45 15 0 10 -10 15 -30 15 -20 0 -30 5 -30 15 0 10 -10 15
-31 15 -24 0 -30 4 -25 15 4 12 -3 15 -29 15 -24 0 -35 5 -35 15 0 10 -10 15
-30 15 -20 0 -30 5 -30 15 0 13 -12 17 -37 14 -3 0 -10 6 -15 15 -5 9 -16 16
-25 16 -9 0 -13 6 -9 15 4 12 -3 15 -29 15 -24 0 -35 5 -35 15 0 9 -9 15 -24
15 -28 0 -43 16 -24 23 7 3 -8 6 -35 6 -32 1 -46 5 -45 14 2 8 -12 13 -39 15
-29 2 -43 8 -43 18 0 10 -14 14 -55 14 -40 0 -57 4 -61 15 -5 11 -24 15 -80
15 -59 0 -74 3 -74 15 0 10 -10 15 -29 15 -23 0 -30 6 -36 28 -4 15 -10 21
-12 15 -7 -20 -103 -17 -103 2 0 12 -13 15 -60 15 -47 0 -60 3 -60 15 0 12
-17 15 -90 15 -73 0 -90 3 -90 15 0 12 -16 15 -80 15 -64 0 -80 3 -80 15 0 11
-12 15 -45 15 -33 0 -45 4 -45 15 0 12 -15 15 -75 15 -60 0 -75 3 -75 15 0 13
-30 15 -210 15 -180 0 -210 2 -210 15 0 13 -20 15 -120 15 -100 0 -120 3 -120
15 0 13 -37 15 -270 15 -233 0 -270 -2 -270 -15 0 -10 -10 -15 -30 -15 -20 0
-30 -5 -30 -15 0 -10 -10 -15 -30 -15 -20 0 -30 -5 -30 -15 0 -10 -10 -15 -30
-15 -20 0 -30 -5 -30 -15 0 -10 -10 -15 -30 -15 -20 0 -30 -5 -30 -15 0 -8 -7
-15 -15 -15 -10 0 -15 -10 -15 -30 0 -27 -3 -30 -30 -30 -29 0 -30 -2 -30 -45
0 -33 -4 -45 -15 -45 -10 0 -15 -10 -15 -30 0 -20 -5 -30 -15 -30 -12 0 -15
-13 -15 -60 0 -47 3 -60 15 -60 8 0 15 -7 15 -15 0 -8 7 -15 15 -15 8 0 15 -7
15 -15 0 -8 7 -15 15 -15 8 0 15 -7 15 -15 0 -10 10 -15 30 -15 20 0 30 -5 30
-15 0 -10 10 -15 30 -15 20 0 30 -5 30 -15 0 -10 10 -15 30 -15 20 0 30 -5 30
-15 0 -13 25 -15 165 -15 140 0 165 -2 165 -15 0 -10 10 -15 30 -15 20 0 30
-5 30 -15 0 -8 7 -15 15 -15 8 0 15 7 15 15 0 11 12 15 45 15 33 0 45 4 45 15
0 8 7 15 15 15 8 0 15 -7 15 -15 0 -8 -7 -15 -15 -15 -8 0 -15 -7 -15 -15 0
-10 10 -15 30 -15 20 0 30 -5 30 -15 0 -12 15 -15 75 -15 l75 0 0 -30 c0 -23
4 -30 20 -30 13 0 18 5 14 15 -5 12 3 15 40 15 34 0 46 -4 46 -15 0 -8 7 -15
15 -15 10 0 15 -10 15 -30 0 -29 2 -30 45 -30 33 0 45 -4 45 -15 0 -10 10 -15
30 -15 20 0 30 -5 30 -15 0 -8 7 -15 15 -15 8 0 15 -7 15 -15 0 -8 7 -15 15
-15 8 0 15 -7 15 -15 0 -10 10 -15 30 -15 27 0 30 -3 30 -30 0 -27 3 -30 30
-30 20 0 30 -5 30 -15 0 -10 10 -15 30 -15 20 0 30 -5 30 -15 0 -8 7 -15 15
-15 8 0 15 -7 15 -15 0 -8 7 -15 15 -15 10 0 15 -10 15 -30 0 -20 5 -30 15
-30 8 0 15 -7 15 -15 0 -8 7 -15 15 -15 8 0 15 -7 15 -15 0 -8 7 -15 15 -15 8
0 15 -7 15 -15 0 -8 7 -15 15 -15 8 0 15 -7 15 -15 0 -8 7 -15 15 -15 8 0 15
-7 15 -15 0 -8 7 -15 15 -15 8 0 15 -7 15 -15 0 -8 7 -15 15 -15 8 0 15 -7 15
-15 0 -8 7 -15 15 -15 8 0 15 -7 15 -15 0 -8 9 -15 20 -15 13 0 18 5 14 15 -5
13 22 15 210 15 185 0 216 2 216 15 0 10 10 15 30 15 20 0 30 5 30 15 0 13 23
15 150 15 127 0 150 -2 150 -15 0 -10 11 -15 35 -15 24 0 35 -5 35 -15 0 -11
11 -15 40 -15 29 0 40 -4 40 -15 0 -8 7 -15 15 -15 8 0 15 -7 15 -15 0 -10 10
-15 30 -15 20 0 30 -5 30 -15 0 -10 10 -15 30 -15 20 0 30 -5 30 -15 0 -11 12
-15 45 -15 33 0 45 -4 45 -15 0 -10 10 -15 30 -15 20 0 30 -5 30 -15 0 -10 10
-15 30 -15 20 0 30 -5 30 -15 0 -10 10 -15 30 -15 20 0 30 -5 30 -15 0 -10 10
-15 30 -15 20 0 30 -5 30 -15 0 -10 10 -15 30 -15 20 0 30 -5 30 -15 0 -10 10
-15 30 -15 20 0 30 -5 30 -15 0 -11 12 -15 45 -15 33 0 45 -4 45 -15 0 -10 10
-15 30 -15 20 0 30 -5 30 -15 0 -10 10 -15 30 -15 20 0 30 -5 30 -15 0 -11 12
-15 45 -15 43 0 45 -1 45 -30 0 -20 5 -30 15 -30 8 0 15 7 15 15 0 8 7 15 15
15 8 0 15 -7 15 -15 0 -8 6 -15 14 -15 9 0 16 -12 18 -27 2 -22 9 -29 31 -31
15 -2 27 -9 27 -18 0 -8 7 -14 15 -14 8 0 15 -7 15 -15 0 -8 7 -15 15 -15 8 0
15 -7 15 -15 0 -10 10 -15 30 -15 20 0 30 -5 30 -15 0 -8 6 -15 14 -15 9 0 16
-12 18 -27 3 -25 7 -28 46 -31 28 -2 42 -8 42 -18 0 -8 7 -14 15 -14 8 0 15
-7 15 -15 0 -11 12 -15 45 -15 33 0 45 -4 45 -15 0 -8 7 -15 15 -15 8 0 15 -9
15 -20 0 -11 7 -20 15 -20 10 0 15 -10 15 -30 0 -20 5 -30 15 -30 8 0 15 -7
15 -15 0 -10 10 -15 30 -15 20 0 30 -5 30 -15 0 -8 7 -15 15 -15 8 0 15 -7 15
-15 0 -11 12 -15 45 -15 33 0 45 -4 45 -15 0 -8 7 -15 15 -15 8 0 15 -7 15
-15 0 -12 13 -15 60 -15 47 0 60 -3 60 -15 0 -10 10 -15 30 -15 20 0 30 -5 30
-15 0 -8 7 -15 15 -15 8 0 15 -7 15 -15 0 -10 10 -15 30 -15 20 0 30 -5 30
-15 0 -10 10 -15 30 -15 20 0 30 -5 30 -15 0 -8 7 -15 15 -15 8 0 15 -7 15
-15 0 -12 15 -15 75 -15 60 0 75 -3 75 -15 0 -10 10 -15 30 -15 20 0 30 -5 30
-15 0 -12 15 -15 75 -15 60 0 75 -3 75 -15 0 -11 12 -15 45 -15 33 0 45 -4 45
-15 0 -12 13 -15 60 -15 47 0 60 -3 60 -15 0 -10 10 -15 30 -15 20 0 30 -5 30
-15 0 -10 10 -15 30 -15 20 0 30 -5 30 -15 0 -10 10 -15 30 -15 20 0 30 -5 30
-15 0 -11 12 -15 45 -15 33 0 45 4 45 15 0 8 7 15 15 15 8 0 15 -7 15 -15 0
-10 10 -15 30 -15 20 0 30 -5 30 -15 0 -8 7 -15 15 -15 8 0 15 7 15 15 0 8 7
15 15 15 8 0 15 -7 15 -15 0 -8 7 -15 15 -15 8 0 15 -7 15 -15 0 -12 17 -15
90 -15 l90 0 0 -30 c0 -20 5 -30 15 -30 8 0 15 7 15 15 0 10 10 15 30 15 20 0
30 -5 30 -15 0 -11 12 -15 45 -15 33 0 45 -4 45 -15 0 -11 12 -15 45 -15 33 0
45 4 45 15 0 10 11 15 35 15 24 0 35 -5 35 -15 0 -8 7 -15 15 -15 8 0 15 -7
15 -15 0 -8 7 -15 15 -15 8 0 15 -7 15 -15 0 -12 15 -15 74 -15 53 0 79 -4 90
-15 8 -8 28 -15 45 -15 21 0 31 -5 31 -15 0 -12 14 -15 65 -15 53 0 63 -3 59
-15 -5 -11 1 -15 25 -15 21 0 31 -5 31 -15 0 -10 11 -15 35 -15 21 0 35 -5 35
-12 0 -9 4 -8 10 2 8 13 10 12 10 -2 0 -13 8 -18 30 -18 20 0 30 -5 30 -15 0
-11 12 -15 45 -15 33 0 45 -4 45 -15 0 -11 12 -15 50 -15 40 0 48 -3 44 -15
-4 -9 0 -15 10 -15 9 0 16 -7 16 -15 0 -11 17 -15 72 -17 68 -3 73 -5 78 -28
5 -21 12 -25 48 -28 28 -2 42 -8 42 -18 0 -8 7 -14 15 -14 8 0 15 -7 15 -15 0
-11 12 -15 45 -15 33 0 45 -4 45 -15 0 -11 12 -15 45 -15 39 0 45 -3 45 -21 0
-11 5 -17 10 -14 6 3 13 -1 16 -9 4 -10 18 -16 35 -16 19 0 29 -5 29 -15 0
-13 19 -20 44 -16 5 1 3 -5 -4 -14 -7 -9 -9 -15 -4 -14 5 1 33 1 62 0 39 -1
52 -5 52 -16 0 -8 7 -15 15 -15 8 0 15 -7 15 -15 0 -12 13 -15 60 -15 47 0 60
-3 60 -15 0 -12 13 -15 61 -15 50 0 60 -3 55 -15 -4 -12 4 -15 44 -15 38 0 50
-4 50 -15 0 -11 12 -15 45 -15 34 0 45 -4 45 -15 0 -9 6 -15 13 -14 6 1 34 1
61 0 38 -1 47 -4 42 -16 -4 -13 8 -15 74 -15 64 0 80 -3 80 -15 0 -10 10 -15
30 -15 20 0 30 -5 30 -15 0 -10 10 -15 30 -15 20 0 30 5 30 15 0 8 7 15 15 15
8 0 15 -7 15 -15 0 -11 12 -15 45 -15 33 0 45 -4 45 -15 0 -10 10 -15 30 -15
20 0 30 -5 30 -15 0 -12 18 -15 105 -15 87 0 105 -3 105 -15 0 -12 15 -15 75
-15 60 0 75 -3 75 -15 0 -12 20 -15 120 -15 100 0 120 -2 120 -15 0 -11 12
-15 45 -15 33 0 45 -4 45 -15 0 -8 7 -15 15 -15 8 0 15 7 15 15 0 8 7 15 15
15 8 0 15 -7 15 -15 0 -12 13 -15 60 -15 47 0 60 3 60 15 0 8 7 15 15 15 8 0
15 -7 15 -15 0 -8 7 -15 15 -15 8 0 15 7 15 15 0 8 7 15 15 15 8 0 15 -7 15
-15 0 -13 25 -15 165 -15 140 0 165 -2 165 -15 0 -10 10 -15 30 -15 20 0 30 5
30 15 0 8 7 15 15 15 8 0 15 -7 15 -15 0 -12 20 -15 120 -15 100 0 120 3 120
15 0 13 36 15 260 15 224 0 260 -2 260 -15 0 -8 7 -15 15 -15 8 0 15 7 15 15
0 8 7 15 15 15 8 0 15 -7 15 -15 0 -11 12 -15 45 -15 33 0 45 -4 45 -15 0 -12
20 -15 120 -15 100 0 120 3 120 15 0 8 7 15 15 15 8 0 15 -7 15 -15 0 -10 10
-15 30 -15 20 0 30 5 30 15 0 13 25 15 165 15 140 0 165 2 165 15 0 8 7 15 15
15 8 0 15 -7 15 -15 0 -8 7 -15 15 -15 8 0 15 7 15 15 0 8 7 15 15 15 8 0 15
-7 15 -15 0 -12 13 -15 60 -15 47 0 60 3 60 15 0 8 7 15 15 15 8 0 15 -7 15
-15 0 -8 7 -15 15 -15 8 0 15 7 15 15 0 11 12 15 45 15 33 0 45 4 45 15 0 13
20 15 120 15 100 0 120 3 120 15 0 12 15 15 75 15 60 0 75 3 75 15 0 12 18 15
105 15 87 0 105 3 105 15 0 10 10 15 30 15 20 0 30 5 30 15 0 11 12 15 45 15
33 0 45 4 45 15 0 8 7 15 15 15 8 0 15 -7 15 -15 0 -10 10 -15 30 -15 20 0 30
5 30 15 0 10 10 15 30 15 20 0 30 5 30 15 0 12 15 15 75 15 60 0 75 3 75 15 0
11 12 15 45 15 33 0 45 4 45 15 0 12 13 15 60 15 47 0 60 3 60 15 0 11 12 15
45 15 33 0 45 4 45 15 0 12 13 15 60 15 47 0 60 3 60 15 0 11 12 15 45 15 33
0 45 4 45 15 0 10 10 15 30 15 20 0 30 5 30 15 0 11 12 15 45 15 33 0 45 4 45
15 0 8 7 15 15 15 8 0 15 7 15 15 0 11 12 15 45 15 33 0 45 4 45 15 0 8 7 15
15 15 8 0 15 7 15 15 0 11 12 15 45 15 33 0 45 4 45 15 0 10 10 15 30 15 20 0
30 5 30 15 0 8 7 15 15 15 8 0 15 7 15 15 0 11 12 15 45 15 33 0 45 4 45 15 0
8 7 15 15 15 8 0 15 7 15 15 0 12 13 15 60 15 47 0 60 3 60 15 0 8 7 15 15 15
8 0 15 7 15 15 0 11 12 15 45 15 33 0 45 4 45 15 0 11 12 15 45 15 33 0 45 4
45 15 0 11 12 15 45 15 33 0 45 4 45 15 0 10 10 15 30 15 20 0 30 5 30 15 0
10 10 15 30 15 20 0 30 5 30 15 0 12 13 15 60 15 47 0 60 3 60 15 0 11 12 15
45 15 33 0 45 4 45 15 0 12 15 15 75 15 60 0 75 3 75 15 0 8 7 15 15 15 8 0
15 7 15 15 0 8 7 15 15 15 8 0 15 7 15 15 0 10 11 15 35 15 24 0 35 -5 35 -15
0 -11 12 -15 45 -15 33 0 45 4 45 15 0 11 12 15 45 15 33 0 45 4 45 15 0 10
10 15 30 15 20 0 30 -5 30 -15 0 -8 7 -15 15 -15 10 0 15 10 15 30 l0 30 90 0
c73 0 90 3 90 15 0 8 7 15 15 15 8 0 15 7 15 15 0 8 7 15 15 15 8 0 15 -7 15
-15 0 -8 7 -15 15 -15 8 0 15 7 15 15 0 10 10 15 30 15 20 0 30 5 30 15 0 8 7
15 15 15 8 0 15 -7 15 -15 0 -11 12 -15 45 -15 33 0 45 4 45 15 0 10 10 15 30
15 20 0 30 5 30 15 0 10 10 15 30 15 20 0 30 5 30 15 0 10 10 15 30 15 20 0
30 5 30 15 0 8 7 15 15 15 8 0 15 7 15 15 0 8 7 15 15 15 8 0 15 -7 15 -15 0
-11 12 -15 45 -15 33 0 45 4 45 15 0 11 12 15 45 15 33 0 45 4 45 15 0 12 15
15 75 15 60 0 75 3 75 15 0 10 10 15 30 15 20 0 30 5 30 15 0 11 12 15 45 15
33 0 45 -4 45 -15 0 -8 7 -15 15 -15 8 0 15 7 15 15 0 8 7 15 15 15 8 0 15 7
15 15 0 8 7 15 15 15 8 0 15 7 15 15 0 10 10 15 30 15 20 0 30 5 30 15 0 10
10 15 30 15 20 0 30 5 30 15 0 8 7 15 15 15 8 0 15 7 15 15 0 10 10 15 30 15
20 0 30 5 30 15 0 12 13 15 60 15 47 0 60 3 60 15 0 8 7 15 15 15 8 0 15 7 15
15 0 11 12 15 45 15 33 0 45 4 45 15 0 8 7 15 15 15 8 0 15 7 15 15 0 10 10
15 30 15 20 0 30 5 30 15 0 8 7 15 15 15 10 0 15 10 15 30 0 20 5 30 15 30 8
0 15 7 15 15 0 8 7 15 15 15 8 0 15 9 15 20 0 17 7 20 45 20 33 0 45 4 45 15
0 10 10 15 30 15 20 0 30 5 30 15 0 10 10 15 30 15 27 0 30 3 30 30 0 20 5 30
15 30 8 0 15 7 15 15 0 10 10 15 30 15 20 0 30 5 30 15 0 8 7 15 15 15 8 0 15
7 15 15 0 8 7 15 15 15 8 0 15 7 15 15 0 10 10 15 30 15 27 0 30 3 30 30 0 29
2 30 45 30 43 0 45 1 45 30 0 20 5 30 15 30 8 0 15 7 15 15 0 11 12 15 45 15
33 0 45 4 45 15 0 10 10 15 30 15 20 0 30 5 30 15 0 10 10 15 30 15 20 0 30 5
30 15 0 11 12 15 45 15 33 0 45 4 45 15 0 8 7 15 15 15 8 0 15 7 15 15 0 11
12 15 45 15 43 0 45 1 45 30 0 27 3 30 30 30 20 0 30 5 30 15 0 10 10 15 30
15 20 0 30 5 30 15 0 10 10 15 30 15 20 0 30 5 30 15 0 8 7 15 15 15 8 0 15 7
15 15 0 10 10 15 30 15 20 0 30 5 30 15 0 12 15 15 75 15 60 0 75 3 75 15 0
12 13 15 60 15 47 0 60 3 60 15 0 10 10 15 30 15 20 0 30 5 30 15 0 12 18 15
105 15 87 0 105 -3 105 -15 0 -8 7 -15 15 -15 8 0 15 -7 15 -15 0 -12 13 -15
60 -15 47 0 60 -3 60 -15 0 -8 7 -15 15 -15 8 0 15 7 15 15 0 8 7 15 15 15 8
0 15 -7 15 -15 0 -8 7 -15 15 -15 8 0 15 7 15 15 0 8 7 15 15 15 8 0 15 -7 15
-15 0 -12 13 -15 60 -15 47 0 60 3 60 15 0 8 7 15 15 15 8 0 15 -7 15 -15 0
-12 17 -15 95 -15 78 0 95 3 95 15 0 8 7 15 15 15 8 0 15 7 15 15 0 8 7 15 15
15 8 0 15 7 15 15 0 8 7 15 15 15 8 0 15 7 15 15 0 8 7 15 15 15 8 0 15 7 15
15 0 8 7 15 15 15 8 0 15 7 15 15 0 8 7 15 15 15 8 0 15 7 15 15 0 8 7 15 15
15 10 0 15 10 15 30 0 20 5 30 15 30 8 0 15 7 15 15 0 8 7 15 15 15 8 0 15 7
15 15 0 10 10 15 30 15 20 0 30 5 30 15 0 10 10 15 30 15 27 0 30 3 30 30 0
27 3 30 30 30 20 0 30 5 30 15 0 8 7 15 15 15 8 0 15 7 15 15 0 8 7 15 15 15
8 0 15 7 15 15 0 10 10 15 30 15 20 0 30 5 30 15 0 11 12 15 45 15 43 0 45 1
45 30 0 20 5 30 15 30 8 0 15 7 15 15 0 12 13 15 60 15 47 0 60 3 60 15 0 12
15 15 75 15 60 0 75 3 75 15 0 10 10 15 30 15 20 0 30 5 30 15 0 8 -7 15 -15
15 -8 0 -15 7 -15 15 0 8 7 15 15 15 8 0 15 -7 15 -15 0 -13 25 -15 165 -15
140 0 165 2 165 15 0 12 15 15 75 15 60 0 75 3 75 15 0 8 7 15 15 15 8 0 15 7
15 15 0 12 13 15 60 15 47 0 60 3 60 15 0 10 10 15 30 15 20 0 30 5 30 15 0 8
7 15 15 15 8 0 15 7 15 15 0 8 7 15 15 15 8 0 15 7 15 15 0 8 7 15 15 15 12 0
15 13 15 60 0 47 -3 60 -15 60 -10 0 -15 10 -15 30 0 20 -5 30 -15 30 -11 0
-15 12 -15 45 0 33 -4 45 -15 45 -8 0 -15 -7 -15 -15 0 -8 -7 -15 -15 -15 -8
0 -15 7 -15 15 0 8 -7 15 -15 15 -8 0 -15 7 -15 15 0 10 -10 15 -30 15 -20 0
-30 5 -30 15 0 8 -7 15 -15 15 -8 0 -15 7 -15 15 0 8 -7 15 -15 15 -8 0 -15 7
-15 15 0 8 -7 15 -15 15 -8 0 -15 7 -15 15 0 8 -7 15 -15 15 -8 0 -15 -7 -15
-15 0 -12 -18 -15 -105 -15 -87 0 -105 3 -105 15 0 13 -25 15 -165 15 -140 0
-165 2 -165 15 0 8 -7 15 -15 15 -8 0 -15 -7 -15 -15 0 -8 -7 -15 -15 -15 -8
0 -15 7 -15 15 0 13 -20 15 -120 15 -100 0 -120 -2 -120 -15 0 -13 -30 -15
-210 -15 -180 0 -210 -2 -210 -15 0 -12 -15 -15 -75 -15 -60 0 -75 -3 -75 -15
0 -11 -12 -15 -45 -15 -33 0 -45 -4 -45 -15 0 -12 -16 -15 -80 -15 -64 0 -80
-3 -80 -15 0 -10 -10 -15 -30 -15 -20 0 -30 5 -30 15 0 8 -7 15 -15 15 -8 0
-15 -7 -15 -15 0 -11 -12 -15 -45 -15 -33 0 -45 -4 -45 -15 0 -12 -13 -15 -60
-15 -47 0 -60 -3 -60 -15 0 -10 -10 -15 -30 -15 -20 0 -30 5 -30 15 0 8 -7 15
-15 15 -8 0 -15 -7 -15 -15 0 -8 -7 -15 -15 -15 -8 0 -15 -7 -15 -15 0 -10
-10 -15 -30 -15 -20 0 -30 -5 -30 -15 0 -12 -15 -15 -75 -15 -60 0 -75 -3 -75
-15 0 -12 -13 -15 -60 -15 -47 0 -60 -3 -60 -15 0 -10 -10 -15 -30 -15 -20 0
-30 -5 -30 -15 0 -11 -12 -15 -45 -15 -33 0 -45 -4 -45 -15 0 -10 -10 -15 -30
-15 -20 0 -30 -5 -30 -15 0 -10 -10 -15 -30 -15 -20 0 -30 -5 -30 -15 0 -8 -7
-15 -15 -15 -8 0 -15 -7 -15 -15 0 -10 -10 -15 -30 -15 -20 0 -30 -5 -30 -15
0 -10 -10 -15 -30 -15 -20 0 -30 -5 -30 -15 0 -10 -10 -15 -30 -15 -20 0 -30
-5 -30 -15 0 -10 -10 -15 -30 -15 -20 0 -30 -5 -30 -15 0 -10 -10 -15 -30 -15
-20 0 -30 -5 -30 -15 0 -10 -10 -15 -30 -15 -20 0 -30 -5 -30 -15 0 -8 -7 -15
-15 -15 -10 0 -15 -10 -15 -30 l0 -30 -60 0 c-47 0 -60 -3 -60 -15 0 -8 -7
-15 -15 -15 -8 0 -15 -7 -15 -15 0 -10 -10 -15 -30 -15 -20 0 -30 -5 -30 -15
0 -11 -12 -15 -45 -15 -33 0 -45 -4 -45 -15 0 -10 -10 -15 -30 -15 -20 0 -30
-5 -30 -15 0 -8 -7 -15 -15 -15 -8 0 -15 -7 -15 -15 0 -10 -10 -15 -30 -15
-20 0 -30 -5 -30 -15 0 -8 -7 -15 -15 -15 -8 0 -15 -7 -15 -15 0 -11 -12 -15
-45 -15 -33 0 -45 -4 -45 -15 0 -11 -12 -15 -45 -15 -33 0 -45 -4 -45 -15 0
-8 -7 -15 -15 -15 -8 0 -15 -7 -15 -15 0 -10 -10 -15 -30 -15 -20 0 -30 -5
-30 -15 0 -10 -10 -15 -30 -15 -20 0 -30 5 -30 15 0 8 -7 15 -15 15 -10 0 -15
-10 -15 -30 0 -27 -3 -30 -30 -30 -20 0 -30 -5 -30 -15 0 -11 -12 -15 -45 -15
-33 0 -45 -4 -45 -15 0 -10 -10 -15 -30 -15 -20 0 -30 5 -30 15 0 8 -7 15 -15
15 -10 0 -15 -10 -15 -30 0 -20 -5 -30 -15 -30 -8 0 -15 -7 -15 -15 0 -11 -12
-15 -45 -15 -33 0 -45 -4 -45 -15 0 -11 -12 -15 -45 -15 -33 0 -45 -4 -45 -15
0 -10 -10 -15 -30 -15 -20 0 -30 -5 -30 -15 0 -10 -10 -15 -30 -15 -20 0 -30
-5 -30 -15 0 -10 -10 -15 -30 -15 -20 0 -30 -5 -30 -15 0 -12 -13 -15 -60 -15
-47 0 -60 -3 -60 -15 0 -10 -10 -15 -30 -15 -20 0 -30 -5 -30 -15 0 -10 -10
-15 -30 -15 -20 0 -30 -5 -30 -15 0 -12 -13 -15 -60 -15 -47 0 -60 -3 -60 -15
0 -11 -12 -15 -45 -15 -33 0 -45 -4 -45 -15 0 -12 -13 -15 -60 -15 -47 0 -60
-3 -60 -15 0 -8 -7 -15 -15 -15 -8 0 -15 -7 -15 -15 0 -10 -10 -15 -30 -15
-20 0 -30 -5 -30 -15 0 -12 -15 -15 -75 -15 -60 0 -75 -3 -75 -15 0 -12 -18
-15 -105 -15 -87 0 -105 3 -105 15 0 8 -7 15 -15 15 -10 0 -15 -10 -15 -30 l0
-30 -150 0 c-127 0 -150 -2 -150 -15 0 -12 -14 -15 -65 -15 -51 0 -65 -3 -65
-15 0 -13 -32 -15 -225 -15 -193 0 -225 -2 -225 -15 0 -12 -15 -15 -75 -15
-60 0 -75 -3 -75 -15 0 -11 -12 -15 -45 -15 -33 0 -45 -4 -45 -15 0 -12 -13
-15 -60 -15 -47 0 -60 -3 -60 -15 0 -12 -18 -15 -105 -15 -87 0 -105 -3 -105
-15 0 -8 -7 -15 -15 -15 -8 0 -15 7 -15 15 0 8 -7 15 -15 15 -8 0 -15 -7 -15
-15 0 -8 -7 -15 -15 -15 -8 0 -15 -7 -15 -15 0 -11 -12 -15 -45 -15 -33 0 -45
-4 -45 -15 0 -12 -17 -15 -90 -15 -73 0 -90 -3 -90 -15 0 -11 -12 -15 -45 -15
-33 0 -45 -4 -45 -15 0 -12 -15 -15 -75 -15 -60 0 -75 -3 -75 -15 0 -8 -7 -15
-15 -15 -8 0 -15 -7 -15 -15 0 -11 -12 -15 -45 -15 -33 0 -45 4 -45 15 0 8 -7
15 -15 15 -10 0 -15 -10 -15 -30 0 -29 -2 -30 -45 -30 -33 0 -45 4 -45 15 0 8
-7 15 -15 15 -8 0 -15 -7 -15 -15 0 -8 -7 -15 -15 -15 -8 0 -15 -7 -15 -15 0
-11 -12 -15 -51 -15 -34 0 -48 -4 -43 -11 14 -23 -25 -29 -188 -29 -143 0
-168 -2 -168 -15 0 -11 -12 -15 -45 -15 -33 0 -45 4 -45 15 0 8 -7 15 -15 15
-8 0 -15 -7 -15 -15 0 -11 -12 -15 -45 -15 -33 0 -45 -4 -45 -15 0 -12 -15
-15 -75 -15 -60 0 -75 3 -75 15 0 8 -7 15 -15 15 -8 0 -15 -7 -15 -15 0 -11
-12 -15 -45 -15 -33 0 -45 -4 -45 -15 0 -8 -7 -15 -15 -15 -8 0 -15 7 -15 15
0 10 -10 15 -30 15 -20 0 -30 5 -30 15 0 10 -10 15 -30 15 -28 0 -30 3 -30 35
0 32 -2 35 -30 35 l-30 0 0 195 c0 167 -2 195 -15 195 -12 0 -15 17 -15 90 0
73 3 90 15 90 8 0 15 7 15 15 0 10 -10 15 -30 15 l-30 0 0 255 c0 220 2 255
15 255 12 0 15 15 15 75 0 60 -3 75 -15 75 -11 0 -15 12 -15 45 0 33 4 45 15
45 8 0 15 7 15 15 0 8 -7 15 -15 15 -8 0 -15 7 -15 15 0 8 7 15 15 15 10 0 15
10 15 30 0 20 5 30 15 30 8 0 15 7 15 15 0 8 -7 15 -15 15 -10 0 -15 11 -15
35 0 21 -5 34 -11 32 -12 -2 -21 31 -12 46 3 5 9 3 14 -4 6 -9 9 1 9 29 0 31
-4 42 -15 42 -9 0 -15 9 -15 21 0 15 5 19 15 15 12 -4 15 5 15 54 0 47 3 60
15 60 10 0 15 10 15 29 0 16 -6 31 -15 35 -18 7 -20 27 -2 23 7 -1 13 11 15
31 2 24 -1 32 -12 32 -9 0 -16 7 -16 15 0 8 7 15 15 15 11 0 15 12 15 45 0 33
-4 45 -15 45 -11 0 -15 12 -15 45 0 33 4 45 15 45 11 0 15 12 15 45 0 33 4 45
15 45 10 0 15 10 15 30 0 20 5 30 15 30 8 0 15 7 15 15 0 8 7 15 15 15 10 0
15 10 15 30 0 20 5 30 15 30 8 0 15 7 15 15 0 8 7 15 15 15 8 0 15 7 15 15 0
8 7 15 15 15 8 0 15 7 15 15 0 8 7 15 15 15 8 0 15 7 15 15 0 11 12 15 45 15
33 0 45 4 45 15 0 10 10 15 30 15 20 0 30 5 30 15 0 8 7 15 15 15 8 0 15 7 15
15 0 13 25 21 53 16 4 0 7 4 7 10 0 6 -7 8 -16 5 -8 -3 -12 -2 -9 4 3 6 17 10
31 10 14 0 24 6 24 14 0 9 12 16 28 18 15 2 26 8 25 16 -2 8 9 12 32 12 24 0
35 5 35 15 0 10 10 15 30 15 20 0 30 5 30 15 0 10 10 15 30 15 20 0 30 5 30
15 0 11 12 15 49 15 28 0 53 5 57 12 4 7 3 8 -4 4 -7 -4 -12 -2 -12 3 0 6 20
11 44 11 56 0 83 9 64 21 -8 5 11 9 48 9 46 0 63 4 68 15 3 8 15 15 26 15 11
0 20 7 20 15 0 12 16 15 78 16 42 0 71 3 64 6 -27 11 2 23 54 23 38 0 53 4 51
13 -1 8 16 13 56 15 42 2 57 7 57 17 0 12 15 15 66 15 41 0 63 4 59 10 -3 6
-2 10 4 10 5 0 12 -6 14 -12 3 -8 6 -6 6 5 1 15 12 17 76 17 61 0 75 3 75 15
0 13 11 15 63 13 43 -2 61 -7 60 -15 -2 -7 4 -13 12 -13 8 0 15 7 15 15 0 23
108 21 126 -2 13 -17 14 -17 8 0 -5 13 -1 17 20 17 16 0 26 6 26 15 0 11 12
15 45 15 33 0 45 -4 45 -15 0 -10 10 -15 30 -15 20 0 30 5 30 15 0 11 12 15
45 15 33 0 45 4 45 15 0 11 12 15 45 15 33 0 45 4 45 15 0 8 7 15 15 15 8 0
15 -7 15 -15 0 -8 -7 -15 -15 -15 -8 0 -15 -7 -15 -15 0 -12 13 -15 60 -15 47
0 60 3 60 15 0 10 10 15 30 15 20 0 30 5 30 15 0 11 12 15 45 15 33 0 45 -4
45 -15 0 -12 18 -15 105 -15 87 0 105 3 105 15 0 13 36 15 260 15 224 0 260
-2 260 -15 0 -12 18 -15 105 -15 87 0 105 3 105 15 0 13 25 15 165 15 140 0
165 2 165 15 0 12 17 15 90 15 73 0 90 3 90 15 0 12 13 15 60 15 47 0 60 3 60
15 0 11 12 15 45 15 43 0 45 1 45 30 0 20 5 30 15 30 8 0 15 -7 15 -15 0 -8 7
-15 15 -15 8 0 15 7 15 15 0 8 7 15 15 15 8 0 15 7 15 15 0 8 7 15 15 15 8 0
15 -7 15 -15 0 -12 20 -15 120 -15 100 0 120 -2 120 -15 0 -10 10 -15 30 -15
20 0 30 5 30 15 0 11 12 15 45 15 33 0 45 4 45 15 0 12 17 15 90 15 73 0 90 3
90 15 0 12 18 15 105 15 87 0 105 3 105 15 0 10 10 15 30 15 20 0 30 5 30 15
0 13 22 15 135 15 113 0 135 -2 135 -15 0 -10 10 -15 30 -15 20 0 30 -5 30
-15 0 -10 10 -15 30 -15 20 0 30 -5 30 -15 0 -8 7 -15 15 -15 8 0 15 7 15 15
0 10 10 15 30 15 20 0 30 -5 30 -15 0 -8 7 -15 15 -15 8 0 15 7 15 15 0 8 7
15 15 15 8 0 15 -7 15 -15 0 -11 12 -15 45 -15 33 0 45 4 45 15 0 12 13 15 60
15 47 0 60 3 60 15 0 10 10 15 30 15 20 0 30 5 30 15 0 10 10 15 30 15 20 0
30 5 30 15 0 13 23 15 150 15 127 0 150 -2 150 -15 0 -10 10 -15 30 -15 20 0
30 -5 30 -15 0 -10 10 -15 30 -15 20 0 30 -5 30 -15 0 -8 7 -15 15 -15 8 0 15
7 15 15 0 10 10 15 30 15 20 0 30 -5 30 -15 0 -8 7 -15 15 -15 8 0 15 7 15 15
0 8 7 15 15 15 8 0 15 -7 15 -15 0 -12 15 -15 75 -15 60 0 75 -3 75 -15 0 -8
7 -15 15 -15 8 0 15 -7 15 -15 0 -11 12 -15 45 -15 33 0 45 -4 45 -15 0 -11
12 -15 45 -15 43 0 45 1 45 30 0 20 5 30 15 30 8 0 15 7 15 15 0 8 -7 15 -15
15 -12 0 -15 13 -15 60 l0 60 -45 0 c-33 0 -45 4 -45 15 0 10 -10 15 -30 15
-20 0 -30 5 -30 15 0 11 -12 15 -45 15 -43 0 -45 1 -45 30 0 29 -2 30 -45 30
-33 0 -45 4 -45 15 0 10 -10 15 -30 15 -20 0 -30 5 -30 15 0 12 -17 15 -90 15
-73 0 -90 3 -90 15 0 10 -10 15 -30 15 -20 0 -30 5 -30 15 0 10 -10 15 -30 15
-20 0 -30 5 -30 15 0 13 -20 15 -120 15 -100 0 -120 3 -120 15 0 12 -13 15
-60 15 l-60 0 0 30 c0 20 -5 30 -15 30 -8 0 -15 -7 -15 -15 0 -11 -12 -15 -45
-15 -33 0 -45 4 -45 15 0 12 -13 15 -60 15 l-60 0 0 30 0 30 -60 0 c-47 0 -60
3 -60 15 0 8 -7 15 -15 15 -8 0 -15 -7 -15 -15 0 -11 -12 -15 -45 -15 -33 0
-45 4 -45 15 0 11 -12 15 -45 15 -33 0 -45 -4 -45 -15 0 -8 -7 -15 -15 -15 -8
0 -15 7 -15 15 0 12 -17 15 -90 15 -73 0 -90 3 -90 15 0 11 -12 15 -45 15 -33
0 -45 4 -45 15 0 10 -10 15 -30 15 -20 0 -30 -5 -30 -15 0 -8 -7 -15 -15 -15
-8 0 -15 7 -15 15 0 12 -13 15 -60 15 -47 0 -60 3 -60 15 0 13 -22 15 -135 15
l-135 0 0 30 c0 20 -5 30 -15 30 -8 0 -15 -7 -15 -15 0 -12 -17 -15 -90 -15
-73 0 -90 3 -90 15 0 8 -7 15 -15 15 -8 0 -15 -7 -15 -15 0 -11 -12 -15 -45
-15 -33 0 -45 4 -45 15 0 8 -7 15 -15 15 -8 0 -15 -7 -15 -15 0 -12 -18 -15
-105 -15 -87 0 -105 3 -105 15 0 8 -7 15 -15 15 -8 0 -15 -7 -15 -15 0 -8 -7
-15 -15 -15 -8 0 -15 7 -15 15 0 13 -38 15 -285 15 -247 0 -285 -2 -285 -15 0
-8 -7 -15 -15 -15 -8 0 -15 7 -15 15 0 11 -12 15 -45 15 -33 0 -45 -4 -45 -15
0 -8 -7 -15 -15 -15 -8 0 -15 7 -15 15 0 12 -17 15 -90 15 -73 0 -90 -3 -90
-15 0 -8 -7 -15 -15 -15 -8 0 -15 7 -15 15 0 13 -37 15 -275 15 -238 0 -275
-2 -275 -15 0 -11 -12 -15 -45 -15 -33 0 -45 4 -45 15 0 8 -7 15 -15 15 -8 0
-15 -7 -15 -15 0 -12 -15 -15 -75 -15 -60 0 -75 -3 -75 -15 0 -10 -10 -15 -30
-15 -20 0 -30 -5 -30 -15 0 -10 -10 -15 -30 -15 -20 0 -30 -5 -30 -15 0 -12
-15 -15 -75 -15 -60 0 -75 -3 -75 -15 0 -13 -22 -15 -135 -15 -113 0 -135 -2
-135 -15 0 -13 -25 -15 -165 -15 -140 0 -165 -2 -165 -15 0 -12 -17 -15 -90
-15 -73 0 -90 3 -90 15 0 13 -22 15 -135 15 -113 0 -135 2 -135 15 0 12 -15
15 -75 15 -60 0 -75 3 -75 15 0 11 -12 15 -45 15 -33 0 -45 4 -45 15 0 12 -13
15 -60 15 -47 0 -60 -3 -60 -15 0 -8 -7 -15 -15 -15 -8 0 -15 7 -15 15 0 10
-10 15 -30 15 -20 0 -30 -5 -30 -15 0 -8 -7 -15 -15 -15 -8 0 -15 7 -15 15 0
12 -13 15 -60 15 -47 0 -60 3 -60 15 0 12 -13 15 -60 15 -47 0 -60 -3 -60 -15
0 -12 -17 -15 -90 -15 -73 0 -90 -3 -90 -15 0 -8 -7 -15 -15 -15 -8 0 -15 7
-15 15 0 8 -7 15 -15 15 -8 0 -15 -7 -15 -15 0 -11 -12 -15 -45 -15 -33 0 -45
-4 -45 -15 0 -10 -10 -15 -30 -15 -20 0 -30 -5 -30 -15 0 -10 -10 -15 -30 -15
-20 0 -30 -5 -30 -15 0 -12 -13 -15 -60 -15 -47 0 -60 -3 -60 -15 0 -11 -12
-15 -45 -15 -32 0 -45 -4 -45 -14 0 -18 -30 -22 -147 -18 -73 3 -93 7 -93 18
0 10 -13 14 -45 14 -33 0 -45 4 -45 15 0 8 -4 15 -10 15 -5 0 -19 9 -30 20
-11 11 -20 25 -20 30 0 6 -9 10 -20 10 -13 0 -18 5 -14 15 4 8 2 15 -4 15 -6
0 -13 -6 -15 -12 -3 -7 -6 -1 -6 15 -1 17 -6 27 -16 27 -8 0 -15 7 -15 15 0 8
-7 15 -15 15 -10 0 -15 10 -15 30 0 20 -5 30 -15 30 -13 0 -15 27 -15 180 0
153 2 180 15 180 10 0 15 10 15 30 0 20 5 30 15 30 8 0 15 7 15 15 0 8 9 15
20 15 13 0 18 5 14 15 -4 9 0 15 10 15 9 0 16 7 16 15 0 8 7 15 15 15 8 0 15
7 15 15 0 8 7 15 15 15 8 0 15 7 15 15 0 8 7 15 15 15 8 0 15 7 15 15 0 8 7
15 15 15 10 0 15 10 15 30 0 20 5 30 15 30 8 0 15 7 15 15 0 8 7 15 15 15 8 0
15 7 15 15 0 8 7 15 15 15 8 0 15 7 15 15 0 8 7 15 15 15 8 0 15 7 15 15 0 8
7 15 15 15 10 0 15 11 15 35 0 32 2 35 30 35 20 0 30 5 30 15 0 8 -7 15 -15
15 -10 0 -15 10 -15 30 0 20 5 30 15 30 8 0 15 7 15 15 0 8 7 15 15 15 11 0
15 12 15 45 0 33 4 45 15 45 8 0 15 7 15 15 0 8 7 15 15 15 12 0 15 13 15 60
0 47 3 60 15 60 10 0 15 10 15 30 0 20 5 30 15 30 12 0 15 13 15 60 0 47 3 60
15 60 10 0 15 10 15 30 0 20 5 30 15 30 11 0 15 12 15 45 0 33 4 45 15 45 10
0 15 10 15 30 0 20 5 30 15 30 10 0 15 10 15 30 0 20 5 30 15 30 11 0 15 12
15 45 0 33 4 45 15 45 10 0 15 10 15 30 0 20 5 30 15 30 8 0 15 7 15 15 0 8
-7 15 -15 15 -8 0 -15 7 -15 15 0 8 7 15 15 15 12 0 15 14 15 70 0 56 3 70 15
70 8 0 15 9 15 20 0 11 -7 20 -15 20 -10 0 -15 10 -15 30 0 20 -5 30 -15 30
-8 0 -15 7 -15 15 0 8 7 15 15 15 10 0 15 10 15 30 0 20 -5 30 -15 30 -11 0
-15 12 -15 45 0 33 -4 45 -15 45 -8 0 -15 7 -15 15 0 8 -7 15 -15 15 -10 0
-15 10 -15 30 0 20 -5 30 -15 30 -10 0 -15 10 -15 30 0 20 -5 30 -15 30 -10 0
-15 10 -15 30 0 20 -5 30 -15 30 -10 0 -15 10 -15 30 0 20 -5 30 -15 30 -8 0
-15 7 -15 15 0 8 -7 15 -15 15 -8 0 -15 7 -15 15 0 8 -7 15 -15 15 -10 0 -15
10 -15 30 0 20 -5 30 -15 30 -8 0 -15 7 -15 15 0 8 -7 15 -15 15 -10 0 -15 10
-15 30 0 20 -5 30 -15 30 -8 0 -15 7 -15 15 0 12 -15 15 -75 15 -60 0 -75 -3
-75 -15 0 -8 -7 -15 -15 -15 -10 0 -15 10 -15 30 0 27 -3 30 -30 30 -20 0 -30
5 -30 15 0 10 -10 15 -30 15 -20 0 -30 5 -30 15 0 8 -7 15 -15 15 -8 0 -15 7
-15 15 0 10 -10 15 -30 15 -20 0 -30 5 -30 15 0 10 -10 15 -30 15 -20 0 -30 5
-30 15 0 13 -20 15 -120 15 -100 0 -120 3 -120 15 0 8 -7 15 -15 15 -8 0 -15
7 -15 15 0 8 -7 15 -15 15 -8 0 -15 -7 -15 -15 0 -13 -21 -15 -125 -15 -104 0
-125 2 -125 15 0 13 -27 15 -180 15 -153 0 -180 -2 -180 -15z"/>
</g>
</svg>
