<?xml version="1.0" standalone="no"?>
<!DOCTYPE svg PUBLIC "-//W3C//DTD SVG 20010904//EN"
 "http://www.w3.org/TR/2001/REC-SVG-20010904/DTD/svg10.dtd">
<svg version="1.0" xmlns="http://www.w3.org/2000/svg"
 width="5468.000000pt" height="3965.000000pt" viewBox="0 0 5468.000000 3965.000000"
 preserveAspectRatio="xMidYMid meet">
<metadata>
Created by potrace 1.15, written by Peter Selinger 2001-2017
</metadata>
<g transform="translate(0.000000,3965.000000) scale(0.100000,-0.100000)"
fill="#000000" stroke="none">
<path d="M48450 37648 c-166 -260 -305 -475 -307 -477 -2 -3 -287 58 -634 133
-346 76 -632 136 -635 134 -3 -3 193 -201 436 -439 242 -239 440 -436 440
-439 0 -3 -137 -216 -304 -475 -167 -258 -300 -471 -296 -473 4 -2 226 75 494
171 l486 174 20 -34 c22 -37 15 -39 88 17 l33 25 -31 10 -31 10 43 16 44 16
438 -429 c241 -236 440 -427 442 -426 1 2 -33 255 -77 562 -44 307 -79 559
-77 560 2 1 265 97 585 212 321 115 583 212 583 215 0 3 -285 67 -632 144
-348 76 -634 138 -635 139 -1 1 -36 251 -79 556 -42 305 -80 558 -84 563 -3 4
-143 -205 -310 -465z m246 -468 c26 -190 50 -347 55 -350 4 -3 172 -41 373
-84 l366 -80 -342 -124 c-189 -68 -344 -125 -345 -126 -2 -1 20 -159 47 -351
28 -192 50 -351 50 -354 0 -3 -87 80 -192 184 -106 105 -231 227 -278 272
l-85 81 -355 -128 c-195 -70 -356 -127 -358 -125 -2 1 83 136 188 298 l191
295 -256 253 c-141 140 -253 255 -248 256 4 1 170 -33 368 -77 198 -43 362
-75 365 -71 3 5 93 144 200 311 151 236 196 298 201 284 4 -11 29 -174 55
-364z"/>
<path d="M44468 36737 c-63 -72 -165 -185 -227 -249 l-111 -116 -193 -1869
-192 -1868 0 -325 c0 -287 2 -330 18 -368 9 -23 17 -56 17 -73 0 -18 24 -74
61 -142 84 -152 97 -170 190 -263 68 -69 88 -83 123 -88 22 -4 52 -17 66 -30
25 -23 163 -71 290 -100 70 -17 306 -21 395 -7 65 10 291 77 330 98 17 9 59
30 95 48 83 42 308 255 389 368 72 101 121 173 149 218 l22 37 -56 42 -56 42
-122 -123 c-131 -134 -229 -201 -421 -290 -114 -52 -156 -60 -338 -66 -151 -5
-240 7 -325 42 -19 8 -42 15 -52 15 -60 0 -248 160 -294 250 -13 25 -30 59
-39 75 -28 56 -39 130 -45 304 -3 122 0 224 11 340 58 586 256 2473 261 2478
3 3 205 -25 448 -62 409 -62 451 -67 553 -62 162 9 208 33 367 190 68 67 145
151 173 187 27 36 86 108 129 160 l80 95 -69 6 c-46 5 -75 3 -86 -5 -9 -6 -49
-36 -90 -67 -99 -75 -217 -138 -281 -151 -66 -13 -133 -13 -268 0 -131 13
-900 118 -905 124 -2 2 25 303 60 668 35 366 62 666 61 667 -1 2 -54 -57 -118
-130z"/>
<path d="M22650 36372 c0 -56 -50 -1095 -53 -1098 -2 -2 -844 -271 -1206 -386
-24 -7 -30 -13 -20 -18 8 -4 280 -76 604 -160 325 -84 591 -154 592 -154 2 -2
-40 -875 -50 -1048 -3 -43 -2 -78 2 -78 4 0 184 209 400 464 l393 464 67 -18
c230 -63 1095 -281 1106 -278 7 2 -137 194 -332 441 -191 244 -342 445 -339
452 3 10 617 745 774 928 8 9 13 19 11 21 -2 3 -278 -83 -613 -190 -335 -107
-614 -194 -620 -193 -6 0 -166 200 -356 444 -190 244 -348 444 -352 445 -5 0
-8 -17 -8 -38z m410 -797 c111 -143 210 -267 219 -276 15 -15 44 -7 370 97
195 63 356 113 357 111 1 -1 -102 -125 -229 -276 -210 -250 -229 -275 -218
-294 7 -11 102 -133 210 -271 109 -138 200 -256 204 -263 4 -6 -160 31 -365
84 -367 93 -372 94 -387 75 -52 -67 -476 -561 -478 -558 -2 2 4 159 13 350 10
190 15 348 12 352 -3 3 -160 45 -348 94 -188 49 -344 90 -345 92 -2 2 158 54
355 117 l358 114 6 76 c3 42 11 202 17 356 6 154 13 286 15 294 6 19 -4 31
234 -274z"/>
<path d="M39589 36066 c-3 -3 -47 -10 -99 -17 -52 -6 -147 -25 -210 -41 -63
-17 -137 -35 -164 -40 -27 -5 -68 -22 -90 -37 -23 -16 -59 -37 -81 -48 -22
-10 -49 -24 -60 -30 -11 -6 -45 -23 -75 -37 -87 -41 -263 -189 -361 -304 -105
-124 -130 -158 -160 -215 -34 -66 -38 -53 46 -149 27 -32 54 -58 60 -57 5 0
36 33 69 72 75 92 226 222 341 294 50 30 97 61 105 68 8 7 26 16 40 19 14 4
68 22 120 40 52 19 140 41 195 51 55 9 123 21 150 26 69 12 319 -5 374 -25 24
-9 54 -16 66 -16 12 0 28 -6 34 -14 6 -8 38 -23 69 -35 45 -17 70 -35 113 -84
73 -81 101 -132 139 -247 65 -197 84 -498 63 -978 -6 -147 -6 -150 -27 -142
-12 5 -68 18 -126 30 -87 18 -127 21 -235 17 -182 -7 -308 -24 -374 -51 -31
-13 -74 -29 -96 -36 -65 -20 -365 -233 -365 -259 0 -5 -23 -32 -51 -62 -27
-30 -69 -85 -91 -124 -22 -38 -53 -90 -69 -114 -30 -46 -97 -234 -129 -361
-16 -61 -19 -113 -20 -277 0 -189 2 -209 29 -325 34 -142 79 -260 153 -397 48
-90 75 -127 164 -226 19 -22 38 -44 42 -50 11 -16 92 -78 148 -113 28 -18 84
-41 125 -51 41 -11 94 -26 119 -35 51 -18 282 -23 322 -7 13 5 46 19 75 30 28
12 67 21 87 21 28 0 50 13 118 70 46 38 98 85 117 104 19 20 36 34 38 33 1 -2
-2 -48 -7 -103 -5 -54 -10 -116 -10 -137 l0 -39 43 7 c38 5 69 12 225 46 23 5
62 9 87 9 l45 0 0 68 c0 37 14 744 31 1572 36 1694 35 1760 -22 1994 -17 66
-36 131 -44 145 -8 14 -26 55 -41 91 -16 36 -39 79 -51 95 -13 17 -40 50 -59
73 -18 24 -34 47 -34 51 0 5 -51 44 -112 87 -123 86 -212 123 -341 144 -40 6
-88 16 -108 21 -36 9 -232 13 -240 5z m633 -2293 l40 -16 -6 -191 c-3 -105 -8
-375 -11 -601 -3 -225 -8 -488 -11 -583 l-6 -172 -87 -57 c-102 -66 -117 -73
-241 -108 -62 -17 -107 -25 -130 -21 -157 25 -274 63 -307 99 -11 12 -46 45
-78 72 -70 61 -113 123 -212 308 -8 16 -19 56 -23 90 -4 34 -13 75 -19 90 -6
16 -11 86 -11 156 0 137 23 278 60 372 11 27 29 72 40 100 21 53 87 155 113
177 8 7 20 26 27 42 14 33 114 119 189 162 57 32 204 87 269 98 75 14 356 2
404 -17z"/>
<path d="M43390 35718 c-373 -320 -385 -332 -388 -369 -3 -32 0 -39 15 -39 34
-1 293 -36 296 -41 5 -5 -216 -2161 -232 -2279 -13 -88 -33 -406 -34 -520 0
-36 5 -140 12 -232 16 -229 50 -344 144 -497 37 -58 212 -207 257 -218 14 -3
52 -18 85 -33 33 -16 78 -32 100 -36 l40 -7 -52 56 c-29 31 -53 60 -53 66 0 5
-11 23 -26 40 -14 16 -45 78 -69 137 -66 160 -79 257 -72 569 4 237 14 340
186 1945 99 932 183 1716 187 1743 3 26 2 47 -3 46 -4 0 -181 -149 -393 -331z"/>
<path d="M34670 35893 c-208 -20 -607 -148 -715 -228 -16 -13 -86 -51 -155
-85 -69 -34 -136 -72 -150 -84 -14 -13 -43 -36 -64 -52 l-39 -29 7 157 8 156
-54 -13 c-29 -6 -91 -15 -138 -19 -122 -10 -230 -36 -230 -55 1 -58 309 -4223
313 -4227 2 -3 67 0 143 7 77 6 297 13 489 16 l350 5 -3 43 -4 44 -76 30 c-43
16 -102 39 -133 49 -75 26 -118 56 -170 121 -140 171 -197 285 -259 526 -36
136 -33 100 -133 1565 l-82 1195 105 72 c58 40 128 85 155 99 48 25 92 51 224
129 72 43 348 150 411 160 25 4 81 16 125 27 140 35 310 16 440 -51 52 -28
115 -79 115 -94 0 -7 18 -30 39 -51 33 -32 46 -58 80 -160 63 -191 96 -366
111 -601 6 -88 40 -558 76 -1045 35 -487 64 -931 64 -988 0 -56 4 -178 10
-270 5 -92 14 -281 20 -421 5 -140 12 -256 14 -259 5 -4 127 19 284 56 l112
26 0 44 c0 59 -177 2752 -190 2897 -6 61 -15 137 -20 170 -5 33 -16 119 -24
191 -9 72 -20 144 -26 160 -6 16 -18 66 -26 111 -10 60 -30 115 -70 200 -54
112 -62 123 -168 228 -72 72 -128 118 -161 133 -27 13 -57 28 -65 33 -57 34
-84 43 -188 65 -111 23 -234 29 -352 17z"/>
<path d="M40640 35895 c0 -2 36 -41 81 -86 44 -45 96 -105 115 -135 18 -29 38
-55 44 -59 5 -3 10 -14 10 -23 0 -10 16 -51 36 -92 39 -83 45 -119 65 -420 10
-147 7 -432 -19 -1765 -17 -874 -27 -1593 -24 -1596 4 -3 225 -27 491 -53 402
-40 485 -46 492 -35 5 8 9 35 9 62 l0 47 -63 0 c-50 0 -80 7 -144 35 -45 19
-87 35 -95 35 -7 0 -19 9 -26 20 -6 11 -31 32 -54 46 -23 15 -50 36 -59 48
-46 57 -108 231 -129 367 -14 92 -13 537 6 1551 11 647 13 900 5 978 -6 58
-15 170 -20 250 -8 136 -11 154 -56 285 -49 144 -81 209 -126 254 -55 57 -168
151 -181 151 -7 0 -35 15 -61 34 -27 19 -66 37 -90 40 -23 4 -69 20 -101 36
-51 26 -106 39 -106 25z"/>
<path d="M35650 35843 c14 -10 50 -41 81 -70 31 -28 66 -56 78 -62 41 -23 130
-158 165 -254 60 -161 112 -461 130 -757 15 -239 218 -2988 222 -3009 4 -21 9
-22 47 -17 23 3 253 11 511 16 258 5 471 12 474 14 2 3 1 28 -3 55 -6 44 -10
51 -30 51 -12 0 -39 7 -58 15 -20 8 -45 15 -56 15 -11 0 -48 18 -82 40 -34 22
-66 40 -71 40 -10 0 -71 50 -163 133 -85 77 -166 228 -205 383 -10 44 -24 97
-29 119 -15 59 -52 381 -51 450 0 33 -23 341 -50 685 -28 344 -55 714 -60 823
-11 224 -23 338 -50 447 -10 41 -21 102 -25 135 -4 33 -13 80 -20 105 -8 25
-26 86 -40 135 -35 119 -115 263 -176 318 -159 142 -267 186 -504 203 -60 4
-60 4 -35 -13z"/>
<path d="M32565 35619 c-99 -4 -317 -10 -484 -14 l-304 -8 6 -54 c3 -31 8 -57
11 -60 2 -3 60 -24 128 -47 114 -39 161 -64 270 -144 46 -34 64 -58 115 -152
72 -134 113 -283 142 -515 27 -217 33 -288 92 -1065 63 -849 78 -1148 69
-1400 -6 -181 -10 -205 -44 -334 -31 -116 -42 -145 -70 -176 -19 -21 -37 -48
-41 -61 -12 -37 -178 -193 -242 -227 -58 -30 -59 -32 -56 -69 2 -21 6 -47 8
-59 l5 -21 97 19 c54 10 157 31 228 48 72 16 234 45 362 66 l232 37 -5 46 c-3
25 -68 951 -144 2056 -77 1106 -142 2040 -146 2078 -5 61 -8 67 -28 65 -11 -1
-102 -5 -201 -9z"/>
<path d="M47360 35141 c0 -3 -103 -638 -229 -1411 -126 -773 -235 -1448 -241
-1500 -26 -227 -32 -326 -27 -500 6 -261 28 -362 116 -535 93 -184 161 -276
280 -378 88 -76 106 -87 172 -106 40 -11 75 -19 77 -16 2 2 -27 37 -65 77 -69
73 -138 186 -181 298 -33 84 -52 228 -52 395 0 174 32 527 55 600 14 45 475
2942 475 2985 0 15 -13 21 -57 30 -32 7 -118 25 -190 40 -73 15 -133 25 -133
21z"/>
<path d="M13270 35055 c6 -8 21 -17 33 -21 74 -24 254 -191 299 -279 12 -22
41 -73 65 -112 24 -40 57 -105 73 -145 16 -39 33 -75 39 -81 6 -6 47 5 118 33
59 24 112 46 116 50 19 17 -106 225 -181 303 -15 16 -39 41 -53 56 -46 47
-171 127 -244 156 -71 29 -182 54 -244 54 -28 1 -32 -1 -21 -14z"/>
<path d="M12735 35010 c-137 -18 -277 -88 -385 -194 -67 -65 -140 -170 -140
-201 0 -8 -9 -29 -20 -47 -55 -95 -91 -441 -61 -593 32 -162 55 -258 76 -315
37 -104 113 -271 139 -304 13 -17 31 -47 41 -66 35 -68 170 -215 270 -291 108
-83 203 -123 357 -149 142 -25 373 23 553 115 92 47 135 78 241 179 113 106
229 315 255 459 5 29 13 72 19 97 5 25 12 109 16 187 l7 143 -61 -23 c-53 -19
-62 -25 -62 -47 0 -14 -6 -45 -14 -70 -8 -25 -21 -76 -30 -115 -59 -251 -250
-495 -469 -598 -43 -20 -81 -37 -84 -37 -4 0 -45 -12 -91 -26 -75 -24 -93 -26
-178 -19 -52 4 -96 11 -100 16 -3 5 -15 9 -26 9 -28 0 -140 53 -194 93 -106
76 -198 189 -263 322 -48 99 -127 303 -120 309 2 1 273 112 602 246 329 134
600 247 603 251 11 18 -163 307 -221 369 -116 124 -146 153 -187 183 -77 59
-131 81 -261 111 -72 17 -115 18 -212 6z m258 -246 c34 -20 78 -50 97 -67 42
-37 120 -130 120 -144 0 -5 11 -24 25 -43 14 -19 25 -41 25 -49 0 -12 -129
-68 -451 -199 -248 -101 -453 -181 -456 -179 -2 3 -9 48 -15 100 -20 166 27
346 115 447 109 124 245 184 400 175 67 -4 86 -9 140 -41z"/>
<path d="M29558 35004 c-10 -3 -18 -9 -17 -12 0 -4 46 -29 102 -57 84 -40 114
-62 170 -120 87 -89 104 -119 167 -290 63 -171 93 -282 120 -445 11 -69 30
-161 42 -205 12 -44 133 -721 268 -1505 l246 -1425 37 2 c20 1 88 14 151 28
130 29 491 87 700 111 78 10 144 20 148 23 4 3 1 29 -6 56 l-12 50 -65 6 c-36
3 -70 8 -76 12 -7 4 -38 12 -69 18 -94 17 -237 104 -341 207 -58 58 -80 89
-118 169 -81 169 -145 389 -189 648 -8 50 -67 380 -131 735 -64 355 -124 699
-135 765 -52 328 -184 788 -251 875 -14 19 -37 55 -49 80 -25 50 -126 160
-147 160 -7 0 -21 8 -31 18 -10 10 -45 29 -78 41 -32 13 -72 30 -89 38 -22 11
-71 16 -180 19 -82 2 -158 1 -167 -2z"/>
<path d="M48070 34993 c0 -5 -110 -671 -245 -1482 -273 -1644 -300 -1834 -292
-2096 l5 -170 50 -143 c55 -156 98 -229 191 -326 75 -78 148 -131 245 -179
l81 -40 190 -4 c179 -4 194 -3 260 19 39 13 104 42 146 66 81 45 89 57 89 138
0 38 -10 42 -52 20 -45 -24 -176 -31 -239 -13 -30 8 -79 18 -109 22 -32 4 -87
23 -130 45 -133 67 -242 222 -292 416 -21 80 -23 112 -23 314 0 135 5 255 13
300 215 1279 503 3023 499 3027 -4 4 -371 93 -384 93 -2 0 -3 -3 -3 -7z"/>
<path d="M28720 34934 c-76 -15 -232 -59 -280 -79 -30 -12 -92 -37 -138 -54
-74 -27 -134 -60 -331 -181 -153 -94 -284 -194 -357 -275 -43 -47 -79 -83 -81
-81 -2 2 -9 75 -16 162 -7 91 -17 158 -22 157 -6 -2 -74 -25 -153 -52 -79 -28
-168 -55 -198 -61 -53 -11 -55 -13 -50 -38 3 -15 168 -954 366 -2087 199
-1133 362 -2061 363 -2062 3 -2 388 66 602 106 61 12 173 25 249 31 76 5 140
11 142 13 2 2 0 19 -5 38 -5 19 -12 46 -15 60 -5 25 -9 26 -101 32 -115 8
-228 50 -285 106 -20 20 -54 50 -76 67 -22 18 -64 66 -93 109 -57 82 -154 301
-166 376 -4 24 -20 83 -36 132 -16 48 -29 101 -29 117 0 17 -94 562 -210 1213
l-209 1182 83 77 c191 177 382 318 551 408 38 20 93 50 120 66 53 32 107 52
273 104 99 32 109 33 223 27 108 -5 124 -8 172 -35 95 -54 124 -77 162 -127
52 -70 165 -305 165 -345 0 -17 7 -44 15 -58 14 -26 47 -142 65 -232 8 -37
281 -1585 350 -1980 19 -105 93 -640 126 -905 10 -77 18 -141 19 -143 1 -1 42
13 91 31 49 19 139 51 200 71 90 30 111 40 108 54 -2 9 -107 620 -234 1357
-127 737 -242 1396 -256 1465 -47 225 -85 383 -118 500 -19 63 -39 137 -45
164 -16 65 -30 92 -112 216 -52 78 -83 114 -121 140 -28 19 -66 50 -85 68 -18
19 -50 38 -70 44 -20 5 -51 21 -68 34 -18 13 -55 28 -84 34 -28 5 -60 14 -69
19 -20 11 -292 23 -332 15z"/>
<path d="M8666 34716 c-15 -13 -62 -41 -102 -62 -52 -27 -73 -44 -70 -54 5
-18 1534 -3241 1540 -3247 3 -3 18 4 34 15 16 12 53 30 83 42 30 12 78 35 106
51 29 16 99 48 155 70 57 22 105 42 107 44 1 2 -4 14 -13 26 -13 19 -26 23
-83 25 -79 2 -158 23 -219 59 -55 32 -131 126 -178 218 -19 40 -42 83 -51 97
-8 14 -130 270 -270 570 -236 503 -255 547 -243 569 7 13 54 66 103 116 65 67
125 115 215 174 69 44 130 81 136 81 6 0 24 7 40 15 17 8 61 17 100 21 149 14
249 -44 343 -199 54 -90 390 -796 451 -947 21 -52 73 -174 115 -270 43 -96 81
-185 86 -198 9 -22 9 -22 119 33 60 30 110 59 110 64 0 12 -640 1351 -691
1446 -74 138 -159 230 -239 261 -8 3 -26 11 -39 17 -16 8 -79 11 -176 10
l-152 -1 -102 -47 c-57 -26 -129 -65 -160 -86 -31 -21 -80 -55 -109 -75 -54
-37 -215 -210 -234 -251 -10 -20 -30 17 -165 305 -84 180 -167 352 -182 382
-16 30 -58 127 -94 215 -36 88 -92 221 -125 295 -33 74 -68 159 -78 188 -10
28 -23 52 -29 52 -5 -1 -23 -11 -39 -24z"/>
<path d="M8214 34467 c-61 -29 -170 -79 -243 -111 l-133 -59 6 -30 c3 -17 7
-32 9 -33 1 -1 25 2 52 8 162 33 291 -32 391 -197 78 -129 199 -375 623 -1271
498 -1054 543 -1154 578 -1279 46 -169 32 -264 -58 -386 -54 -72 -58 -81 -47
-104 6 -14 16 -24 22 -22 6 3 54 33 106 69 52 35 145 92 205 126 61 35 120 71
133 80 l22 17 -772 1623 c-425 892 -775 1622 -778 1621 -3 -1 -55 -24 -116
-52z"/>
<path d="M11882 34288 c-40 -81 -77 -190 -102 -297 -16 -67 -7 -320 14 -401
62 -243 142 -395 271 -520 98 -94 104 -100 114 -100 4 0 28 -16 52 -35 24 -19
51 -35 60 -35 9 0 30 -7 45 -15 16 -8 41 -15 55 -15 14 0 48 -7 75 -15 27 -8
50 -15 52 -15 1 0 2 8 2 19 0 10 -18 31 -42 47 -37 26 -130 133 -211 241 -48
66 -102 156 -126 213 -13 30 -32 69 -43 87 -34 57 -116 328 -139 463 -7 43
-13 158 -13 268 -1 133 -4 192 -12 192 -6 0 -29 -37 -52 -82z"/>
<path d="M26635 34349 c-100 -12 -178 -26 -360 -65 -88 -19 -240 -45 -337 -57
-98 -13 -181 -26 -184 -30 -3 -3 -1 -28 6 -55 11 -47 14 -50 48 -55 159 -24
201 -35 274 -73 14 -8 33 -14 40 -14 8 0 23 -9 33 -20 10 -11 24 -20 30 -20
20 0 147 -154 192 -232 22 -40 54 -111 71 -158 27 -79 45 -147 121 -471 24
-103 244 -1373 322 -1859 14 -89 37 -364 40 -480 1 -40 -23 -269 -32 -302 -16
-62 -139 -262 -177 -290 -10 -7 -27 -28 -38 -46 -10 -18 -43 -49 -72 -70 -45
-31 -52 -40 -47 -60 3 -13 9 -37 12 -53 3 -16 10 -29 15 -29 6 0 58 18 117 39
111 41 452 146 654 202 115 32 118 33 113 58 -3 14 -166 942 -361 2061 -196
1119 -358 2047 -361 2063 -6 30 -5 30 -119 16z"/>
<path d="M10480 33934 c-49 -8 -102 -26 -132 -44 l-31 -19 29 1 c56 1 150 -24
197 -54 114 -72 179 -190 567 -1023 172 -368 316 -674 320 -678 9 -10 107 30
187 77 33 19 88 46 124 59 86 32 209 95 209 106 0 36 -10 39 -119 33 -88 -4
-115 -2 -141 12 -18 9 -39 16 -47 16 -7 0 -13 5 -13 10 0 6 -6 10 -14 10 -7 0
-42 29 -77 64 -84 83 -123 154 -359 656 -228 484 -239 507 -298 590 -53 75
-103 124 -164 161 -37 23 -54 26 -128 26 -47 1 -96 -1 -110 -3z"/>
<path d="M38655 33933 c-122 -28 -272 -117 -413 -244 -137 -125 -189 -206
-255 -395 -47 -135 -61 -259 -54 -470 5 -171 22 -264 61 -339 9 -17 16 -39 16
-50 0 -11 15 -43 33 -70 83 -126 138 -203 169 -236 67 -73 217 -189 309 -238
90 -48 209 -96 209 -85 0 3 -16 24 -35 47 -86 103 -109 136 -158 226 -84 155
-136 319 -177 557 -19 112 -22 151 -17 294 6 157 20 250 61 410 26 99 97 284
126 330 16 25 39 67 51 94 12 27 41 75 65 105 24 31 44 59 44 64 0 7 -3 7 -35
0z"/>
<path d="M7604 33596 c-33 -30 -88 -74 -121 -98 -34 -24 -106 -77 -161 -119
-55 -42 -290 -208 -522 -370 -301 -209 -420 -297 -417 -308 3 -13 1591 -2647
1603 -2660 2 -2 18 7 36 21 18 13 60 39 93 58 64 35 404 247 419 261 5 5 2 18
-7 33 l-16 24 -51 -19 c-86 -32 -242 -19 -300 25 -8 7 -28 18 -44 26 -16 8
-64 49 -107 90 -71 69 -104 113 -198 261 -65 105 -1112 1834 -1114 1841 -2 8
544 387 613 425 25 14 50 29 55 33 6 4 39 19 75 33 49 20 85 27 146 28 83 2
119 -11 206 -72 14 -11 31 -19 37 -19 6 0 11 -5 11 -11 0 -6 20 -30 45 -54 47
-44 95 -108 95 -125 0 -15 18 -12 51 7 22 13 27 22 23 38 -7 21 -112 213 -195
355 -27 47 -66 119 -85 160 -31 64 -103 190 -109 190 -1 0 -29 -24 -61 -54z"/>
<path d="M23983 33448 c-95 -33 -173 -65 -173 -70 0 -6 164 -634 364 -1397
201 -762 376 -1435 390 -1496 14 -60 44 -162 67 -225 22 -63 50 -142 61 -175
27 -81 115 -263 144 -298 13 -16 24 -34 24 -41 0 -22 199 -196 225 -196 3 0
46 -20 96 -45 108 -53 163 -61 327 -47 104 9 120 14 210 57 170 82 303 194
359 301 15 30 31 54 35 54 4 0 15 14 23 30 12 23 13 39 6 68 -5 20 -12 50 -15
65 l-7 28 -40 -33 c-106 -86 -194 -148 -211 -148 -10 0 -30 -8 -44 -17 -14 -9
-44 -20 -67 -24 -23 -4 -64 -13 -92 -19 -106 -23 -223 8 -340 89 -27 19 -57
44 -65 55 -8 12 -31 39 -52 62 -51 56 -188 292 -188 325 0 15 -11 47 -25 71
-15 27 -52 151 -91 304 -36 142 -213 826 -392 1519 -244 939 -331 1260 -342
1262 -8 1 -93 -25 -187 -59z"/>
<path d="M23298 33202 c-97 -32 -179 -60 -182 -63 -6 -5 627 -2429 733 -2809
50 -182 95 -312 125 -370 13 -25 31 -67 40 -95 9 -27 31 -72 50 -98 19 -27 38
-62 41 -77 3 -16 13 -34 22 -41 8 -7 30 -37 49 -66 19 -29 38 -53 44 -53 5 0
42 -29 81 -65 139 -128 214 -163 479 -226 l86 -20 69 26 c38 15 74 29 80 33
13 8 -36 19 -95 21 -37 2 -64 14 -149 69 -100 65 -107 71 -196 195 -55 77
-103 155 -118 195 -139 357 -172 456 -206 625 -15 73 -686 2613 -747 2825 -8
28 -18 52 -22 51 -4 0 -87 -26 -184 -57z"/>
<path d="M5980 32443 c-498 -345 -761 -523 -802 -544 -24 -12 -64 -36 -90 -55
-26 -18 -79 -49 -117 -69 -39 -19 -71 -39 -71 -43 0 -5 16 -34 35 -66 19 -32
35 -62 35 -65 0 -4 15 -32 33 -62 18 -30 70 -133 116 -229 47 -96 102 -203
124 -237 l41 -62 28 17 c34 20 35 32 4 130 -95 307 -67 465 114 625 85 75 682
489 691 479 15 -15 1054 -1720 1096 -1797 240 -448 257 -591 96 -833 -33 -51
-34 -54 -18 -78 l16 -25 32 23 c18 12 57 45 87 73 72 66 214 176 314 245 45
30 80 59 79 63 -2 15 -1607 2667 -1612 2666 -4 0 -107 -70 -231 -156z"/>
<path d="M21520 32419 c-63 -4 -131 -12 -150 -18 -19 -6 -47 -11 -62 -11 -16
0 -54 -9 -85 -19 -32 -11 -80 -22 -107 -25 -79 -10 -304 -76 -396 -116 -47
-21 -110 -46 -140 -55 -52 -16 -313 -142 -390 -188 -19 -11 -98 -64 -175 -116
-230 -158 -410 -347 -552 -581 -93 -153 -106 -179 -138 -285 -15 -49 -38 -121
-51 -159 -41 -115 -84 -436 -84 -623 0 -317 89 -832 173 -998 11 -21 30 -79
43 -127 13 -48 37 -114 53 -145 15 -32 43 -94 61 -138 18 -44 44 -94 57 -112
13 -18 45 -70 72 -117 27 -46 67 -107 90 -136 23 -28 41 -56 41 -61 0 -11 161
-172 286 -285 49 -45 114 -94 144 -109 30 -15 67 -36 81 -46 78 -55 254 -131
385 -166 132 -35 148 -37 324 -41 145 -2 196 0 235 12 77 23 165 44 220 52 93
13 399 158 504 239 41 31 93 66 115 77 57 28 221 198 319 328 152 203 326 594
343 774 4 34 15 93 26 131 15 56 20 117 24 295 3 124 2 259 -3 301 l-8 77 -97
-45 c-96 -45 -97 -46 -103 -87 -52 -335 -86 -496 -122 -575 -14 -30 -32 -77
-40 -105 -8 -28 -42 -102 -74 -164 -32 -62 -59 -118 -59 -125 -1 -12 -16 -34
-111 -159 -110 -144 -272 -282 -472 -402 -173 -103 -242 -128 -497 -186 -87
-19 -285 -10 -335 16 -22 12 -58 24 -81 27 -105 17 -284 125 -445 270 -60 54
-109 102 -109 106 0 5 -34 45 -74 89 -41 45 -93 114 -115 154 -22 40 -52 88
-66 107 -14 19 -25 40 -25 46 0 5 -18 40 -39 77 -22 37 -44 82 -50 101 -6 19
-25 55 -41 80 -16 26 -41 86 -56 134 -31 104 -64 205 -94 288 -22 61 -49 191
-75 365 -19 126 -19 411 0 515 31 174 38 202 57 250 12 28 34 88 50 135 33 97
108 241 148 285 15 17 40 50 55 75 26 41 88 106 238 248 30 29 84 66 119 82
35 17 97 51 138 76 41 24 86 47 100 50 14 2 39 9 55 15 38 14 146 46 205 61
25 6 119 13 210 15 147 4 174 2 240 -17 41 -12 91 -25 110 -29 60 -14 281
-126 355 -179 92 -67 213 -182 270 -257 40 -52 160 -229 191 -281 10 -17 13
-17 67 5 31 13 57 28 57 35 0 6 -11 52 -25 101 -14 50 -25 101 -25 115 0 14
-30 93 -66 175 -36 83 -83 193 -104 245 -21 52 -53 129 -73 170 -48 104 -94
236 -123 359 -35 148 -29 141 -127 139 -45 0 -134 -5 -197 -9z"/>
<path d="M18922 30902 c-116 -167 -141 -205 -185 -277 -66 -109 -151 -313
-172 -410 -39 -192 -45 -250 -45 -500 0 -278 18 -449 64 -592 13 -43 30 -107
37 -143 12 -63 93 -260 135 -330 12 -19 25 -46 29 -60 4 -14 15 -34 25 -45 9
-11 34 -53 55 -93 21 -40 51 -85 67 -100 16 -15 47 -53 69 -85 22 -31 93 -110
158 -175 169 -168 304 -265 400 -287 31 -7 83 -24 116 -38 56 -24 170 -44 295
-53 l55 -3 -45 20 c-25 12 -56 31 -70 44 -14 13 -50 39 -80 58 -58 37 -224
209 -280 291 -18 27 -59 79 -90 115 -71 83 -105 137 -140 221 -15 36 -38 84
-52 105 -13 22 -37 72 -52 110 -15 39 -40 93 -56 120 -16 28 -65 160 -110 295
-45 135 -86 252 -90 260 -15 28 -98 442 -109 540 -24 224 -23 364 3 591 25
211 41 285 94 417 12 28 18 52 14 52 -4 0 -22 -22 -40 -48z"/>
<path d="M38170 30705 c0 -12 -15 -15 -75 -15 -60 0 -75 -3 -75 -15 0 -10 -10
-15 -30 -15 -20 0 -30 -5 -30 -15 0 -10 -10 -15 -30 -15 -20 0 -30 -5 -30 -15
0 -8 -7 -15 -15 -15 -8 0 -15 -7 -15 -15 0 -10 -10 -15 -30 -15 -20 0 -30 -5
-30 -15 0 -8 -7 -15 -15 -15 -8 0 -15 -7 -15 -15 0 -11 -12 -15 -45 -15 -33 0
-45 -4 -45 -15 0 -10 -10 -15 -30 -15 -20 0 -30 -5 -30 -15 0 -10 -10 -15 -30
-15 -20 0 -30 -5 -30 -15 0 -8 -7 -15 -15 -15 -8 0 -15 -7 -15 -15 0 -8 -7
-15 -15 -15 -10 0 -15 -10 -15 -30 0 -20 -5 -30 -15 -30 -8 0 -15 -7 -15 -15
0 -8 -7 -15 -15 -15 -8 0 -15 -7 -15 -15 0 -8 -7 -15 -15 -15 -8 0 -15 -7 -15
-15 0 -8 -7 -15 -15 -15 -10 0 -15 -10 -15 -30 0 -20 -5 -30 -15 -30 -10 0
-15 -10 -15 -30 0 -20 -5 -30 -15 -30 -10 0 -15 -10 -15 -30 0 -20 -5 -30 -15
-30 -8 0 -15 -7 -15 -15 0 -8 -7 -15 -15 -15 -11 0 -15 -12 -15 -45 0 -33 -4
-45 -15 -45 -10 0 -15 -10 -15 -30 0 -20 5 -30 15 -30 8 0 15 -4 15 -9 0 -5
-7 -11 -15 -15 -9 -3 -15 -18 -15 -35 0 -16 -6 -31 -15 -35 -8 -3 -15 -13 -15
-22 0 -10 5 -14 15 -10 9 3 15 1 14 -7 -1 -6 -1 -54 0 -104 1 -76 4 -93 16
-93 11 0 15 -12 15 -45 0 -33 4 -45 15 -45 11 0 15 -12 15 -45 0 -33 4 -45 15
-45 10 0 15 -10 15 -30 0 -20 5 -30 15 -30 10 0 15 -10 15 -30 0 -20 5 -30 15
-30 11 0 15 -11 15 -40 0 -27 5 -43 15 -46 9 -4 15 -19 15 -35 0 -19 5 -29 15
-29 12 0 15 -13 15 -60 0 -47 3 -60 15 -60 8 0 15 -9 15 -20 0 -11 7 -20 15
-20 12 0 15 -13 15 -55 0 -42 3 -55 15 -55 10 0 15 -10 15 -30 0 -20 5 -30 15
-30 10 0 15 -10 15 -30 0 -20 5 -30 15 -30 10 0 15 -10 15 -30 0 -20 5 -30 15
-30 10 0 15 -10 15 -30 0 -20 5 -30 15 -30 10 0 15 -10 15 -30 0 -20 5 -30 15
-30 10 0 15 -11 15 -35 0 -24 5 -35 15 -35 8 0 15 -7 15 -15 0 -8 7 -15 15
-15 8 0 15 -7 15 -15 0 -8 7 -15 15 -15 8 0 15 -7 15 -15 0 -8 7 -15 15 -15
10 0 15 -10 15 -29 0 -16 6 -31 15 -35 8 -3 15 -9 14 -13 -4 -25 3 -43 16 -43
8 0 15 -7 15 -15 0 -10 10 -15 30 -15 27 0 30 -3 30 -30 0 -20 5 -30 15 -30 8
0 15 -7 15 -15 0 -8 7 -15 15 -15 8 0 15 -7 15 -15 0 -8 7 -15 15 -15 8 0 15
-7 15 -15 0 -8 5 -15 10 -15 6 0 19 -9 30 -20 11 -11 20 -24 20 -30 0 -5 7
-10 15 -10 8 0 15 -7 15 -15 0 -8 7 -15 15 -15 13 0 15 -21 15 -126 0 -75 -4
-123 -9 -119 -5 3 -12 1 -15 -4 -4 -5 2 -12 11 -14 17 -4 17 -5 1 -6 -11 -1
-18 -9 -18 -21 0 -13 -5 -18 -15 -14 -11 5 -15 -1 -15 -25 0 -21 -5 -31 -15
-31 -8 0 -15 -7 -15 -15 0 -8 -7 -15 -15 -15 -8 0 -15 -7 -15 -15 0 -8 -7 -15
-15 -15 -9 0 -12 -6 -9 -15 4 -10 0 -15 -15 -15 -12 0 -21 -6 -21 -15 0 -10
-10 -15 -30 -15 -20 0 -30 -5 -30 -15 0 -8 -7 -15 -15 -15 -8 0 -15 -7 -15
-15 0 -11 -12 -15 -45 -15 -33 0 -45 4 -45 15 0 8 -7 15 -15 15 -14 0 -19 -17
-16 -46 0 -5 -19 -11 -44 -13 -35 -1 -45 2 -45 14 0 10 -10 15 -30 15 -20 0
-30 -5 -30 -15 0 -11 -12 -15 -45 -15 -43 0 -45 1 -45 30 0 29 -2 30 -45 30
-33 0 -45 4 -45 15 0 12 -13 15 -60 15 -47 0 -60 3 -60 15 0 10 -10 15 -30 15
-20 0 -30 5 -30 15 0 10 -10 15 -30 15 -20 0 -30 5 -30 15 0 11 -12 15 -45 15
-33 0 -45 4 -45 15 0 13 -20 15 -120 15 -100 0 -120 3 -120 15 0 12 -15 15
-75 15 -60 0 -75 -3 -75 -15 0 -13 -27 -15 -180 -15 -153 0 -180 -2 -180 -15
0 -11 -12 -15 -45 -15 -33 0 -45 -4 -45 -15 0 -12 -15 -15 -75 -15 -60 0 -75
-3 -75 -15 0 -13 -22 -15 -134 -15 -110 0 -135 -3 -140 -15 -4 -11 -22 -15
-76 -15 -56 0 -70 3 -70 15 0 13 -25 15 -165 15 -140 0 -165 2 -165 15 0 13
-22 15 -135 15 -113 0 -135 2 -135 15 0 12 -16 15 -81 15 -71 0 -80 2 -75 16
5 14 4 15 -9 4 -10 -8 -15 -9 -15 -1 0 6 -7 11 -15 11 -8 0 -15 7 -15 15 0 10
-10 15 -30 15 -20 0 -30 5 -30 15 0 12 -15 15 -75 15 -60 0 -75 3 -75 15 0 10
-10 15 -30 15 -20 0 -30 -5 -30 -15 0 -10 -11 -15 -35 -15 -24 0 -35 5 -35 15
0 13 -50 15 -386 15 -347 0 -387 -2 -402 -17 -16 -16 -17 -16 -20 0 -3 13 -15
17 -53 17 -31 0 -48 -4 -46 -11 1 -6 -4 -14 -12 -17 -10 -3 -12 0 -8 12 6 15
-18 16 -268 16 -238 0 -275 -2 -275 -15 0 -8 -7 -15 -15 -15 -8 0 -15 7 -15
15 0 8 -7 15 -15 15 -8 0 -15 -7 -15 -15 0 -12 -18 -15 -105 -15 -87 0 -105 3
-105 15 0 8 -7 15 -15 15 -8 0 -15 -7 -15 -15 0 -11 -12 -15 -45 -15 -33 0
-45 4 -45 15 0 8 -7 15 -15 15 -8 0 -15 -7 -15 -15 0 -12 -17 -15 -90 -15 -73
0 -90 3 -90 15 0 8 -7 15 -15 15 -10 0 -15 -10 -15 -30 l0 -30 -135 0 c-113 0
-135 -2 -135 -15 0 -12 -19 -15 -115 -15 -94 0 -117 -3 -121 -15 -4 -10 -20
-15 -50 -15 -32 0 -44 -4 -44 -15 0 -13 -23 -15 -145 -15 -120 0 -147 -3 -151
-15 -4 -9 -19 -15 -35 -15 -19 0 -29 5 -29 15 0 8 -6 15 -14 15 -8 0 -16 -7
-20 -15 -4 -11 -21 -15 -61 -15 -42 0 -55 -3 -55 -15 0 -8 -7 -15 -15 -15 -9
0 -12 -6 -9 -15 5 -12 -4 -15 -45 -15 -37 0 -53 -4 -57 -15 -4 -10 -20 -15
-45 -15 -28 0 -39 4 -39 15 0 8 -7 15 -15 15 -8 0 -15 -7 -15 -15 0 -8 -7 -15
-15 -15 -8 0 -15 -7 -15 -15 0 -12 -13 -15 -60 -15 -47 0 -60 -3 -60 -15 0
-12 -20 -15 -120 -15 -100 0 -120 -2 -120 -15 0 -10 -10 -15 -30 -15 -20 0
-30 -5 -30 -15 0 -10 -10 -15 -30 -15 -20 0 -30 -5 -30 -15 0 -12 -17 -15 -90
-15 -73 0 -90 -3 -90 -15 0 -10 -10 -15 -30 -15 -20 0 -30 -5 -30 -15 0 -11
-12 -15 -45 -15 -43 0 -45 -1 -45 -30 0 -29 -2 -30 -45 -30 -33 0 -45 -4 -45
-15 0 -10 -10 -15 -30 -15 -20 0 -30 -5 -30 -15 0 -11 -12 -15 -45 -15 l-45 0
0 -105 0 -105 45 0 c33 0 45 4 45 15 0 11 12 15 45 15 33 0 45 4 45 15 0 8 7
15 15 15 8 0 15 7 15 15 0 12 15 15 75 15 60 0 75 3 75 15 0 8 7 15 15 15 8 0
15 -7 15 -15 0 -10 10 -15 30 -15 20 0 30 5 30 15 0 10 10 15 30 15 20 0 30
-5 30 -15 0 -8 7 -15 15 -15 8 0 15 7 15 15 0 8 7 15 15 15 8 0 15 7 15 15 0
10 10 15 30 15 20 0 30 5 30 15 0 13 25 15 165 15 140 0 165 -2 165 -15 0 -10
10 -15 30 -15 20 0 30 -5 30 -15 0 -10 10 -15 30 -15 20 0 30 -5 30 -15 0 -12
13 -15 60 -15 47 0 60 -3 60 -15 0 -11 12 -15 45 -15 33 0 45 4 45 15 0 8 7
15 15 15 8 0 15 -7 15 -15 0 -8 7 -15 15 -15 8 0 15 7 15 15 0 10 10 15 30 15
20 0 30 -5 30 -15 0 -8 7 -15 15 -15 8 0 15 7 15 15 0 10 10 15 30 15 20 0 30
5 30 15 0 8 9 15 20 15 13 0 18 5 14 15 -5 13 15 15 145 15 128 0 151 -2 151
-15 0 -10 10 -15 30 -15 20 0 30 -5 30 -15 0 -12 18 -15 105 -15 87 0 105 -3
105 -15 0 -12 17 -15 90 -15 73 0 90 -3 90 -15 0 -11 12 -15 45 -15 33 0 45
-4 45 -15 0 -10 10 -15 30 -15 27 0 30 3 30 30 0 20 5 30 15 30 8 0 15 -7 15
-15 0 -12 18 -15 105 -15 87 0 105 3 105 15 0 10 10 15 30 15 27 0 30 -3 30
-30 0 -20 5 -30 15 -30 8 0 15 7 15 15 0 8 7 15 15 15 10 0 15 -10 15 -30 0
-30 0 -30 58 -30 39 0 52 -3 42 -10 -13 -8 -13 -10 0 -14 8 -3 38 -7 65 -8 34
-2 49 -7 48 -15 -2 -7 4 -13 12 -13 9 0 12 6 9 15 -4 10 0 15 10 15 9 0 19 -7
22 -15 4 -10 20 -15 50 -15 32 0 44 -4 44 -15 0 -13 25 -15 165 -15 140 0 165
-2 165 -15 0 -12 18 -15 105 -15 87 0 105 3 105 15 0 13 36 15 260 15 224 0
260 -2 260 -15 0 -12 18 -15 105 -15 87 0 105 3 105 15 0 11 12 15 45 15 33 0
45 -4 45 -15 0 -10 10 -15 30 -15 20 0 30 -5 30 -15 0 -13 11 -15 63 -13 43 2
61 7 60 16 -2 8 14 12 57 12 47 0 60 -3 60 -15 0 -10 10 -15 30 -15 20 0 30
-5 30 -15 0 -12 11 -15 45 -13 34 1 45 5 41 15 -4 9 4 13 29 13 32 0 35 -2 35
-30 0 -27 3 -30 30 -30 18 0 30 5 30 13 0 9 16 14 45 16 35 1 45 -2 45 -14 0
-11 12 -15 50 -15 40 0 48 3 44 15 -5 11 1 15 25 15 21 0 31 -5 31 -15 0 -12
20 -15 119 -15 96 0 120 -3 125 -15 3 -8 17 -15 31 -15 16 0 25 -6 25 -15 0
-12 18 -15 105 -15 87 0 105 -3 105 -15 0 -8 6 -15 14 -15 8 0 16 7 20 15 3 8
10 15 17 15 6 0 9 -7 5 -15 -4 -12 6 -15 59 -15 51 0 65 -3 65 -15 0 -11 12
-15 45 -15 33 0 45 -4 45 -15 0 -11 12 -15 45 -15 33 0 45 -4 45 -15 0 -10 10
-15 30 -15 20 0 30 -5 30 -15 0 -10 10 -15 30 -15 20 0 30 -5 30 -15 0 -10 10
-15 30 -15 20 0 30 -5 30 -15 0 -10 10 -15 30 -15 20 0 30 -5 30 -15 0 -10 10
-15 30 -15 20 0 30 -5 30 -15 0 -10 10 -15 30 -15 20 0 30 -5 30 -15 0 -9 9
-15 25 -15 14 0 28 -7 31 -15 4 -9 19 -15 35 -15 19 0 29 -5 29 -15 0 -9 9
-15 25 -15 13 0 28 -7 32 -15 5 -9 25 -16 51 -17 41 -1 55 -11 30 -21 -7 -3 6
-6 30 -6 30 -1 42 -5 42 -16 0 -10 10 -15 30 -15 20 0 30 -5 30 -15 0 -8 7
-15 15 -15 8 0 15 -7 15 -15 0 -8 7 -15 15 -15 8 0 15 -7 15 -15 0 -8 7 -15
15 -15 10 0 15 -10 15 -30 0 -20 5 -30 15 -30 8 0 15 -7 15 -15 0 -8 7 -15 15
-15 8 0 15 -7 15 -15 0 -8 -7 -15 -15 -15 -8 0 -15 -7 -15 -15 0 -10 10 -15
30 -15 29 0 30 -2 30 -45 0 -33 4 -45 15 -45 11 0 15 -12 15 -45 0 -33 -4 -45
-15 -45 -13 0 -15 -23 -15 -150 0 -127 2 -150 15 -150 13 0 15 -23 15 -150 0
-127 -2 -150 -15 -150 -8 0 -15 -7 -15 -15 0 -8 7 -15 15 -15 15 0 21 -43 15
-108 -1 -14 3 -21 12 -20 9 2 14 -11 16 -39 2 -34 0 -43 -12 -43 -13 0 -16
-14 -16 -75 0 -60 3 -75 15 -75 13 0 15 -35 15 -255 l0 -255 -30 0 c-27 0 -30
-3 -30 -30 0 -20 5 -30 15 -30 12 0 15 -15 15 -75 0 -60 -3 -75 -15 -75 -13 0
-15 -28 -15 -195 0 -206 0 -204 -44 -196 -5 1 -3 -6 5 -15 12 -16 12 -17 -3
-11 -13 5 -18 1 -18 -13 0 -11 -7 -20 -15 -20 -8 0 -15 -9 -15 -20 0 -16 -7
-20 -30 -20 -20 0 -30 -5 -30 -15 0 -12 -14 -15 -69 -15 -52 0 -70 4 -75 15
-3 9 -18 15 -36 15 -20 0 -30 -5 -30 -15 0 -11 -12 -15 -45 -15 -33 0 -45 4
-45 15 0 12 -13 15 -60 15 -53 0 -60 2 -60 20 0 16 -7 20 -30 20 -23 0 -30 -4
-30 -20 0 -16 -7 -20 -30 -20 -23 0 -30 4 -30 20 0 19 -7 20 -165 20 -140 0
-165 2 -165 15 0 10 -10 15 -30 15 -19 0 -33 6 -37 17 -6 15 -7 15 -14 -3 -7
-17 -8 -17 -8 -1 -1 12 -9 17 -31 17 -20 0 -30 5 -30 15 0 11 -12 15 -45 15
-33 0 -45 -4 -45 -15 0 -8 -7 -15 -15 -15 -10 0 -15 10 -15 30 0 28 -3 30 -35
30 -21 0 -34 -5 -33 -11 2 -6 -9 -13 -24 -16 -20 -3 -28 1 -28 12 0 8 -7 15
-15 15 -8 0 -15 7 -15 15 0 8 -9 15 -20 15 -13 0 -18 5 -14 15 5 12 -2 15 -30
15 -26 0 -36 -4 -36 -16 0 -8 -5 -12 -10 -9 -6 4 -8 11 -5 16 4 5 -16 9 -44 9
-39 0 -51 4 -51 15 0 12 -14 15 -62 16 -35 0 -57 3 -50 6 20 8 14 18 -13 21
-16 1 -25 -3 -25 -13 0 -20 -46 -20 -57 0 -5 8 -21 16 -36 17 -15 1 -27 8 -27
15 0 8 -12 13 -30 13 -20 0 -30 5 -30 15 0 11 -12 15 -45 15 -33 0 -45 4 -45
15 0 11 -12 15 -51 15 -31 0 -48 -4 -44 -10 3 -5 1 -10 -4 -10 -6 0 -11 5 -11
10 0 6 -25 10 -55 10 -40 0 -57 4 -61 15 -5 11 -22 15 -70 15 -50 0 -64 3 -64
15 0 11 -12 15 -45 15 -33 0 -45 4 -45 15 0 12 -13 15 -60 15 -47 0 -60 3 -60
15 0 11 -13 15 -54 15 -60 0 -89 -7 -80 -21 3 -5 -9 -9 -25 -9 -20 0 -30 5
-29 13 2 9 -34 13 -149 15 -127 2 -153 5 -153 17 0 11 -12 15 -45 15 -33 0
-45 4 -45 15 0 13 -23 15 -150 15 l-150 0 0 24 c0 26 -15 43 -24 27 -4 -5 0
-12 6 -14 7 -3 -29 -6 -79 -6 -77 -1 -93 -4 -93 -17 0 -8 -5 -12 -10 -9 -6 4
-8 11 -5 16 4 5 -10 9 -29 9 -25 0 -36 4 -36 15 0 12 -13 15 -60 15 -47 0 -60
3 -60 15 0 10 -10 15 -30 15 -20 0 -30 5 -30 15 0 8 -9 15 -20 15 -11 0 -20 7
-20 15 0 11 -11 15 -40 15 -29 0 -40 4 -40 15 0 11 -12 15 -45 15 -33 0 -45 4
-45 15 0 12 -13 15 -60 15 -45 0 -62 4 -66 15 -4 8 -17 15 -30 15 -15 0 -24 6
-24 15 0 10 -10 15 -30 15 -20 0 -30 5 -30 15 0 12 -13 15 -60 15 -47 0 -60 3
-60 15 0 10 -10 15 -30 15 -20 0 -30 5 -30 15 0 10 -10 15 -29 15 -42 0 -66
10 -49 21 9 6 4 9 -14 9 -18 0 -28 5 -28 15 0 11 -12 15 -50 15 -41 0 -48 3
-43 16 4 10 1 15 -8 14 -42 -6 -79 1 -79 15 0 8 -7 15 -15 15 -10 0 -15 10
-15 30 0 20 -5 30 -15 30 -8 0 -15 -7 -15 -15 0 -10 -10 -15 -30 -15 -20 0
-30 5 -30 15 0 11 -12 15 -45 15 -33 0 -45 4 -45 15 0 10 -10 15 -29 15 -25 0
-30 5 -33 27 -3 28 -28 45 -28 19 0 -11 -9 -16 -30 -16 -20 0 -30 5 -30 15 0
10 -10 15 -30 15 -20 0 -30 5 -30 15 0 8 -7 15 -15 15 -8 0 -15 7 -15 15 0 12
-13 15 -60 15 -47 0 -60 3 -60 15 0 10 -11 15 -35 15 -23 0 -34 4 -33 13 2 6
-3 11 -9 9 -7 -1 -13 2 -13 8 0 5 -7 10 -16 10 -8 0 -12 5 -9 10 4 6 -8 10
-29 10 -20 0 -36 5 -36 10 0 17 -39 50 -59 50 -10 0 -21 7 -25 15 -3 9 -18 15
-36 15 -20 0 -30 5 -30 15 0 10 -10 15 -30 15 -20 0 -30 5 -30 15 0 10 -10 15
-30 15 -20 0 -30 5 -30 15 0 11 -12 15 -45 15 -33 0 -45 4 -45 15 0 8 -7 15
-15 15 -10 0 -15 10 -15 30 0 29 -2 30 -45 30 -33 0 -45 4 -45 15 0 10 -10 15
-30 15 -20 0 -30 5 -30 15 0 10 -10 15 -31 15 -24 0 -30 4 -25 15 4 12 -3 15
-29 15 -24 0 -35 5 -35 15 0 10 -10 15 -30 15 -20 0 -30 5 -30 15 0 13 -12 17
-37 14 -3 0 -10 6 -15 15 -5 9 -16 16 -25 16 -9 0 -13 6 -9 15 4 12 -3 15 -29
15 -24 0 -35 5 -35 15 0 9 -9 15 -24 15 -28 0 -43 16 -24 23 7 3 -8 6 -35 6
-32 1 -46 5 -45 14 2 8 -12 13 -39 15 -29 2 -43 8 -43 18 0 10 -14 14 -55 14
-40 0 -57 4 -61 15 -5 11 -24 15 -80 15 -59 0 -74 3 -74 15 0 10 -10 15 -29
15 -23 0 -30 6 -36 28 -4 15 -10 21 -12 15 -7 -20 -103 -17 -103 2 0 12 -13
15 -60 15 -47 0 -60 3 -60 15 0 12 -17 15 -90 15 -73 0 -90 3 -90 15 0 12 -16
15 -80 15 -64 0 -80 3 -80 15 0 11 -12 15 -45 15 -33 0 -45 4 -45 15 0 12 -15
15 -75 15 -60 0 -75 3 -75 15 0 13 -30 15 -210 15 -180 0 -210 2 -210 15 0 13
-20 15 -120 15 -100 0 -120 3 -120 15 0 13 -37 15 -270 15 -233 0 -270 -2
-270 -15 0 -10 -10 -15 -30 -15 -20 0 -30 -5 -30 -15 0 -10 -10 -15 -30 -15
-20 0 -30 -5 -30 -15 0 -10 -10 -15 -30 -15 -20 0 -30 -5 -30 -15 0 -10 -10
-15 -30 -15 -20 0 -30 -5 -30 -15 0 -8 -7 -15 -15 -15 -10 0 -15 -10 -15 -30
0 -27 -3 -30 -30 -30 -29 0 -30 -2 -30 -45 0 -33 -4 -45 -15 -45 -10 0 -15
-10 -15 -30 0 -20 -5 -30 -15 -30 -12 0 -15 -13 -15 -60 0 -47 3 -60 15 -60 8
0 15 -7 15 -15 0 -8 7 -15 15 -15 8 0 15 -7 15 -15 0 -8 7 -15 15 -15 8 0 15
-7 15 -15 0 -10 10 -15 30 -15 20 0 30 -5 30 -15 0 -10 10 -15 30 -15 20 0 30
-5 30 -15 0 -10 10 -15 30 -15 20 0 30 -5 30 -15 0 -13 25 -15 165 -15 140 0
165 -2 165 -15 0 -10 10 -15 30 -15 20 0 30 -5 30 -15 0 -8 7 -15 15 -15 8 0
15 7 15 15 0 11 12 15 45 15 33 0 45 4 45 15 0 8 7 15 15 15 8 0 15 -7 15 -15
0 -8 -7 -15 -15 -15 -8 0 -15 -7 -15 -15 0 -10 10 -15 30 -15 20 0 30 -5 30
-15 0 -12 15 -15 75 -15 l75 0 0 -30 c0 -23 4 -30 20 -30 13 0 18 5 14 15 -5
12 3 15 40 15 34 0 46 -4 46 -15 0 -8 7 -15 15 -15 10 0 15 -10 15 -30 0 -29
2 -30 45 -30 33 0 45 -4 45 -15 0 -10 10 -15 30 -15 20 0 30 -5 30 -15 0 -8 7
-15 15 -15 8 0 15 -7 15 -15 0 -8 7 -15 15 -15 8 0 15 -7 15 -15 0 -10 10 -15
30 -15 27 0 30 -3 30 -30 0 -27 3 -30 30 -30 20 0 30 -5 30 -15 0 -10 10 -15
30 -15 20 0 30 -5 30 -15 0 -8 7 -15 15 -15 8 0 15 -7 15 -15 0 -8 7 -15 15
-15 10 0 15 -10 15 -30 0 -20 5 -30 15 -30 8 0 15 -7 15 -15 0 -8 7 -15 15
-15 8 0 15 -7 15 -15 0 -8 7 -15 15 -15 8 0 15 -7 15 -15 0 -8 7 -15 15 -15 8
0 15 -7 15 -15 0 -8 7 -15 15 -15 8 0 15 -7 15 -15 0 -8 7 -15 15 -15 8 0 15
-7 15 -15 0 -8 7 -15 15 -15 8 0 15 -7 15 -15 0 -8 7 -15 15 -15 8 0 15 -7 15
-15 0 -8 9 -15 20 -15 13 0 18 5 14 15 -5 13 22 15 210 15 185 0 216 2 216 15
0 10 10 15 30 15 20 0 30 5 30 15 0 13 23 15 150 15 127 0 150 -2 150 -15 0
-10 11 -15 35 -15 24 0 35 -5 35 -15 0 -11 11 -15 40 -15 29 0 40 -4 40 -15 0
-8 7 -15 15 -15 8 0 15 -7 15 -15 0 -10 10 -15 30 -15 20 0 30 -5 30 -15 0
-10 10 -15 30 -15 20 0 30 -5 30 -15 0 -11 12 -15 45 -15 33 0 45 -4 45 -15 0
-10 10 -15 30 -15 20 0 30 -5 30 -15 0 -10 10 -15 30 -15 20 0 30 -5 30 -15 0
-10 10 -15 30 -15 20 0 30 -5 30 -15 0 -10 10 -15 30 -15 20 0 30 -5 30 -15 0
-10 10 -15 30 -15 20 0 30 -5 30 -15 0 -10 10 -15 30 -15 20 0 30 -5 30 -15 0
-11 12 -15 45 -15 33 0 45 -4 45 -15 0 -10 10 -15 30 -15 20 0 30 -5 30 -15 0
-10 10 -15 30 -15 20 0 30 -5 30 -15 0 -11 12 -15 45 -15 43 0 45 -1 45 -30 0
-20 5 -30 15 -30 8 0 15 7 15 15 0 8 7 15 15 15 8 0 15 -7 15 -15 0 -8 6 -15
14 -15 9 0 16 -12 18 -27 2 -22 9 -29 31 -31 15 -2 27 -9 27 -18 0 -8 7 -14
15 -14 8 0 15 -7 15 -15 0 -8 7 -15 15 -15 8 0 15 -7 15 -15 0 -10 10 -15 30
-15 20 0 30 -5 30 -15 0 -8 6 -15 14 -15 9 0 16 -12 18 -27 3 -25 7 -28 46
-31 28 -2 42 -8 42 -18 0 -8 7 -14 15 -14 8 0 15 -7 15 -15 0 -11 12 -15 45
-15 33 0 45 -4 45 -15 0 -8 7 -15 15 -15 8 0 15 -9 15 -20 0 -11 7 -20 15 -20
10 0 15 -10 15 -30 0 -20 5 -30 15 -30 8 0 15 -7 15 -15 0 -10 10 -15 30 -15
20 0 30 -5 30 -15 0 -8 7 -15 15 -15 8 0 15 -7 15 -15 0 -11 12 -15 45 -15 33
0 45 -4 45 -15 0 -8 7 -15 15 -15 8 0 15 -7 15 -15 0 -12 13 -15 60 -15 47 0
60 -3 60 -15 0 -10 10 -15 30 -15 20 0 30 -5 30 -15 0 -8 7 -15 15 -15 8 0 15
-7 15 -15 0 -10 10 -15 30 -15 20 0 30 -5 30 -15 0 -10 10 -15 30 -15 20 0 30
-5 30 -15 0 -8 7 -15 15 -15 8 0 15 -7 15 -15 0 -12 15 -15 75 -15 60 0 75 -3
75 -15 0 -10 10 -15 30 -15 20 0 30 -5 30 -15 0 -12 15 -15 75 -15 60 0 75 -3
75 -15 0 -11 12 -15 45 -15 33 0 45 -4 45 -15 0 -12 13 -15 60 -15 47 0 60 -3
60 -15 0 -10 10 -15 30 -15 20 0 30 -5 30 -15 0 -10 10 -15 30 -15 20 0 30 -5
30 -15 0 -10 10 -15 30 -15 20 0 30 -5 30 -15 0 -11 12 -15 45 -15 33 0 45 4
45 15 0 8 7 15 15 15 8 0 15 -7 15 -15 0 -10 10 -15 30 -15 20 0 30 -5 30 -15
0 -8 7 -15 15 -15 8 0 15 7 15 15 0 8 7 15 15 15 8 0 15 -7 15 -15 0 -8 7 -15
15 -15 8 0 15 -7 15 -15 0 -12 17 -15 90 -15 l90 0 0 -30 c0 -20 5 -30 15 -30
8 0 15 7 15 15 0 10 10 15 30 15 20 0 30 -5 30 -15 0 -11 12 -15 45 -15 33 0
45 -4 45 -15 0 -11 12 -15 45 -15 33 0 45 4 45 15 0 10 11 15 35 15 24 0 35
-5 35 -15 0 -8 7 -15 15 -15 8 0 15 -7 15 -15 0 -8 7 -15 15 -15 8 0 15 -7 15
-15 0 -12 15 -15 74 -15 53 0 79 -4 90 -15 8 -8 28 -15 45 -15 21 0 31 -5 31
-15 0 -12 14 -15 65 -15 53 0 63 -3 59 -15 -5 -11 1 -15 25 -15 21 0 31 -5 31
-15 0 -10 11 -15 35 -15 21 0 35 -5 35 -12 0 -9 4 -8 10 2 8 13 10 12 10 -2 0
-13 8 -18 30 -18 20 0 30 -5 30 -15 0 -11 12 -15 45 -15 33 0 45 -4 45 -15 0
-11 12 -15 50 -15 40 0 48 -3 44 -15 -4 -9 0 -15 10 -15 9 0 16 -7 16 -15 0
-11 17 -15 72 -17 68 -3 73 -5 78 -28 5 -21 12 -25 48 -28 28 -2 42 -8 42 -18
0 -8 7 -14 15 -14 8 0 15 -7 15 -15 0 -11 12 -15 45 -15 33 0 45 -4 45 -15 0
-11 12 -15 45 -15 39 0 45 -3 45 -21 0 -11 5 -17 10 -14 6 3 13 -1 16 -9 4
-10 18 -16 35 -16 19 0 29 -5 29 -15 0 -13 19 -20 44 -16 5 1 3 -5 -4 -14 -7
-9 -9 -15 -4 -14 5 1 33 1 62 0 39 -1 52 -5 52 -16 0 -8 7 -15 15 -15 8 0 15
-7 15 -15 0 -12 13 -15 60 -15 47 0 60 -3 60 -15 0 -12 13 -15 61 -15 50 0 60
-3 55 -15 -4 -12 4 -15 44 -15 38 0 50 -4 50 -15 0 -11 12 -15 45 -15 34 0 45
-4 45 -15 0 -9 6 -15 13 -14 6 1 34 1 61 0 38 -1 47 -4 42 -16 -4 -13 8 -15
74 -15 64 0 80 -3 80 -15 0 -10 10 -15 30 -15 20 0 30 -5 30 -15 0 -10 10 -15
30 -15 20 0 30 5 30 15 0 8 7 15 15 15 8 0 15 -7 15 -15 0 -11 12 -15 45 -15
33 0 45 -4 45 -15 0 -10 10 -15 30 -15 20 0 30 -5 30 -15 0 -12 18 -15 105
-15 87 0 105 -3 105 -15 0 -12 15 -15 75 -15 60 0 75 -3 75 -15 0 -12 20 -15
120 -15 100 0 120 -2 120 -15 0 -11 12 -15 45 -15 33 0 45 -4 45 -15 0 -8 7
-15 15 -15 8 0 15 7 15 15 0 8 7 15 15 15 8 0 15 -7 15 -15 0 -12 13 -15 60
-15 47 0 60 3 60 15 0 8 7 15 15 15 8 0 15 -7 15 -15 0 -8 7 -15 15 -15 8 0
15 7 15 15 0 8 7 15 15 15 8 0 15 -7 15 -15 0 -13 25 -15 165 -15 140 0 165
-2 165 -15 0 -10 10 -15 30 -15 20 0 30 5 30 15 0 8 7 15 15 15 8 0 15 -7 15
-15 0 -12 20 -15 120 -15 100 0 120 3 120 15 0 13 36 15 260 15 224 0 260 -2
260 -15 0 -8 7 -15 15 -15 8 0 15 7 15 15 0 8 7 15 15 15 8 0 15 -7 15 -15 0
-11 12 -15 45 -15 33 0 45 -4 45 -15 0 -12 20 -15 120 -15 100 0 120 3 120 15
0 8 7 15 15 15 8 0 15 -7 15 -15 0 -10 10 -15 30 -15 20 0 30 5 30 15 0 13 25
15 165 15 140 0 165 2 165 15 0 8 7 15 15 15 8 0 15 -7 15 -15 0 -8 7 -15 15
-15 8 0 15 7 15 15 0 8 7 15 15 15 8 0 15 -7 15 -15 0 -12 13 -15 60 -15 47 0
60 3 60 15 0 8 7 15 15 15 8 0 15 -7 15 -15 0 -8 7 -15 15 -15 8 0 15 7 15 15
0 11 12 15 45 15 33 0 45 4 45 15 0 13 20 15 120 15 100 0 120 3 120 15 0 12
15 15 75 15 60 0 75 3 75 15 0 12 18 15 105 15 87 0 105 3 105 15 0 10 10 15
30 15 20 0 30 5 30 15 0 11 12 15 45 15 33 0 45 4 45 15 0 8 7 15 15 15 8 0
15 -7 15 -15 0 -10 10 -15 30 -15 20 0 30 5 30 15 0 10 10 15 30 15 20 0 30 5
30 15 0 12 15 15 75 15 60 0 75 3 75 15 0 11 12 15 45 15 33 0 45 4 45 15 0
12 13 15 60 15 47 0 60 3 60 15 0 11 12 15 45 15 33 0 45 4 45 15 0 12 13 15
60 15 47 0 60 3 60 15 0 11 12 15 45 15 33 0 45 4 45 15 0 10 10 15 30 15 20
0 30 5 30 15 0 11 12 15 45 15 33 0 45 4 45 15 0 8 7 15 15 15 8 0 15 7 15 15
0 11 12 15 45 15 33 0 45 4 45 15 0 8 7 15 15 15 8 0 15 7 15 15 0 11 12 15
45 15 33 0 45 4 45 15 0 10 10 15 30 15 20 0 30 5 30 15 0 8 7 15 15 15 8 0
15 7 15 15 0 11 12 15 45 15 33 0 45 4 45 15 0 8 7 15 15 15 8 0 15 7 15 15 0
12 13 15 60 15 47 0 60 3 60 15 0 8 7 15 15 15 8 0 15 7 15 15 0 11 12 15 45
15 33 0 45 4 45 15 0 11 12 15 45 15 33 0 45 4 45 15 0 11 12 15 45 15 33 0
45 4 45 15 0 10 10 15 30 15 20 0 30 5 30 15 0 10 10 15 30 15 20 0 30 5 30
15 0 12 13 15 60 15 47 0 60 3 60 15 0 11 12 15 45 15 33 0 45 4 45 15 0 12
15 15 75 15 60 0 75 3 75 15 0 8 7 15 15 15 8 0 15 7 15 15 0 8 7 15 15 15 8
0 15 7 15 15 0 10 11 15 35 15 24 0 35 -5 35 -15 0 -11 12 -15 45 -15 33 0 45
4 45 15 0 11 12 15 45 15 33 0 45 4 45 15 0 10 10 15 30 15 20 0 30 -5 30 -15
0 -8 7 -15 15 -15 10 0 15 10 15 30 l0 30 90 0 c73 0 90 3 90 15 0 8 7 15 15
15 8 0 15 7 15 15 0 8 7 15 15 15 8 0 15 -7 15 -15 0 -8 7 -15 15 -15 8 0 15
7 15 15 0 10 10 15 30 15 20 0 30 5 30 15 0 8 7 15 15 15 8 0 15 -7 15 -15 0
-11 12 -15 45 -15 33 0 45 4 45 15 0 10 10 15 30 15 20 0 30 5 30 15 0 10 10
15 30 15 20 0 30 5 30 15 0 10 10 15 30 15 20 0 30 5 30 15 0 8 7 15 15 15 8
0 15 7 15 15 0 8 7 15 15 15 8 0 15 -7 15 -15 0 -11 12 -15 45 -15 33 0 45 4
45 15 0 11 12 15 45 15 33 0 45 4 45 15 0 12 15 15 75 15 60 0 75 3 75 15 0
10 10 15 30 15 20 0 30 5 30 15 0 11 12 15 45 15 33 0 45 -4 45 -15 0 -8 7
-15 15 -15 8 0 15 7 15 15 0 8 7 15 15 15 8 0 15 7 15 15 0 8 7 15 15 15 8 0
15 7 15 15 0 10 10 15 30 15 20 0 30 5 30 15 0 10 10 15 30 15 20 0 30 5 30
15 0 8 7 15 15 15 8 0 15 7 15 15 0 10 10 15 30 15 20 0 30 5 30 15 0 12 13
15 60 15 47 0 60 3 60 15 0 8 7 15 15 15 8 0 15 7 15 15 0 11 12 15 45 15 33
0 45 4 45 15 0 8 7 15 15 15 8 0 15 7 15 15 0 10 10 15 30 15 20 0 30 5 30 15
0 8 7 15 15 15 10 0 15 10 15 30 0 20 5 30 15 30 8 0 15 7 15 15 0 8 7 15 15
15 8 0 15 9 15 20 0 17 7 20 45 20 33 0 45 4 45 15 0 10 10 15 30 15 20 0 30
5 30 15 0 10 10 15 30 15 27 0 30 3 30 30 0 20 5 30 15 30 8 0 15 7 15 15 0
10 10 15 30 15 20 0 30 5 30 15 0 8 7 15 15 15 8 0 15 7 15 15 0 8 7 15 15 15
8 0 15 7 15 15 0 10 10 15 30 15 27 0 30 3 30 30 0 29 2 30 45 30 43 0 45 1
45 30 0 20 5 30 15 30 8 0 15 7 15 15 0 11 12 15 45 15 33 0 45 4 45 15 0 10
10 15 30 15 20 0 30 5 30 15 0 10 10 15 30 15 20 0 30 5 30 15 0 11 12 15 45
15 33 0 45 4 45 15 0 8 7 15 15 15 8 0 15 7 15 15 0 11 12 15 45 15 43 0 45 1
45 30 0 27 3 30 30 30 20 0 30 5 30 15 0 10 10 15 30 15 20 0 30 5 30 15 0 10
10 15 30 15 20 0 30 5 30 15 0 8 7 15 15 15 8 0 15 7 15 15 0 10 10 15 30 15
20 0 30 5 30 15 0 12 15 15 75 15 60 0 75 3 75 15 0 12 13 15 60 15 47 0 60 3
60 15 0 10 10 15 30 15 20 0 30 5 30 15 0 12 18 15 105 15 87 0 105 -3 105
-15 0 -8 7 -15 15 -15 8 0 15 -7 15 -15 0 -12 13 -15 60 -15 47 0 60 -3 60
-15 0 -8 7 -15 15 -15 8 0 15 7 15 15 0 8 7 15 15 15 8 0 15 -7 15 -15 0 -8 7
-15 15 -15 8 0 15 7 15 15 0 8 7 15 15 15 8 0 15 -7 15 -15 0 -12 13 -15 60
-15 47 0 60 3 60 15 0 8 7 15 15 15 8 0 15 -7 15 -15 0 -12 17 -15 95 -15 78
0 95 3 95 15 0 8 7 15 15 15 8 0 15 7 15 15 0 8 7 15 15 15 8 0 15 7 15 15 0
8 7 15 15 15 8 0 15 7 15 15 0 8 7 15 15 15 8 0 15 7 15 15 0 8 7 15 15 15 8
0 15 7 15 15 0 8 7 15 15 15 8 0 15 7 15 15 0 8 7 15 15 15 10 0 15 10 15 30
0 20 5 30 15 30 8 0 15 7 15 15 0 8 7 15 15 15 8 0 15 7 15 15 0 10 10 15 30
15 20 0 30 5 30 15 0 10 10 15 30 15 27 0 30 3 30 30 0 27 3 30 30 30 20 0 30
5 30 15 0 8 7 15 15 15 8 0 15 7 15 15 0 8 7 15 15 15 8 0 15 7 15 15 0 10 10
15 30 15 20 0 30 5 30 15 0 11 12 15 45 15 43 0 45 1 45 30 0 20 5 30 15 30 8
0 15 7 15 15 0 12 13 15 60 15 47 0 60 3 60 15 0 12 15 15 75 15 60 0 75 3 75
15 0 10 10 15 30 15 20 0 30 5 30 15 0 8 -7 15 -15 15 -8 0 -15 7 -15 15 0 8
7 15 15 15 8 0 15 -7 15 -15 0 -13 25 -15 165 -15 140 0 165 2 165 15 0 12 15
15 75 15 60 0 75 3 75 15 0 8 7 15 15 15 8 0 15 7 15 15 0 12 13 15 60 15 47
0 60 3 60 15 0 10 10 15 30 15 20 0 30 5 30 15 0 8 7 15 15 15 8 0 15 7 15 15
0 8 7 15 15 15 8 0 15 7 15 15 0 8 7 15 15 15 12 0 15 13 15 60 0 47 -3 60
-15 60 -10 0 -15 10 -15 30 0 20 -5 30 -15 30 -11 0 -15 12 -15 45 0 33 -4 45
-15 45 -8 0 -15 -7 -15 -15 0 -8 -7 -15 -15 -15 -8 0 -15 7 -15 15 0 8 -7 15
-15 15 -8 0 -15 7 -15 15 0 10 -10 15 -30 15 -20 0 -30 5 -30 15 0 8 -7 15
-15 15 -8 0 -15 7 -15 15 0 8 -7 15 -15 15 -8 0 -15 7 -15 15 0 8 -7 15 -15
15 -8 0 -15 7 -15 15 0 8 -7 15 -15 15 -8 0 -15 -7 -15 -15 0 -12 -18 -15
-105 -15 -87 0 -105 3 -105 15 0 13 -25 15 -165 15 -140 0 -165 2 -165 15 0 8
-7 15 -15 15 -8 0 -15 -7 -15 -15 0 -8 -7 -15 -15 -15 -8 0 -15 7 -15 15 0 13
-20 15 -120 15 -100 0 -120 -2 -120 -15 0 -13 -30 -15 -210 -15 -180 0 -210
-2 -210 -15 0 -12 -15 -15 -75 -15 -60 0 -75 -3 -75 -15 0 -11 -12 -15 -45
-15 -33 0 -45 -4 -45 -15 0 -12 -16 -15 -80 -15 -64 0 -80 -3 -80 -15 0 -10
-10 -15 -30 -15 -20 0 -30 5 -30 15 0 8 -7 15 -15 15 -8 0 -15 -7 -15 -15 0
-11 -12 -15 -45 -15 -33 0 -45 -4 -45 -15 0 -12 -13 -15 -60 -15 -47 0 -60 -3
-60 -15 0 -10 -10 -15 -30 -15 -20 0 -30 5 -30 15 0 8 -7 15 -15 15 -8 0 -15
-7 -15 -15 0 -8 -7 -15 -15 -15 -8 0 -15 -7 -15 -15 0 -10 -10 -15 -30 -15
-20 0 -30 -5 -30 -15 0 -12 -15 -15 -75 -15 -60 0 -75 -3 -75 -15 0 -12 -13
-15 -60 -15 -47 0 -60 -3 -60 -15 0 -10 -10 -15 -30 -15 -20 0 -30 -5 -30 -15
0 -11 -12 -15 -45 -15 -33 0 -45 -4 -45 -15 0 -10 -10 -15 -30 -15 -20 0 -30
-5 -30 -15 0 -10 -10 -15 -30 -15 -20 0 -30 -5 -30 -15 0 -8 -7 -15 -15 -15
-8 0 -15 -7 -15 -15 0 -10 -10 -15 -30 -15 -20 0 -30 -5 -30 -15 0 -10 -10
-15 -30 -15 -20 0 -30 -5 -30 -15 0 -10 -10 -15 -30 -15 -20 0 -30 -5 -30 -15
0 -10 -10 -15 -30 -15 -20 0 -30 -5 -30 -15 0 -10 -10 -15 -30 -15 -20 0 -30
-5 -30 -15 0 -10 -10 -15 -30 -15 -20 0 -30 -5 -30 -15 0 -8 -7 -15 -15 -15
-10 0 -15 -10 -15 -30 l0 -30 -60 0 c-47 0 -60 -3 -60 -15 0 -8 -7 -15 -15
-15 -8 0 -15 -7 -15 -15 0 -10 -10 -15 -30 -15 -20 0 -30 -5 -30 -15 0 -11
-12 -15 -45 -15 -33 0 -45 -4 -45 -15 0 -10 -10 -15 -30 -15 -20 0 -30 -5 -30
-15 0 -8 -7 -15 -15 -15 -8 0 -15 -7 -15 -15 0 -10 -10 -15 -30 -15 -20 0 -30
-5 -30 -15 0 -8 -7 -15 -15 -15 -8 0 -15 -7 -15 -15 0 -11 -12 -15 -45 -15
-33 0 -45 -4 -45 -15 0 -11 -12 -15 -45 -15 -33 0 -45 -4 -45 -15 0 -8 -7 -15
-15 -15 -8 0 -15 -7 -15 -15 0 -10 -10 -15 -30 -15 -20 0 -30 -5 -30 -15 0
-10 -10 -15 -30 -15 -20 0 -30 5 -30 15 0 8 -7 15 -15 15 -10 0 -15 -10 -15
-30 0 -27 -3 -30 -30 -30 -20 0 -30 -5 -30 -15 0 -11 -12 -15 -45 -15 -33 0
-45 -4 -45 -15 0 -10 -10 -15 -30 -15 -20 0 -30 5 -30 15 0 8 -7 15 -15 15
-10 0 -15 -10 -15 -30 0 -20 -5 -30 -15 -30 -8 0 -15 -7 -15 -15 0 -11 -12
-15 -45 -15 -33 0 -45 -4 -45 -15 0 -11 -12 -15 -45 -15 -33 0 -45 -4 -45 -15
0 -10 -10 -15 -30 -15 -20 0 -30 -5 -30 -15 0 -10 -10 -15 -30 -15 -20 0 -30
-5 -30 -15 0 -10 -10 -15 -30 -15 -20 0 -30 -5 -30 -15 0 -12 -13 -15 -60 -15
-47 0 -60 -3 -60 -15 0 -10 -10 -15 -30 -15 -20 0 -30 -5 -30 -15 0 -10 -10
-15 -30 -15 -20 0 -30 -5 -30 -15 0 -12 -13 -15 -60 -15 -47 0 -60 -3 -60 -15
0 -11 -12 -15 -45 -15 -33 0 -45 -4 -45 -15 0 -12 -13 -15 -60 -15 -47 0 -60
-3 -60 -15 0 -8 -7 -15 -15 -15 -8 0 -15 -7 -15 -15 0 -10 -10 -15 -30 -15
-20 0 -30 -5 -30 -15 0 -12 -15 -15 -75 -15 -60 0 -75 -3 -75 -15 0 -12 -18
-15 -105 -15 -87 0 -105 3 -105 15 0 8 -7 15 -15 15 -10 0 -15 -10 -15 -30 l0
-30 -150 0 c-127 0 -150 -2 -150 -15 0 -12 -14 -15 -65 -15 -51 0 -65 -3 -65
-15 0 -13 -32 -15 -225 -15 -193 0 -225 -2 -225 -15 0 -12 -15 -15 -75 -15
-60 0 -75 -3 -75 -15 0 -11 -12 -15 -45 -15 -33 0 -45 -4 -45 -15 0 -12 -13
-15 -60 -15 -47 0 -60 -3 -60 -15 0 -12 -18 -15 -105 -15 -87 0 -105 -3 -105
-15 0 -8 -7 -15 -15 -15 -8 0 -15 7 -15 15 0 8 -7 15 -15 15 -8 0 -15 -7 -15
-15 0 -8 -7 -15 -15 -15 -8 0 -15 -7 -15 -15 0 -11 -12 -15 -45 -15 -33 0 -45
-4 -45 -15 0 -12 -17 -15 -90 -15 -73 0 -90 -3 -90 -15 0 -11 -12 -15 -45 -15
-33 0 -45 -4 -45 -15 0 -12 -15 -15 -75 -15 -60 0 -75 -3 -75 -15 0 -8 -7 -15
-15 -15 -8 0 -15 -7 -15 -15 0 -11 -12 -15 -45 -15 -33 0 -45 4 -45 15 0 8 -7
15 -15 15 -10 0 -15 -10 -15 -30 0 -29 -2 -30 -45 -30 -33 0 -45 4 -45 15 0 8
-7 15 -15 15 -8 0 -15 -7 -15 -15 0 -8 -7 -15 -15 -15 -8 0 -15 -7 -15 -15 0
-11 -12 -15 -51 -15 -34 0 -48 -4 -43 -11 14 -23 -25 -29 -188 -29 -143 0
-168 -2 -168 -15 0 -11 -12 -15 -45 -15 -33 0 -45 4 -45 15 0 8 -7 15 -15 15
-8 0 -15 -7 -15 -15 0 -11 -12 -15 -45 -15 -33 0 -45 -4 -45 -15 0 -12 -15
-15 -75 -15 -60 0 -75 3 -75 15 0 8 -7 15 -15 15 -8 0 -15 -7 -15 -15 0 -11
-12 -15 -45 -15 -33 0 -45 -4 -45 -15 0 -8 -7 -15 -15 -15 -8 0 -15 7 -15 15
0 10 -10 15 -30 15 -20 0 -30 5 -30 15 0 10 -10 15 -30 15 -28 0 -30 3 -30 35
0 32 -2 35 -30 35 l-30 0 0 195 c0 167 -2 195 -15 195 -12 0 -15 17 -15 90 0
73 3 90 15 90 8 0 15 7 15 15 0 10 -10 15 -30 15 l-30 0 0 255 c0 220 2 255
15 255 12 0 15 15 15 75 0 60 -3 75 -15 75 -11 0 -15 12 -15 45 0 33 4 45 15
45 8 0 15 7 15 15 0 8 -7 15 -15 15 -8 0 -15 7 -15 15 0 8 7 15 15 15 10 0 15
10 15 30 0 20 5 30 15 30 8 0 15 7 15 15 0 8 -7 15 -15 15 -10 0 -15 11 -15
35 0 21 -5 34 -11 32 -12 -2 -21 31 -12 46 3 5 9 3 14 -4 6 -9 9 1 9 29 0 31
-4 42 -15 42 -9 0 -15 9 -15 21 0 15 5 19 15 15 12 -4 15 5 15 54 0 47 3 60
15 60 10 0 15 10 15 29 0 16 -6 31 -15 35 -18 7 -20 27 -2 23 7 -1 13 11 15
31 2 24 -1 32 -12 32 -9 0 -16 7 -16 15 0 8 7 15 15 15 11 0 15 12 15 45 0 33
-4 45 -15 45 -11 0 -15 12 -15 45 0 33 4 45 15 45 11 0 15 12 15 45 0 33 4 45
15 45 10 0 15 10 15 30 0 20 5 30 15 30 8 0 15 7 15 15 0 8 7 15 15 15 10 0
15 10 15 30 0 20 5 30 15 30 8 0 15 7 15 15 0 8 7 15 15 15 8 0 15 7 15 15 0
8 7 15 15 15 8 0 15 7 15 15 0 8 7 15 15 15 8 0 15 7 15 15 0 11 12 15 45 15
33 0 45 4 45 15 0 10 10 15 30 15 20 0 30 5 30 15 0 8 7 15 15 15 8 0 15 7 15
15 0 13 25 21 53 16 4 0 7 4 7 10 0 6 -7 8 -16 5 -8 -3 -12 -2 -9 4 3 6 17 10
31 10 14 0 24 6 24 14 0 9 12 16 28 18 15 2 26 8 25 16 -2 8 9 12 32 12 24 0
35 5 35 15 0 10 10 15 30 15 20 0 30 5 30 15 0 10 10 15 30 15 20 0 30 5 30
15 0 11 12 15 49 15 28 0 53 5 57 12 4 7 3 8 -4 4 -7 -4 -12 -2 -12 3 0 6 20
11 44 11 56 0 83 9 64 21 -8 5 11 9 48 9 46 0 63 4 68 15 3 8 15 15 26 15 11
0 20 7 20 15 0 12 16 15 78 16 42 0 71 3 64 6 -27 11 2 23 54 23 38 0 53 4 51
13 -1 8 16 13 56 15 42 2 57 7 57 17 0 12 15 15 66 15 41 0 63 4 59 10 -3 6
-2 10 4 10 5 0 12 -6 14 -12 3 -8 6 -6 6 5 1 15 12 17 76 17 61 0 75 3 75 15
0 13 11 15 63 13 43 -2 61 -7 60 -15 -2 -7 4 -13 12 -13 8 0 15 7 15 15 0 23
108 21 126 -2 13 -17 14 -17 8 0 -5 13 -1 17 20 17 16 0 26 6 26 15 0 11 12
15 45 15 33 0 45 -4 45 -15 0 -10 10 -15 30 -15 20 0 30 5 30 15 0 11 12 15
45 15 33 0 45 4 45 15 0 11 12 15 45 15 33 0 45 4 45 15 0 8 7 15 15 15 8 0
15 -7 15 -15 0 -8 -7 -15 -15 -15 -8 0 -15 -7 -15 -15 0 -12 13 -15 60 -15 47
0 60 3 60 15 0 10 10 15 30 15 20 0 30 5 30 15 0 11 12 15 45 15 33 0 45 -4
45 -15 0 -12 18 -15 105 -15 87 0 105 3 105 15 0 13 36 15 260 15 224 0 260
-2 260 -15 0 -12 18 -15 105 -15 87 0 105 3 105 15 0 13 25 15 165 15 140 0
165 2 165 15 0 12 17 15 90 15 73 0 90 3 90 15 0 12 13 15 60 15 47 0 60 3 60
15 0 11 12 15 45 15 43 0 45 1 45 30 0 20 5 30 15 30 8 0 15 -7 15 -15 0 -8 7
-15 15 -15 8 0 15 7 15 15 0 8 7 15 15 15 8 0 15 7 15 15 0 8 7 15 15 15 8 0
15 -7 15 -15 0 -12 20 -15 120 -15 100 0 120 -2 120 -15 0 -10 10 -15 30 -15
20 0 30 5 30 15 0 11 12 15 45 15 33 0 45 4 45 15 0 12 17 15 90 15 73 0 90 3
90 15 0 12 18 15 105 15 87 0 105 3 105 15 0 10 10 15 30 15 20 0 30 5 30 15
0 13 22 15 135 15 113 0 135 -2 135 -15 0 -10 10 -15 30 -15 20 0 30 -5 30
-15 0 -10 10 -15 30 -15 20 0 30 -5 30 -15 0 -8 7 -15 15 -15 8 0 15 7 15 15
0 10 10 15 30 15 20 0 30 -5 30 -15 0 -8 7 -15 15 -15 8 0 15 7 15 15 0 8 7
15 15 15 8 0 15 -7 15 -15 0 -11 12 -15 45 -15 33 0 45 4 45 15 0 12 13 15 60
15 47 0 60 3 60 15 0 10 10 15 30 15 20 0 30 5 30 15 0 10 10 15 30 15 20 0
30 5 30 15 0 13 23 15 150 15 127 0 150 -2 150 -15 0 -10 10 -15 30 -15 20 0
30 -5 30 -15 0 -10 10 -15 30 -15 20 0 30 -5 30 -15 0 -8 7 -15 15 -15 8 0 15
7 15 15 0 10 10 15 30 15 20 0 30 -5 30 -15 0 -8 7 -15 15 -15 8 0 15 7 15 15
0 8 7 15 15 15 8 0 15 -7 15 -15 0 -12 15 -15 75 -15 60 0 75 -3 75 -15 0 -8
7 -15 15 -15 8 0 15 -7 15 -15 0 -11 12 -15 45 -15 33 0 45 -4 45 -15 0 -11
12 -15 45 -15 43 0 45 1 45 30 0 20 5 30 15 30 8 0 15 7 15 15 0 8 -7 15 -15
15 -12 0 -15 13 -15 60 l0 60 -45 0 c-33 0 -45 4 -45 15 0 10 -10 15 -30 15
-20 0 -30 5 -30 15 0 11 -12 15 -45 15 -43 0 -45 1 -45 30 0 29 -2 30 -45 30
-33 0 -45 4 -45 15 0 10 -10 15 -30 15 -20 0 -30 5 -30 15 0 12 -17 15 -90 15
-73 0 -90 3 -90 15 0 10 -10 15 -30 15 -20 0 -30 5 -30 15 0 10 -10 15 -30 15
-20 0 -30 5 -30 15 0 13 -20 15 -120 15 -100 0 -120 3 -120 15 0 12 -13 15
-60 15 l-60 0 0 30 c0 20 -5 30 -15 30 -8 0 -15 -7 -15 -15 0 -11 -12 -15 -45
-15 -33 0 -45 4 -45 15 0 12 -13 15 -60 15 l-60 0 0 30 0 30 -60 0 c-47 0 -60
3 -60 15 0 8 -7 15 -15 15 -8 0 -15 -7 -15 -15 0 -11 -12 -15 -45 -15 -33 0
-45 4 -45 15 0 11 -12 15 -45 15 -33 0 -45 -4 -45 -15 0 -8 -7 -15 -15 -15 -8
0 -15 7 -15 15 0 12 -17 15 -90 15 -73 0 -90 3 -90 15 0 11 -12 15 -45 15 -33
0 -45 4 -45 15 0 10 -10 15 -30 15 -20 0 -30 -5 -30 -15 0 -8 -7 -15 -15 -15
-8 0 -15 7 -15 15 0 12 -13 15 -60 15 -47 0 -60 3 -60 15 0 13 -22 15 -135 15
l-135 0 0 30 c0 20 -5 30 -15 30 -8 0 -15 -7 -15 -15 0 -12 -17 -15 -90 -15
-73 0 -90 3 -90 15 0 8 -7 15 -15 15 -8 0 -15 -7 -15 -15 0 -11 -12 -15 -45
-15 -33 0 -45 4 -45 15 0 8 -7 15 -15 15 -8 0 -15 -7 -15 -15 0 -12 -18 -15
-105 -15 -87 0 -105 3 -105 15 0 8 -7 15 -15 15 -8 0 -15 -7 -15 -15 0 -8 -7
-15 -15 -15 -8 0 -15 7 -15 15 0 13 -38 15 -285 15 -247 0 -285 -2 -285 -15 0
-8 -7 -15 -15 -15 -8 0 -15 7 -15 15 0 11 -12 15 -45 15 -33 0 -45 -4 -45 -15
0 -8 -7 -15 -15 -15 -8 0 -15 7 -15 15 0 12 -17 15 -90 15 -73 0 -90 -3 -90
-15 0 -8 -7 -15 -15 -15 -8 0 -15 7 -15 15 0 13 -37 15 -275 15 -238 0 -275
-2 -275 -15 0 -11 -12 -15 -45 -15 -33 0 -45 4 -45 15 0 8 -7 15 -15 15 -8 0
-15 -7 -15 -15 0 -12 -15 -15 -75 -15 -60 0 -75 -3 -75 -15 0 -10 -10 -15 -30
-15 -20 0 -30 -5 -30 -15 0 -10 -10 -15 -30 -15 -20 0 -30 -5 -30 -15 0 -12
-15 -15 -75 -15 -60 0 -75 -3 -75 -15 0 -13 -22 -15 -135 -15 -113 0 -135 -2
-135 -15 0 -13 -25 -15 -165 -15 -140 0 -165 -2 -165 -15 0 -12 -17 -15 -90
-15 -73 0 -90 3 -90 15 0 13 -22 15 -135 15 -113 0 -135 2 -135 15 0 12 -15
15 -75 15 -60 0 -75 3 -75 15 0 11 -12 15 -45 15 -33 0 -45 4 -45 15 0 12 -13
15 -60 15 -47 0 -60 -3 -60 -15 0 -8 -7 -15 -15 -15 -8 0 -15 7 -15 15 0 10
-10 15 -30 15 -20 0 -30 -5 -30 -15 0 -8 -7 -15 -15 -15 -8 0 -15 7 -15 15 0
12 -13 15 -60 15 -47 0 -60 3 -60 15 0 12 -13 15 -60 15 -47 0 -60 -3 -60 -15
0 -12 -17 -15 -90 -15 -73 0 -90 -3 -90 -15 0 -8 -7 -15 -15 -15 -8 0 -15 7
-15 15 0 8 -7 15 -15 15 -8 0 -15 -7 -15 -15 0 -11 -12 -15 -45 -15 -33 0 -45
-4 -45 -15 0 -10 -10 -15 -30 -15 -20 0 -30 -5 -30 -15 0 -10 -10 -15 -30 -15
-20 0 -30 -5 -30 -15 0 -12 -13 -15 -60 -15 -47 0 -60 -3 -60 -15 0 -11 -12
-15 -45 -15 -32 0 -45 -4 -45 -14 0 -18 -30 -22 -147 -18 -73 3 -93 7 -93 18
0 10 -13 14 -45 14 -33 0 -45 4 -45 15 0 8 -4 15 -10 15 -5 0 -19 9 -30 20
-11 11 -20 25 -20 30 0 6 -9 10 -20 10 -13 0 -18 5 -14 15 4 8 2 15 -4 15 -6
0 -13 -6 -15 -12 -3 -7 -6 -1 -6 15 -1 17 -6 27 -16 27 -8 0 -15 7 -15 15 0 8
-7 15 -15 15 -10 0 -15 10 -15 30 0 20 -5 30 -15 30 -13 0 -15 27 -15 180 0
153 2 180 15 180 10 0 15 10 15 30 0 20 5 30 15 30 8 0 15 7 15 15 0 8 9 15
20 15 13 0 18 5 14 15 -4 9 0 15 10 15 9 0 16 7 16 15 0 8 7 15 15 15 8 0 15
7 15 15 0 8 7 15 15 15 8 0 15 7 15 15 0 8 7 15 15 15 8 0 15 7 15 15 0 8 7
15 15 15 10 0 15 10 15 30 0 20 5 30 15 30 8 0 15 7 15 15 0 8 7 15 15 15 8 0
15 7 15 15 0 8 7 15 15 15 8 0 15 7 15 15 0 8 7 15 15 15 8 0 15 7 15 15 0 8
7 15 15 15 10 0 15 11 15 35 0 32 2 35 30 35 20 0 30 5 30 15 0 8 -7 15 -15
15 -10 0 -15 10 -15 30 0 20 5 30 15 30 8 0 15 7 15 15 0 8 7 15 15 15 11 0
15 12 15 45 0 33 4 45 15 45 8 0 15 7 15 15 0 8 7 15 15 15 12 0 15 13 15 60
0 47 3 60 15 60 10 0 15 10 15 30 0 20 5 30 15 30 12 0 15 13 15 60 0 47 3 60
15 60 10 0 15 10 15 30 0 20 5 30 15 30 11 0 15 12 15 45 0 33 4 45 15 45 10
0 15 10 15 30 0 20 5 30 15 30 10 0 15 10 15 30 0 20 5 30 15 30 11 0 15 12
15 45 0 33 4 45 15 45 10 0 15 10 15 30 0 20 5 30 15 30 8 0 15 7 15 15 0 8
-7 15 -15 15 -8 0 -15 7 -15 15 0 8 7 15 15 15 12 0 15 14 15 70 0 56 3 70 15
70 8 0 15 9 15 20 0 11 -7 20 -15 20 -10 0 -15 10 -15 30 0 20 -5 30 -15 30
-8 0 -15 7 -15 15 0 8 7 15 15 15 10 0 15 10 15 30 0 20 -5 30 -15 30 -11 0
-15 12 -15 45 0 33 -4 45 -15 45 -8 0 -15 7 -15 15 0 8 -7 15 -15 15 -10 0
-15 10 -15 30 0 20 -5 30 -15 30 -10 0 -15 10 -15 30 0 20 -5 30 -15 30 -10 0
-15 10 -15 30 0 20 -5 30 -15 30 -10 0 -15 10 -15 30 0 20 -5 30 -15 30 -8 0
-15 7 -15 15 0 8 -7 15 -15 15 -8 0 -15 7 -15 15 0 8 -7 15 -15 15 -10 0 -15
10 -15 30 0 20 -5 30 -15 30 -8 0 -15 7 -15 15 0 8 -7 15 -15 15 -10 0 -15 10
-15 30 0 20 -5 30 -15 30 -8 0 -15 7 -15 15 0 12 -15 15 -75 15 -60 0 -75 -3
-75 -15 0 -8 -7 -15 -15 -15 -10 0 -15 10 -15 30 0 27 -3 30 -30 30 -20 0 -30
5 -30 15 0 10 -10 15 -30 15 -20 0 -30 5 -30 15 0 8 -7 15 -15 15 -8 0 -15 7
-15 15 0 10 -10 15 -30 15 -20 0 -30 5 -30 15 0 10 -10 15 -30 15 -20 0 -30 5
-30 15 0 13 -20 15 -120 15 -100 0 -120 3 -120 15 0 8 -7 15 -15 15 -8 0 -15
7 -15 15 0 8 -7 15 -15 15 -8 0 -15 -7 -15 -15 0 -13 -21 -15 -125 -15 -104 0
-125 2 -125 15 0 13 -27 15 -180 15 -153 0 -180 -2 -180 -15z"/>
<path d="M16210 29800 c-39 -9 -236 -76 -253 -87 -6 -4 37 -17 96 -30 122 -26
189 -57 303 -141 97 -71 116 -95 187 -232 30 -58 91 -175 136 -260 45 -85 97
-191 115 -235 36 -83 1204 -2627 1210 -2633 2 -2 64 32 137 74 165 95 570 314
707 383 56 28 102 55 102 60 0 20 -40 101 -49 101 -6 0 -29 -10 -51 -21 -74
-39 -244 -45 -360 -13 -79 22 -93 29 -208 97 -77 46 -112 73 -140 111 -93 124
-197 293 -248 402 -30 66 -70 148 -89 184 -18 36 -155 333 -303 660 -372 819
-474 1024 -591 1187 -36 51 -82 117 -103 146 -67 97 -232 227 -287 227 -10 0
-35 7 -54 15 -39 16 -193 19 -257 5z"/>
<path d="M15490 29460 c-25 -4 -90 -22 -143 -39 -54 -17 -102 -31 -107 -31 -5
0 -37 -18 -71 -40 -34 -22 -66 -40 -71 -40 -5 0 -63 -36 -128 -81 -121 -82
-273 -214 -345 -300 -22 -27 -74 -88 -116 -136 -85 -99 -162 -204 -204 -278
-16 -27 -43 -66 -60 -85 -17 -19 -37 -50 -44 -68 -8 -18 -17 -29 -21 -25 -5 4
-27 68 -49 141 -23 72 -44 132 -47 132 -16 0 -72 -37 -117 -78 -29 -26 -94
-74 -145 -106 -50 -32 -92 -63 -92 -68 0 -11 1719 -3738 1730 -3751 4 -5 46
16 93 47 47 30 130 77 184 105 55 27 124 64 154 81 30 18 146 80 259 138 113
58 206 108 208 112 1 4 -7 28 -18 54 -19 45 -22 48 -48 41 -98 -25 -199 -34
-266 -24 -112 17 -266 85 -345 152 -92 77 -289 355 -321 452 -6 19 -238 524
-515 1122 l-503 1086 67 101 c37 56 76 115 87 132 86 142 263 358 422 515 141
139 279 249 312 249 10 0 23 6 29 14 6 7 42 24 79 37 56 19 88 23 192 24 l125
0 67 -38 c75 -43 221 -195 259 -269 12 -24 30 -55 40 -69 17 -24 48 -81 119
-219 83 -159 876 -1919 957 -2120 51 -129 126 -317 166 -417 39 -101 74 -183
77 -183 3 0 44 31 90 70 46 38 126 95 177 126 51 31 93 62 93 69 0 6 -257 567
-571 1246 -314 679 -584 1267 -600 1307 -16 40 -40 95 -54 122 -14 27 -35 75
-46 106 -21 55 -66 132 -177 304 -77 118 -124 176 -182 222 -56 45 -226 128
-261 128 -13 0 -56 9 -94 20 -71 20 -145 24 -225 10z"/>
<path d="M9130 29053 c0 -10 40 -261 89 -558 64 -395 85 -543 77 -551 -6 -6
-256 -149 -556 -318 -300 -170 -549 -312 -554 -316 -12 -12 67 -17 674 -45
305 -14 558 -29 561 -33 4 -4 46 -254 94 -557 48 -302 88 -551 90 -553 4 -4
25 33 329 597 141 261 258 476 259 477 1 1 252 -9 557 -22 305 -13 580 -23
610 -22 l55 3 -430 359 c-236 198 -431 360 -432 361 -2 1 130 248 292 550 162
302 292 551 290 553 -3 4 -1043 -581 -1110 -624 -19 -12 -54 15 -454 351 -238
201 -434 365 -437 365 -2 0 -4 -8 -4 -17z m483 -646 c105 -89 231 -195 279
-236 l88 -73 322 182 c178 101 327 185 332 188 6 3 -6 -23 -25 -59 -20 -35
-98 -181 -174 -323 l-139 -259 26 -21 c160 -128 514 -432 508 -434 -5 -2 -168
4 -362 12 -194 9 -362 16 -374 16 -17 0 -52 -58 -199 -330 -97 -181 -180 -330
-184 -330 -4 0 -31 155 -61 344 l-54 343 -96 6 c-52 4 -218 12 -367 18 l-273
12 228 129 c125 71 273 155 329 186 83 46 103 61 103 80 0 13 -25 175 -55 360
-59 360 -58 352 -50 352 3 0 92 -73 198 -163z"/>
<path d="M13323 28120 c-46 -22 -113 -59 -150 -82 -122 -79 -325 -191 -498
-275 -93 -46 -172 -88 -173 -93 -3 -9 44 -100 52 -100 2 0 21 6 42 13 86 30
372 26 411 -5 7 -6 39 -23 70 -38 59 -28 110 -75 202 -188 148 -181 262 -404
652 -1268 372 -825 412 -915 456 -1034 151 -407 169 -571 86 -810 -15 -41 -32
-82 -39 -90 -6 -8 -26 -46 -43 -85 -18 -38 -46 -84 -63 -102 l-30 -32 29 -50
29 -51 170 133 c157 122 339 254 537 386 42 28 77 57 77 64 0 16 -1722 3747
-1729 3746 -3 0 -43 -18 -88 -39z"/>
<path d="M11017 26427 c-91 -67 -167 -127 -167 -132 0 -19 1319 -2406 1392
-2520 39 -60 81 -132 93 -160 13 -27 61 -100 108 -161 47 -61 92 -124 100
-140 20 -40 121 -134 190 -178 31 -20 93 -52 138 -72 144 -63 361 -70 487 -14
120 53 280 178 352 274 50 67 130 197 130 212 0 14 59 156 71 170 7 8 -2 30
-27 73 -37 63 -54 76 -54 42 0 -11 -5 -23 -10 -26 -6 -4 -21 -24 -34 -44 -71
-111 -209 -232 -325 -283 -73 -32 -81 -33 -201 -33 -110 1 -132 4 -180 25
-130 58 -192 115 -357 333 -84 111 -106 151 -863 1532 -365 666 -666 1213
-669 1217 -4 5 -82 -47 -174 -115z"/>
<path d="M8125 26339 c-16 -10 -66 -33 -110 -50 -44 -17 -104 -43 -135 -58
-30 -15 -100 -45 -155 -67 -55 -21 -132 -60 -172 -86 -40 -26 -91 -57 -113
-68 -22 -11 -82 -48 -133 -81 -50 -34 -114 -72 -142 -86 -74 -38 -250 -160
-314 -218 -31 -28 -74 -64 -96 -80 -172 -125 -550 -506 -696 -700 -196 -260
-317 -473 -464 -815 -48 -111 -115 -353 -140 -500 -9 -52 -21 -106 -27 -120
-28 -61 -48 -644 -28 -790 39 -288 73 -462 120 -605 27 -82 58 -179 69 -215
33 -109 77 -221 119 -305 205 -411 252 -495 373 -663 30 -42 79 -113 109 -157
29 -44 72 -102 94 -130 23 -27 75 -95 116 -150 80 -106 176 -213 275 -304 33
-31 92 -88 130 -127 39 -39 102 -92 140 -119 39 -27 88 -65 110 -85 22 -21 52
-40 68 -44 15 -4 51 -22 80 -40 207 -132 550 -254 814 -287 127 -17 330 -22
388 -11 28 6 93 17 145 26 52 9 127 22 165 30 198 41 664 256 825 381 47 36
130 98 185 137 86 62 366 322 444 413 14 16 64 72 110 125 46 52 108 128 138
169 31 41 82 106 115 145 83 98 175 232 275 399 47 78 100 162 118 187 31 43
165 303 165 320 0 9 -371 854 -394 898 l-12 22 -40 -34 -41 -35 -6 -121 c-8
-143 -41 -367 -67 -453 -10 -34 -21 -75 -24 -92 -14 -64 -100 -321 -116 -345
-10 -14 -23 -43 -30 -65 -14 -44 -155 -322 -214 -423 -21 -35 -56 -85 -79
-111 -23 -27 -73 -92 -111 -145 -125 -174 -430 -462 -626 -590 -153 -101 -236
-154 -272 -175 -62 -37 -221 -97 -355 -136 -120 -35 -139 -37 -308 -42 -162
-5 -189 -4 -264 16 -47 11 -98 21 -113 21 -27 0 -215 59 -310 97 -56 22 -279
156 -401 240 -117 80 -345 285 -444 398 -38 44 -78 86 -87 94 -43 36 -220 281
-321 446 -235 381 -334 580 -441 887 -182 522 -220 898 -143 1428 13 89 84
331 133 450 197 486 515 887 931 1177 61 42 139 89 175 105 36 16 95 44 131
63 36 19 126 51 200 71 180 49 335 57 490 26 57 -12 129 -24 159 -28 102 -13
381 -138 457 -205 18 -15 52 -36 76 -47 24 -11 75 -49 113 -84 38 -36 90 -77
115 -91 25 -15 78 -61 118 -102 40 -41 76 -75 80 -75 3 0 19 16 35 36 l29 36
-29 62 c-26 55 -119 207 -269 438 -31 48 -79 115 -107 150 -27 35 -82 117
-121 183 -38 66 -123 208 -187 315 -64 107 -141 239 -171 292 -30 54 -58 98
-64 97 -5 0 -23 -9 -40 -20z"/>
<path d="M10400 25969 c-85 -66 -154 -125 -152 -131 7 -27 1309 -2386 1367
-2478 104 -165 181 -280 227 -341 103 -133 308 -309 361 -309 15 0 68 -15 119
-34 109 -40 169 -50 298 -50 154 -1 205 10 289 62 76 47 81 61 14 43 -58 -16
-111 -13 -193 13 -159 49 -284 128 -368 233 -89 111 -235 321 -305 438 -32 55
-69 114 -82 130 -12 17 -332 596 -710 1288 -378 691 -693 1257 -699 1257 -6
-1 -81 -55 -166 -121z"/>
<path d="M18995 24294 c-1364 -73 -2566 -682 -3542 -1794 -727 -830 -1137
-1721 -1238 -2689 -110 -1067 118 -1873 695 -2451 373 -374 836 -541 1372
-495 483 42 929 253 1388 657 532 468 1073 1233 1360 1923 134 321 225 670
260 1003 70 648 -48 1121 -359 1444 -126 132 -270 217 -447 264 -97 26 -370
26 -463 0 -152 -42 -273 -117 -388 -240 -150 -160 -212 -351 -192 -591 14
-171 55 -285 135 -374 85 -95 184 -135 334 -135 171 0 300 67 408 209 93 124
123 208 130 363 7 176 -22 283 -101 369 l-41 44 30 -6 c81 -19 113 -29 159
-52 126 -63 233 -175 309 -322 88 -171 123 -322 133 -576 28 -765 -323 -1631
-1011 -2490 -485 -605 -984 -970 -1484 -1086 -125 -28 -153 -31 -317 -33 -195
-1 -278 11 -425 61 -388 133 -685 490 -804 968 -82 329 -70 854 30 1330 175
839 545 1658 1078 2390 132 182 211 280 399 495 785 897 1686 1380 2687 1440
572 35 1036 -48 1476 -265 262 -128 475 -285 694 -511 160 -164 317 -372 432
-569 l35 -61 -74 -94 c-507 -652 -976 -1422 -1334 -2193 -39 -83 -118 -254
-174 -378 -602 -1315 -1176 -2388 -1558 -2909 -66 -89 -230 -281 -293 -341
-309 -295 -729 -547 -1198 -719 l-128 -47 -333 83 c-806 202 -1355 308 -1735
334 -422 30 -884 -59 -1157 -222 -76 -45 -154 -123 -184 -183 -35 -74 -34
-190 3 -261 85 -163 326 -260 768 -309 74 -8 273 -21 442 -27 598 -23 1186 24
1785 143 l211 42 235 -41 c967 -171 1602 -192 2252 -73 830 151 1545 533 2146
1146 175 179 235 249 406 475 683 903 1018 1976 989 3170 -10 392 -31 613 -92
940 -81 436 -233 912 -423 1323 -23 49 -41 92 -41 97 0 17 243 305 364 431
542 563 1120 865 1738 910 416 30 760 -82 1025 -334 200 -190 342 -422 436
-712 127 -388 150 -952 57 -1395 -23 -111 -26 -207 -6 -253 43 -103 178 -124
261 -42 76 77 128 371 142 810 15 492 -69 939 -246 1310 -303 634 -829 995
-1448 995 -679 0 -1296 -230 -1893 -706 -182 -144 -413 -361 -559 -525 l-95
-105 -54 75 c-88 122 -102 141 -203 261 -579 688 -1325 1056 -2249 1110 -202
11 -198 11 -515 -6z m-1799 -747 c-10 -7 -109 -81 -220 -165 -471 -360 -938
-867 -1326 -1443 -435 -644 -750 -1345 -929 -2064 -142 -572 -174 -1039 -106
-1550 4 -29 -3 -17 -25 45 -171 473 -187 1213 -41 1872 195 884 697 1727 1467
2464 320 306 753 626 1079 796 104 54 144 72 101 45z m4812 -1659 c205 -613
263 -1251 182 -1973 -88 -775 -387 -1676 -813 -2450 -319 -581 -732 -1060
-1177 -1367 -367 -252 -778 -410 -1226 -468 -227 -30 -679 -30 -969 0 -167 17
-349 42 -362 49 -7 4 60 37 150 75 690 293 1290 690 1678 1108 395 427 766
1057 1097 1864 128 311 225 579 379 1046 226 690 352 1013 585 1503 129 271
399 765 418 765 4 0 30 -69 58 -152z m-4195 -253 c42 -24 52 -25 170 -23 113
3 128 1 153 -17 42 -32 56 -85 51 -191 -3 -78 -8 -99 -36 -150 -76 -141 -173
-198 -293 -173 -96 21 -143 99 -157 262 -9 103 2 184 35 258 15 33 28 59 29
59 1 0 23 -11 48 -25z m3568 -69 c-5 -12 -38 -81 -74 -152 -200 -400 -380
-860 -606 -1550 -357 -1083 -658 -1754 -1055 -2349 -309 -464 -672 -811 -1166
-1113 -14 -9 9 20 51 64 163 170 294 342 468 612 395 616 879 1551 1447 2797
222 488 419 869 650 1258 98 164 283 457 290 457 2 0 -1 -11 -5 -24z m1133
-1041 c8 -82 18 -267 22 -410 29 -1135 -295 -2171 -947 -3026 -196 -258 -351
-427 -583 -639 -44 -40 -47 -41 -27 -13 12 18 26 35 32 38 18 12 206 251 286
365 505 720 933 1762 1097 2670 65 365 101 792 91 1113 -5 185 5 152 29 -98z
m-7464 -4551 c142 -16 391 -56 386 -61 -1 -2 -112 8 -246 22 -134 13 -340 30
-459 37 -194 12 -208 14 -136 19 107 8 302 1 455 -17z m-90 -278 c218 -21 535
-56 585 -66 60 -12 -766 -12 -971 0 -276 16 -555 53 -537 71 14 14 102 17 433
13 185 -1 396 -10 490 -18z"/>
<path d="M5008 22693 c-50 -131 -71 -222 -103 -448 -46 -324 -29 -591 58 -925
16 -63 36 -144 44 -180 58 -269 252 -688 450 -977 65 -94 150 -214 190 -265
140 -182 485 -492 678 -610 124 -75 285 -164 317 -173 12 -4 61 -24 108 -45
47 -21 108 -41 135 -46 27 -4 65 -14 85 -22 77 -32 430 -47 590 -25 83 12 171
32 183 42 4 4 -30 15 -75 25 -139 30 -169 40 -412 142 -201 83 -389 202 -586
371 -63 54 -131 110 -151 125 -20 15 -54 46 -75 69 -22 23 -50 51 -63 63 -56
50 -339 398 -411 506 -24 36 -58 83 -76 105 -17 22 -41 58 -52 80 -11 22 -67
110 -124 195 -128 193 -304 529 -395 760 -149 375 -263 911 -263 1241 0 49 -3
89 -8 89 -4 0 -24 -44 -44 -97z"/>
<path d="M43535 19670 c-283 -23 -485 -137 -611 -345 -57 -94 -78 -176 -77
-305 1 -99 5 -129 31 -210 71 -225 211 -460 480 -805 239 -308 814 -987 1058
-1251 569 -615 818 -836 1099 -976 208 -104 389 -127 558 -70 96 32 257 120
257 140 0 7 -7 23 -16 37 l-15 23 -57 -20 c-81 -28 -219 -35 -302 -13 -81 20
-222 88 -318 152 -153 103 -366 288 -505 438 l-65 70 99 135 c54 74 176 243
271 375 197 275 275 373 379 469 130 121 253 189 382 211 35 6 37 8 37 42 l0
36 -292 -8 c-161 -5 -342 -8 -403 -6 -116 2 -465 25 -631 41 -55 5 -105 10
-111 10 -8 0 -13 -14 -13 -39 l0 -38 91 -22 c183 -42 291 -122 325 -239 40
-137 -47 -353 -263 -649 -41 -57 -78 -103 -81 -102 -7 0 -215 234 -591 663
-186 212 -448 524 -463 550 -5 9 19 31 75 68 195 130 386 306 477 438 56 83
107 190 132 277 32 116 30 298 -5 406 -47 144 -146 274 -284 370 -162 113
-398 166 -648 147z m146 -304 c180 -38 295 -162 336 -361 14 -70 14 -94 4
-185 -26 -215 -135 -385 -337 -525 -52 -36 -98 -65 -103 -65 -6 0 -56 62 -113
138 -262 350 -355 559 -318 714 15 59 78 161 127 202 95 80 258 113 404 82z"/>
<path d="M26015 19173 c-214 -25 -419 -74 -685 -163 -254 -84 -356 -125 -630
-250 -437 -201 -881 -466 -1284 -768 -562 -420 -824 -698 -900 -952 -50 -166
-61 -452 -26 -646 61 -338 256 -702 501 -940 137 -132 236 -188 349 -200 207
-20 462 99 779 365 165 138 431 372 619 544 89 81 162 146 162 142 0 -3 -13
-51 -30 -106 -56 -191 -75 -308 -75 -484 0 -123 5 -176 19 -230 52 -201 149
-309 321 -361 89 -27 282 -25 396 4 378 98 874 420 1483 966 65 58 121 104
124 101 3 -2 17 -53 32 -112 73 -288 214 -536 356 -625 131 -83 299 -74 450
24 71 46 254 233 454 463 384 441 577 641 835 866 164 143 343 293 355 297 4
2 -58 -98 -140 -221 -388 -586 -470 -772 -470 -1069 0 -340 138 -557 396 -621
258 -64 526 11 882 246 205 137 655 482 964 742 l67 56 11 -43 c76 -310 215
-577 406 -777 171 -180 341 -288 533 -338 175 -46 442 -33 673 33 239 69 553
232 858 446 131 92 509 383 710 547 74 60 136 108 138 106 2 -1 14 -57 27
-123 101 -497 411 -842 850 -945 366 -86 832 -18 1240 181 271 133 631 383
955 666 149 130 527 503 546 538 18 35 20 373 2 413 -19 42 -71 68 -127 63
-42 -4 -68 -19 -217 -128 -379 -275 -714 -482 -961 -591 -230 -102 -367 -141
-561 -161 -206 -20 -335 13 -435 114 -84 84 -132 210 -125 327 l3 54 180 67
c739 277 1298 570 1670 876 311 256 492 543 524 834 28 255 -67 442 -275 542
-116 56 -234 78 -418 78 -295 0 -573 -65 -926 -218 -373 -161 -761 -419 -1158
-770 -299 -265 -519 -535 -634 -780 -39 -81 -108 -270 -108 -295 -1 -22 -395
-272 -667 -423 -208 -115 -555 -285 -668 -326 -317 -116 -554 -143 -769 -88
-240 61 -406 255 -406 475 0 99 71 209 216 335 100 88 181 141 549 367 l330
202 12 -71 c15 -89 50 -143 118 -180 132 -71 288 -39 475 100 87 64 298 273
386 382 198 244 334 487 369 658 37 177 -24 357 -165 484 -180 164 -428 201
-737 112 -318 -92 -757 -333 -1202 -662 -376 -278 -830 -688 -1003 -907 -101
-127 -204 -334 -223 -445 -7 -42 -8 -43 -209 -175 -220 -145 -467 -295 -573
-349 -135 -68 -283 -97 -313 -61 -22 27 -6 125 35 210 104 217 318 477 770
935 307 311 332 340 373 427 24 51 27 69 26 153 -2 176 -43 349 -119 505 -92
190 -178 245 -348 224 -169 -21 -293 -75 -602 -261 -353 -213 -551 -346 -780
-524 -387 -301 -569 -462 -1015 -898 -184 -181 -352 -342 -373 -358 l-38 -30
18 38 c70 154 247 360 695 808 192 192 363 369 380 394 92 133 90 290 -5 398
-48 55 -100 86 -197 116 -66 20 -95 23 -235 23 -149 0 -166 -2 -245 -29 -191
-64 -338 -163 -545 -371 -186 -185 -344 -372 -569 -673 -162 -216 -269 -403
-297 -517 -6 -27 -16 -58 -21 -67 -10 -20 -183 -142 -343 -243 -142 -89 -335
-185 -455 -227 -86 -30 -106 -33 -210 -33 -103 0 -119 3 -156 24 -77 44 -106
136 -85 271 22 138 70 212 376 575 404 479 439 579 300 855 -25 50 -56 115
-69 144 l-24 53 82 33 c102 42 175 110 195 183 22 78 10 172 -33 263 -90 191
-230 327 -385 374 -60 19 -207 25 -306 13z m253 -273 c24 -11 67 -45 97 -75
50 -53 125 -176 125 -208 0 -17 -54 -41 -191 -86 -111 -37 -148 -67 -156 -128
-5 -35 7 -64 105 -264 61 -123 114 -236 117 -250 14 -56 -63 -168 -345 -504
-340 -405 -386 -488 -406 -730 -18 -216 68 -400 223 -478 160 -82 390 -77 628
11 165 62 396 183 464 245 20 17 118 84 217 147 l182 115 6 69 c7 79 45 199
81 255 13 22 42 54 65 73 22 18 73 78 112 133 202 282 391 511 586 709 196
199 308 279 462 332 79 27 275 26 344 -1 66 -27 76 -45 51 -90 -10 -20 -109
-123 -220 -230 -208 -200 -520 -526 -643 -674 -268 -318 -342 -524 -247 -687
39 -66 102 -99 190 -99 127 1 170 34 596 449 461 450 574 551 899 812 192 155
339 261 546 396 465 305 720 438 839 438 30 0 35 -5 68 -68 45 -86 82 -211 96
-331 11 -91 11 -94 -13 -135 -13 -22 -138 -156 -278 -296 -517 -520 -770 -838
-879 -1106 -31 -74 -33 -87 -33 -204 -1 -110 2 -130 21 -166 35 -65 71 -103
127 -131 43 -23 67 -28 153 -31 191 -8 337 51 724 290 69 42 222 147 340 233
l214 156 12 62 c48 237 196 439 572 780 667 603 1393 1054 1815 1128 94 16
209 8 270 -19 107 -48 167 -120 186 -223 17 -87 -38 -221 -173 -424 -125 -189
-332 -418 -476 -529 -56 -43 -152 -96 -176 -96 -6 0 -9 33 -6 85 1 47 0 101
-3 121 -8 39 -55 98 -97 120 -36 18 -125 18 -177 0 -40 -14 -581 -341 -802
-484 -320 -208 -530 -443 -530 -595 0 -17 -5 -66 -11 -107 -16 -103 6 -211 68
-340 40 -83 58 -107 142 -190 148 -146 297 -213 532 -241 387 -45 810 90 1504
478 221 124 253 145 257 167 2 13 80 67 238 164 244 150 280 181 280 241 0 58
87 272 152 376 155 244 414 510 763 784 257 201 426 311 670 436 354 180 690
275 973 275 309 -1 447 -89 444 -285 -5 -286 -237 -589 -668 -877 -369 -247
-803 -454 -1443 -692 -109 -41 -207 -80 -219 -87 -48 -30 -55 -62 -49 -240 6
-183 17 -240 75 -359 52 -105 177 -231 282 -282 137 -68 296 -89 500 -69 213
22 370 66 615 174 199 87 420 213 680 385 l200 133 -80 -82 c-212 -215 -560
-504 -825 -685 -182 -125 -182 -125 -293 -185 -190 -104 -387 -174 -592 -211
-160 -29 -402 -31 -525 -5 -394 85 -652 402 -709 872 -16 130 -14 165 9 190
19 21 19 21 -5 80 -13 33 -25 80 -25 104 0 30 -4 42 -12 38 -7 -2 -87 -50
-178 -106 -100 -62 -223 -149 -314 -223 -392 -320 -759 -594 -955 -713 -323
-197 -569 -291 -818 -315 -268 -25 -449 46 -663 260 -212 212 -316 433 -400
850 -8 36 -16 109 -19 163 l-6 97 -212 -155 c-116 -85 -217 -155 -225 -155 -7
0 -83 -57 -168 -127 -353 -289 -719 -560 -886 -659 -215 -127 -369 -173 -506
-154 -85 12 -136 37 -181 90 -56 66 -72 132 -72 295 1 126 4 148 28 218 69
198 215 437 681 1117 126 184 236 353 245 375 18 52 9 89 -34 132 -29 29 -40
33 -83 33 -213 0 -1024 -630 -1534 -1192 -101 -112 -263 -293 -359 -403 -231
-262 -354 -386 -421 -419 -28 -14 -60 -26 -70 -26 -110 0 -266 276 -323 571
-9 46 -27 118 -40 160 -13 41 -27 106 -31 142 -4 37 -9 67 -11 67 -2 0 -81
-49 -176 -110 -94 -60 -180 -110 -190 -110 -10 0 -89 -62 -175 -138 -287 -252
-487 -409 -712 -559 -408 -273 -716 -373 -895 -294 -47 21 -73 57 -101 141
-28 80 -25 290 4 424 43 196 131 458 243 721 59 141 55 204 -17 252 -32 21
-104 21 -133 1 -12 -9 -129 -117 -259 -240 -515 -488 -958 -878 -1148 -1011
-135 -94 -300 -167 -379 -167 -80 0 -272 171 -387 345 -188 285 -268 526 -268
805 0 229 36 352 143 495 219 292 939 838 1535 1164 208 114 551 275 747 351
506 197 974 293 1113 230z"/>
<path d="M37045 18467 c-475 -158 -1038 -612 -1264 -1021 -71 -128 -150 -353
-151 -424 0 -66 61 -125 129 -125 68 0 422 141 631 251 214 113 502 319 678
487 125 118 261 294 325 420 86 170 70 321 -41 400 -40 28 -51 30 -140 33 -79
2 -110 -2 -167 -21z m135 -242 c0 -13 -47 -96 -91 -160 -191 -281 -593 -590
-1009 -775 l-110 -49 21 42 c175 344 650 745 1087 916 76 30 102 36 102 26z"/>
<path d="M25775 18333 c-1042 -426 -1658 -725 -2014 -976 -437 -308 -633 -629
-590 -969 31 -248 179 -401 372 -386 34 3 102 19 151 36 173 61 567 300 821
500 341 268 890 837 1415 1467 176 212 184 224 178 279 -6 48 -31 89 -66 105
-48 23 -104 11 -267 -56z m-251 -395 c-23 -39 -403 -456 -614 -673 -330 -340
-537 -519 -810 -701 -241 -161 -513 -303 -582 -304 -22 0 -62 53 -78 105 -16
48 -16 172 0 223 119 392 595 714 1890 1276 107 46 196 85 198 85 2 1 0 -5 -4
-11z"/>
<path d="M42577 19040 c-75 -176 -109 -377 -89 -531 21 -153 121 -387 266
-622 l65 -105 -47 -38 c-231 -187 -384 -404 -456 -648 -116 -389 -36 -794 231
-1176 216 -308 471 -464 813 -500 96 -10 138 -9 254 4 307 34 533 147 842 418
20 18 22 17 120 -68 103 -89 293 -223 379 -267 122 -61 297 -97 478 -97 117 0
257 16 257 30 0 4 -30 15 -67 25 -193 52 -442 189 -658 362 -289 231 -595 562
-1300 1403 -781 931 -1007 1298 -1069 1733 -7 50 -16 85 -19 77z m604 -1727
c101 -126 219 -271 263 -323 177 -209 538 -622 650 -745 66 -71 128 -139 138
-151 18 -21 18 -21 -69 -95 -240 -204 -453 -280 -708 -253 -205 22 -353 92
-503 238 -99 96 -173 198 -237 327 -199 394 -129 800 195 1143 45 47 84 86 85
86 2 0 85 -102 186 -227z"/>
<path d="M42017 17220 c-294 -312 -396 -683 -291 -1054 89 -315 346 -580 664
-684 88 -29 306 -70 317 -59 2 3 -34 30 -80 60 -107 70 -254 216 -333 332
-267 391 -337 829 -213 1329 22 87 38 163 37 168 -2 6 -47 -36 -101 -92z"/>
<path d="M11550 14080 l0 -90 591 -2 591 -3 -339 -400 c-186 -220 -619 -729
-963 -1130 -344 -402 -762 -894 -930 -1093 -167 -199 -307 -358 -311 -354 -3
4 -102 704 -220 1555 -118 852 -216 1553 -220 1558 -3 6 -90 8 -210 7 l-205
-3 271 -1992 c148 -1095 273 -1994 277 -1998 3 -4 163 180 354 407 192 227
648 764 1014 1193 366 429 806 948 979 1153 172 204 314 372 315 372 2 0 -774
-2469 -863 -2745 -27 -85 -29 -87 -30 -47 l-1 42 -345 0 -345 0 0 -90 0 -90
330 0 330 0 -16 -42 c-31 -81 -121 -263 -162 -328 -37 -57 -42 -62 -42 -37 l0
27 -505 0 -505 0 0 -90 0 -90 457 -2 457 -3 -80 -77 c-78 -76 -191 -161 -266
-199 -35 -18 -65 -19 -643 -19 l-605 0 0 -70 0 -70 652 0 c367 0 711 5 787 11
75 5 239 13 365 17 l229 7 299 955 c164 525 496 1585 738 2355 241 770 442
1412 445 1428 l7 27 -181 0 c-174 0 -181 1 -181 20 0 20 -7 20 -660 20 l-660
0 0 -90z"/>
<path d="M6360 14110 l0 -40 108 0 c59 0 411 -7 782 -15 l675 -14 105 -53
c127 -65 233 -154 301 -255 27 -40 49 -78 49 -86 0 -7 -11 -40 -24 -73 l-24
-59 -721 -3 -721 -2 0 -90 0 -90 680 0 c374 0 680 -3 680 -7 0 -5 -36 -98 -81
-208 l-81 -200 -369 3 -369 2 0 -90 0 -90 330 0 c182 0 330 -4 330 -9 0 -7
-694 -1722 -861 -2126 -29 -71 -55 -122 -57 -112 -3 16 -29 17 -368 17 l-364
0 0 -90 0 -90 333 -2 334 -3 -61 -111 c-34 -61 -83 -146 -111 -187 l-50 -77
-687 0 -688 0 0 -90 0 -90 616 0 616 0 -77 -72 c-93 -88 -190 -159 -267 -199
l-57 -29 -776 0 -775 0 0 -70 0 -70 828 0 c527 0 878 4 967 11 77 7 242 12
368 13 125 0 227 1 227 2 0 0 50 142 110 315 61 173 128 373 149 444 22 72 76
225 120 340 156 406 1140 2810 1144 2795 5 -14 538 -3897 537 -3912 0 -5 9 -8
20 -8 12 0 80 69 197 201 160 181 178 204 175 233 -11 102 -600 4357 -604
4361 -13 14 -726 25 -1595 25 l-993 0 0 -40z"/>
<path d="M12835 11768 c-406 -1300 -740 -2372 -743 -2384 -4 -20 1 -21 138
-28 79 -4 146 -4 150 1 7 7 1490 4752 1490 4767 0 3 -67 6 -148 6 l-148 0
-739 -2362z"/>
<path d="M42180 13770 l0 -90 910 0 910 0 0 90 0 90 -910 0 -910 0 0 -90z"/>
<path d="M45390 13770 l0 -90 915 0 915 0 0 90 0 90 -915 0 -915 0 0 -90z"/>
<path d="M48366 13666 l-248 -61 -93 -240 c-73 -187 -90 -242 -80 -250 10 -8
-98 -315 -487 -1390 -274 -759 -517 -1438 -538 -1510 -60 -195 -82 -308 -83
-415 -2 -151 35 -235 149 -339 50 -46 59 -51 65 -35 148 402 202 557 214 618
26 127 118 394 445 1299 l314 867 465 1 c256 0 474 4 485 8 15 6 79 160 122
293 5 17 -21 18 -476 18 -382 0 -481 3 -478 13 3 6 38 105 79 219 63 176 77
208 94 208 17 0 41 56 164 376 79 206 142 376 140 378 -2 1 -116 -25 -253 -58z"/>
<path d="M47594 13479 l-202 -50 -172 -442 c-94 -243 -174 -447 -177 -454 -2
-6 4 -13 13 -15 12 -2 -51 -50 -178 -135 -119 -81 -198 -140 -201 -152 -5 -20
0 -21 147 -23 l152 -3 -313 -865 c-173 -476 -336 -938 -364 -1028 -149 -493
-136 -725 48 -842 l42 -27 -222 -6 c-122 -4 -360 -10 -529 -14 l-308 -6 0 -49
0 -48 659 0 659 0 4 36 c7 63 -1 94 -27 94 -29 0 -48 22 -82 95 -26 55 -28 69
-27 175 1 197 -3 186 524 1647 320 887 367 1013 384 1010 17 -2 49 75 238 558
119 308 218 563 218 567 0 7 -57 28 -74 27 -6 0 -102 -23 -212 -50z"/>
<path d="M44580 13140 l0 -90 910 0 910 0 0 90 0 90 -910 0 -910 0 0 -90z"/>
<path d="M16840 12672 c-638 -50 -1179 -404 -1573 -1030 -202 -321 -397 -818
-462 -1178 -23 -129 -31 -357 -15 -462 38 -256 179 -463 408 -597 301 -176
830 -165 1292 27 161 67 407 207 527 300 166 129 345 332 488 553 169 260 362
717 449 1060 58 233 81 490 57 653 -54 372 -339 618 -776 672 -128 15 -219 16
-395 2z m245 -297 c175 -28 281 -80 372 -180 93 -102 142 -247 143 -422 2
-415 -285 -1186 -593 -1595 -192 -255 -475 -446 -780 -527 -291 -77 -616 -50
-805 66 -83 51 -163 140 -198 220 -90 204 -14 645 208 1203 223 559 517 926
893 1112 228 113 525 161 760 123z"/>
<path d="M31280 12674 c-264 -22 -570 -98 -880 -220 -80 -31 -155 -60 -167
-65 -21 -8 -22 -6 -12 19 6 15 31 71 56 125 25 53 44 99 42 102 -5 4 -287 -28
-368 -42 l-43 -8 -170 -470 c-93 -258 -354 -982 -579 -1608 -226 -626 -409
-1140 -407 -1142 2 -1 91 -6 198 -10 l195 -7 113 324 c61 178 112 329 112 335
0 40 110 360 398 1162 l329 913 114 44 c274 106 586 195 799 229 63 10 161 17
245 17 272 -1 398 -54 435 -183 22 -74 8 -218 -35 -364 -23 -81 -525 -1468
-586 -1623 -133 -334 -274 -530 -472 -655 -69 -44 -217 -108 -306 -133 -60
-16 -64 -20 -82 -62 -11 -25 -18 -46 -17 -47 2 -2 41 1 88 5 137 14 511 38
695 45 l171 7 436 1217 c240 669 450 1263 466 1321 77 268 61 482 -45 607 -80
95 -236 156 -433 168 -52 3 -106 7 -120 9 -14 1 -90 -3 -170 -10z"/>
<path d="M33965 12673 c-314 -22 -697 -126 -1025 -278 -211 -97 -186 -94 -216
-27 -49 112 -149 179 -309 208 -111 19 -112 19 -72 -25 105 -116 110 -333 16
-628 -16 -51 -230 -647 -474 -1325 -245 -677 -444 -1232 -442 -1234 4 -4 400
-24 404 -20 12 12 203 577 217 642 30 137 62 229 379 1104 170 470 317 885
326 923 l16 67 75 31 c161 68 372 143 517 185 542 156 868 132 988 -71 50 -87
46 -172 -22 -394 -32 -107 -473 -1338 -611 -1706 -79 -211 -176 -434 -274
-629 -43 -87 -77 -160 -75 -163 8 -7 438 24 447 33 10 10 820 2254 874 2422
77 238 109 404 97 497 -23 163 -182 309 -400 366 -110 29 -242 36 -436 22z"/>
<path d="M43875 12649 c-217 -16 -588 -98 -792 -175 -37 -14 -110 -41 -160
-59 l-93 -34 56 111 c30 60 53 112 50 115 -7 7 -390 -17 -397 -25 -10 -11
-1161 -3213 -1157 -3217 6 -6 378 -19 378 -13 0 3 48 135 106 294 58 159 116
334 129 389 30 129 38 153 409 1174 l313 864 99 39 c244 95 515 177 739 225
112 23 153 27 295 27 184 0 244 -12 336 -67 94 -56 130 -153 114 -309 -12
-123 -48 -255 -138 -509 -306 -860 -539 -1493 -648 -1757 -164 -397 -158 -381
-152 -388 6 -5 398 22 403 28 7 8 798 2218 834 2331 49 151 98 345 107 425 22
196 -110 394 -317 478 -124 51 -300 69 -514 53z"/>
<path d="M18917 12601 c-10 -23 -17 -43 -17 -45 0 -2 21 -9 48 -15 196 -50
337 -174 450 -396 84 -167 84 -166 651 -1840 325 -961 340 -1000 363 -1000 18
0 62 36 161 130 l137 131 -75 224 c-40 124 -265 804 -500 1511 l-425 1287
-118 6 c-185 11 -542 36 -603 42 l-56 6 -16 -41z"/>
<path d="M20945 12624 c-93 -6 -330 -17 -525 -24 -195 -6 -356 -12 -357 -13
-1 -2 469 -1382 859 -2524 40 -117 76 -212 80 -210 4 1 483 471 1065 1043 582
573 1103 1082 1158 1131 291 260 493 391 744 480 130 47 134 49 148 86 9 21
13 40 11 42 -2 3 -141 -4 -309 -15 -167 -12 -428 -23 -579 -27 -237 -5 -304
-2 -485 16 -115 12 -237 24 -271 27 l-60 6 -13 -42 c-7 -23 -11 -43 -9 -44 2
-1 52 -26 112 -55 131 -64 194 -121 221 -200 23 -69 14 -120 -36 -219 -49 -98
-138 -215 -276 -365 -168 -183 -1224 -1220 -1233 -1210 -14 15 -468 1395 -486
1478 -10 44 -18 116 -18 160 0 73 3 85 35 137 63 105 180 184 357 243 75 24
85 31 98 61 26 62 45 59 -231 38z"/>
<path d="M26020 12624 c-388 -42 -757 -241 -1106 -596 -255 -259 -454 -554
-592 -878 -151 -354 -205 -587 -206 -890 -1 -245 21 -353 106 -528 80 -164
187 -270 353 -352 190 -93 385 -126 688 -116 749 25 1379 363 1908 1022 71 89
129 164 129 168 0 3 -48 6 -108 6 l-107 0 -85 -86 c-385 -390 -839 -649 -1285
-734 -158 -30 -401 -37 -529 -16 -386 64 -603 280 -646 643 -25 204 22 448
146 759 l58 144 1115 2 1115 3 17 85 c68 329 76 624 24 825 -44 166 -162 324
-314 419 -111 69 -239 111 -386 125 -128 13 -131 13 -295 -5z m307 -328 c194
-64 297 -222 310 -475 5 -97 -7 -206 -33 -293 -5 -17 -54 -18 -850 -18 -464 0
-844 2 -844 4 0 2 21 41 47 87 189 337 520 607 851 696 173 46 377 45 519 -1z"/>
<path d="M28692 12608 c-18 -52 -16 -55 46 -78 127 -47 200 -109 244 -207 18
-40 22 -67 22 -158 0 -183 -17 -242 -314 -1075 -307 -858 -313 -874 -375
-1010 -117 -258 -242 -418 -408 -524 -68 -43 -204 -104 -300 -136 -63 -20 -70
-26 -90 -66 -11 -24 -19 -45 -16 -47 2 -3 38 0 79 4 154 17 332 29 589 39 146
6 266 11 267 13 2 2 262 721 578 1598 316 877 577 1601 581 1610 6 15 -8 18
-117 23 -574 30 -698 37 -733 42 -39 5 -41 4 -53 -28z"/>
<path d="M38616 12624 c-669 -73 -1352 -667 -1699 -1479 -162 -379 -222 -668
-206 -980 21 -405 204 -688 525 -815 199 -80 428 -104 749 -81 587 44 1148
324 1591 797 122 131 314 365 314 384 0 6 -40 10 -103 10 l-102 0 -90 -91
c-376 -379 -844 -645 -1285 -730 -95 -18 -150 -22 -320 -22 -192 -1 -211 1
-304 26 -157 42 -256 96 -351 192 -86 86 -132 160 -164 266 -80 261 -47 524
114 927 l57 142 1113 0 1113 0 12 53 c102 473 86 834 -47 1044 -54 87 -141
175 -232 234 -107 71 -238 113 -395 128 -127 13 -121 13 -290 -5z m162 -299
c210 -18 363 -129 420 -305 45 -136 49 -254 15 -427 l-16 -83 -848 0 -848 0
53 94 c124 219 323 424 541 558 157 96 317 151 481 166 49 5 98 8 109 6 11 -2
53 -6 93 -9z"/>
<path d="M41272 12602 c-7 -22 -12 -42 -12 -45 0 -3 31 -17 70 -32 85 -32 176
-90 214 -136 98 -116 96 -286 -11 -639 -25 -85 -428 -1201 -521 -1445 -101
-263 -220 -487 -323 -605 -75 -87 -245 -200 -384 -257 -113 -46 -116 -48 -136
-92 -10 -24 -18 -45 -17 -46 2 -1 86 4 188 11 102 8 301 21 443 28 142 8 261
16 263 19 7 6 1164 3220 1161 3223 -1 2 -124 8 -272 14 -273 11 -508 25 -601
36 l-50 6 -12 -40z"/>
<path d="M35009 12518 c99 -124 128 -242 97 -399 -33 -164 -102 -367 -531
-1554 l-433 -1200 97 -6 c53 -4 142 -7 198 -8 l101 -1 10 28 c93 256 213 614
226 670 27 118 64 227 321 942 275 762 305 853 334 999 68 338 -33 498 -357
566 -108 22 -109 22 -63 -37z"/>
<path d="M44933 12491 c123 -131 142 -223 91 -450 -40 -178 -95 -338 -530
-1550 -223 -618 -403 -1125 -401 -1127 8 -9 360 -25 367 -17 16 16 213 569
240 672 45 172 101 334 321 938 247 678 286 799 325 1018 19 109 18 262 -2
321 -45 132 -211 236 -414 259 l-65 8 68 -72z"/>
<path d="M27260 12383 c0 -5 14 -30 30 -57 146 -229 154 -568 25 -1023 -19
-67 -35 -125 -35 -128 0 -3 98 -5 218 -5 l219 0 22 127 c33 176 33 390 1 521
-27 116 -80 228 -144 313 -47 61 -139 146 -195 180 -82 49 -141 79 -141 72z"/>
<path d="M39860 12381 c0 -6 13 -32 29 -58 147 -241 150 -587 8 -1071 l-25
-82 221 2 221 3 20 100 c15 78 19 143 19 295 1 179 -1 202 -25 285 -44 158
-129 292 -245 391 -71 60 -223 152 -223 135z"/>
<path d="M18210 12365 c0 -3 15 -29 33 -58 128 -200 127 -545 -4 -1037 -180
-679 -487 -1189 -937 -1563 -40 -33 -70 -62 -68 -65 16 -15 403 219 561 340
531 407 847 956 879 1528 18 317 -112 596 -372 796 -80 62 -92 70 -92 59z"/>
<path d="M15420 12292 c-241 -120 -408 -232 -574 -384 -245 -224 -427 -486
-553 -798 -95 -234 -139 -412 -153 -625 -19 -288 54 -520 226 -715 58 -66 201
-186 211 -176 3 2 -9 35 -26 73 -133 293 -117 673 51 1192 132 411 291 727
517 1026 75 99 306 340 411 428 30 26 48 46 40 46 -8 0 -76 -30 -150 -67z"/>
<path d="M24515 12098 c-329 -210 -530 -386 -687 -599 -212 -288 -343 -582
-393 -879 -27 -159 -17 -354 22 -477 54 -164 140 -287 282 -403 61 -51 63 -52
81 -34 18 18 18 23 -10 159 -56 269 -33 555 71 915 130 446 363 876 667 1228
107 124 129 164 90 161 -7 0 -62 -32 -123 -71z"/>
<path d="M37104 12092 c-411 -263 -614 -462 -817 -800 -206 -343 -308 -737
-263 -1017 36 -223 136 -396 312 -536 61 -48 67 -51 82 -35 15 15 14 26 -11
154 -22 114 -27 165 -27 295 0 589 310 1336 773 1866 60 68 106 128 104 135
-8 24 -37 13 -153 -62z"/>
<path d="M15585 7554 c-66 -8 -160 -24 -210 -35 -49 -10 -97 -19 -106 -19 -9
0 -45 -10 -80 -21 -35 -12 -80 -25 -99 -29 -95 -21 -327 -119 -463 -196 -139
-78 -199 -121 -339 -243 -184 -160 -231 -214 -421 -475 -80 -111 -224 -366
-247 -441 -7 -22 -19 -50 -27 -62 -36 -54 -135 -338 -148 -423 -4 -25 -16 -66
-26 -92 -47 -120 -69 -521 -40 -733 15 -112 91 -352 143 -450 90 -172 297
-433 425 -537 181 -146 299 -223 498 -324 168 -86 245 -118 442 -185 131 -44
272 -89 313 -99 41 -10 104 -25 140 -33 128 -31 267 -57 405 -76 313 -45 423
-54 730 -59 l311 -4 213 293 c117 161 215 298 217 304 3 6 -17 17 -45 24 -47
12 -52 11 -107 -17 -33 -16 -93 -40 -134 -52 -41 -12 -102 -31 -135 -42 -84
-28 -178 -49 -370 -83 -141 -26 -600 -32 -730 -10 -55 9 -137 20 -181 25 -45
4 -92 13 -104 20 -12 6 -42 15 -68 20 -85 16 -268 69 -398 115 -345 122 -656
328 -826 546 -60 78 -158 233 -158 251 0 5 -18 50 -39 101 -23 53 -53 153 -72
236 -31 142 -31 146 -26 350 4 195 6 214 41 352 43 171 152 452 254 655 41 82
175 288 217 334 12 14 35 46 49 72 15 26 88 106 162 177 145 140 345 287 490
359 98 50 368 142 494 170 119 27 456 55 558 47 421 -33 911 -175 1181 -343
79 -49 226 -167 302 -242 42 -42 123 -158 182 -261 45 -79 105 -278 117 -391
14 -122 4 -411 -16 -478 -7 -24 -12 -46 -9 -48 5 -5 87 -23 90 -20 43 58 155
280 218 433 88 211 155 353 277 580 44 83 80 157 80 166 0 36 -566 373 -780
465 -41 17 -120 52 -175 77 -126 56 -405 156 -599 213 -169 51 -381 95 -601
125 -197 28 -594 34 -770 13z"/>
<path d="M14315 7460 c-60 -7 -149 -29 -298 -76 -92 -28 -295 -126 -389 -186
-108 -70 -242 -184 -389 -331 -107 -107 -156 -164 -216 -256 -81 -123 -206
-347 -218 -391 -3 -14 -21 -61 -40 -105 -32 -78 -85 -278 -85 -321 0 -12 -7
-39 -17 -60 -24 -57 -24 -488 1 -553 9 -24 16 -55 16 -70 0 -46 46 -203 87
-298 41 -97 140 -273 153 -273 4 0 34 -33 68 -74 59 -72 198 -193 209 -183 3
3 -4 19 -16 35 -12 17 -21 34 -21 38 0 4 -9 27 -20 51 -50 108 -60 133 -78
208 -63 252 -73 536 -28 770 8 39 19 102 26 140 7 39 18 85 26 104 8 18 23 68
33 110 54 221 248 633 430 911 51 79 216 284 300 374 47 50 238 210 321 268
36 26 115 76 175 112 106 64 108 66 70 65 -22 -1 -67 -5 -100 -9z"/>
<path d="M42455 6957 c-81 -170 -162 -250 -270 -270 -27 -5 -214 -12 -415 -17
-201 -5 -381 -11 -400 -15 -19 -3 -44 -8 -55 -10 -11 -2 -51 -30 -87 -62 -65
-57 -126 -138 -172 -232 -13 -25 -30 -59 -39 -76 -28 -51 -93 -207 -116 -278
-13 -37 -26 -65 -29 -63 -18 12 -104 219 -154 373 -16 50 -35 99 -42 108 -10
14 -30 7 -181 -64 -133 -63 -170 -84 -168 -98 3 -20 1249 -2673 1262 -2686 8
-8 146 28 316 83 50 16 160 45 245 64 85 20 192 46 236 60 45 13 107 27 138
31 31 4 56 11 56 15 0 4 -7 24 -16 45 -12 29 -19 35 -32 29 -61 -27 -322 -25
-417 2 -121 35 -257 124 -341 221 -51 60 -152 206 -164 238 -5 13 -143 304
-305 646 -207 433 -295 628 -291 643 5 18 52 71 114 127 28 25 92 47 172 60
58 9 131 9 328 -1 315 -16 402 -11 480 30 55 28 152 112 152 131 0 5 10 19 23
31 12 13 41 62 64 110 37 78 40 88 23 88 -10 0 -23 -6 -27 -13 -16 -27 -72
-57 -134 -73 -53 -14 -125 -17 -409 -19 -406 -3 -472 -10 -577 -66 l-73 -38
16 37 c40 98 126 202 215 262 110 75 97 73 479 80 334 6 347 7 405 30 77 30
161 87 208 139 73 81 131 235 143 384 l7 77 -69 -1 -69 0 -30 -62z"/>
<path d="M39925 6148 c-65 -20 -389 -111 -626 -177 -80 -22 -168 -43 -196 -47
l-50 -6 9 -37 10 -38 176 0 c181 1 179 1 309 -47 154 -57 339 -264 457 -511
21 -44 134 -282 251 -530 117 -247 229 -482 249 -522 41 -82 72 -160 123 -313
44 -132 55 -271 28 -362 -22 -78 -114 -190 -238 -292 l-96 -79 20 -39 c20 -40
28 -45 45 -28 11 11 146 70 244 106 36 14 91 36 122 50 32 14 93 35 135 48 43
13 112 37 153 53 41 17 105 38 143 49 37 10 67 24 67 30 0 13 -1258 2696
-1268 2705 -4 3 -34 -2 -67 -13z"/>
<path d="M31445 5393 c-16 -26 -76 -102 -132 -168 -57 -66 -115 -137 -129
-157 l-27 -38 172 -1197 c220 -1535 223 -1548 311 -1740 83 -178 267 -309 520
-369 97 -24 119 -25 290 -21 156 3 202 8 295 31 218 52 380 123 496 216 81 65
192 175 244 241 60 76 160 263 152 283 -3 6 -26 19 -53 29 l-49 18 -40 -48
c-139 -166 -268 -274 -421 -352 -56 -28 -106 -51 -113 -51 -6 0 -53 -13 -104
-30 -178 -57 -465 -59 -612 -3 -132 50 -189 100 -242 211 -36 77 -86 264 -104
386 -6 39 -61 420 -124 846 -63 426 -113 775 -112 776 1 1 164 16 362 33 538
47 614 60 735 121 61 31 194 171 279 295 26 39 69 100 94 136 26 37 47 70 47
74 0 4 -30 5 -67 1 -49 -5 -70 -12 -80 -26 -13 -19 -130 -116 -188 -157 -55
-38 -159 -73 -245 -84 -47 -5 -102 -14 -123 -20 -36 -9 -848 -92 -853 -86 -2
2 -134 881 -134 893 0 16 -20 -3 -45 -43z"/>
<path d="M36275 5310 c-22 -5 -67 -13 -100 -18 -168 -28 -435 -159 -555 -272
-20 -19 -48 -45 -61 -56 -74 -66 -156 -185 -219 -317 -94 -196 -125 -370 -117
-644 5 -167 20 -291 42 -333 7 -14 20 -59 30 -100 9 -41 29 -104 45 -140 15
-36 33 -81 40 -100 31 -83 170 -323 218 -374 16 -17 46 -55 66 -84 21 -29 54
-65 74 -80 20 -15 57 -47 82 -72 133 -129 353 -252 560 -313 193 -57 217 -60
428 -65 221 -4 296 3 522 48 237 48 323 77 520 175 179 89 190 96 275 170 165
144 299 304 353 423 9 20 24 46 33 57 32 39 124 354 137 468 7 67 6 77 -7 77
-44 -1 -195 -40 -202 -51 -5 -8 -18 -43 -30 -79 -26 -79 -109 -246 -141 -286
-13 -16 -37 -49 -53 -74 -46 -69 -233 -252 -310 -304 -39 -25 -85 -58 -104
-71 -19 -14 -42 -25 -51 -25 -9 0 -25 -9 -35 -20 -10 -11 -23 -20 -28 -20 -6
0 -60 -20 -121 -44 -61 -25 -124 -47 -141 -51 -16 -3 -64 -15 -105 -25 -198
-49 -422 -63 -555 -35 -38 8 -80 15 -92 15 -40 0 -187 52 -285 101 -223 110
-388 254 -496 430 -61 101 -126 240 -150 324 -25 86 -72 269 -69 271 1 1 497
102 1102 224 605 123 1102 224 1103 226 8 6 -125 266 -182 354 -94 147 -149
217 -254 323 -110 112 -195 171 -332 234 -52 24 -106 50 -120 58 -27 14 -138
44 -260 69 -80 17 -379 21 -455 6z m436 -284 c37 -8 106 -34 154 -59 146 -75
349 -290 416 -442 11 -26 19 -48 17 -50 -1 -1 -379 -79 -838 -172 -818 -166
-835 -170 -842 -149 -27 88 18 390 67 446 7 8 22 33 34 55 100 187 303 317
586 376 104 21 294 19 406 -5z"/>
<path d="M37425 5300 c4 -6 34 -24 68 -42 34 -17 80 -43 102 -58 61 -43 176
-147 215 -195 19 -24 61 -75 92 -113 76 -93 184 -292 255 -472 14 -36 29 -69
34 -74 7 -8 423 69 438 80 2 2 -6 15 -17 31 -11 15 -33 55 -50 89 -86 171
-299 421 -427 502 -27 17 -61 39 -74 49 -24 16 -69 39 -161 81 -82 38 -125 53
-180 67 -30 7 -89 22 -130 33 -97 25 -173 35 -165 22z"/>
<path d="M20752 5039 c-137 -11 -287 -56 -443 -135 -258 -129 -512 -384 -672
-674 -77 -140 -160 -416 -196 -648 -14 -94 -14 -349 0 -426 42 -221 59 -275
127 -417 38 -79 89 -168 113 -198 24 -30 55 -68 69 -86 43 -56 173 -161 278
-225 203 -122 476 -204 809 -241 170 -20 206 -20 374 -11 133 8 217 19 295 37
153 36 343 101 446 152 114 56 308 203 428 323 100 99 266 298 257 306 -3 3
-53 13 -112 21 l-107 16 -61 -60 c-86 -82 -184 -158 -302 -233 -91 -58 -138
-80 -320 -157 -86 -36 -261 -78 -413 -99 -118 -16 -150 -17 -295 -6 -89 7
-200 21 -247 32 -47 10 -114 26 -151 34 -74 17 -189 68 -293 128 -78 46 -230
168 -246 198 -6 10 -28 40 -51 66 -75 87 -169 302 -188 431 -20 135 -10 326
24 448 8 28 24 92 36 142 13 51 26 97 29 103 4 6 406 -52 1118 -161 612 -95
1116 -169 1120 -165 4 4 9 94 11 199 3 193 -12 357 -44 467 -25 84 -67 195
-85 220 -9 14 -29 49 -44 79 -36 72 -189 237 -279 300 -76 53 -225 134 -292
158 -22 8 -98 29 -170 48 -150 38 -326 50 -523 34z m458 -303 c203 -57 370
-172 436 -300 89 -170 114 -263 114 -416 0 -54 -4 -101 -9 -105 -8 -4 -1560
230 -1663 251 -16 3 -28 12 -28 20 0 20 53 126 84 166 14 19 26 39 26 43 0 5
15 23 33 40 17 18 42 43 54 56 46 50 152 137 193 157 14 6 32 16 40 21 45 26
85 43 127 57 118 38 157 43 328 40 147 -3 183 -7 265 -30z"/>
<path d="M19630 4817 c-59 -22 -288 -144 -321 -171 -17 -15 -52 -38 -77 -53
-71 -39 -216 -187 -279 -283 -61 -92 -153 -265 -153 -287 0 -7 -11 -39 -24
-71 -13 -31 -34 -115 -46 -187 -27 -155 -23 -333 10 -480 19 -85 77 -217 146
-332 33 -56 214 -237 307 -307 34 -26 40 -28 53 -14 13 13 13 21 -6 69 -113
285 -161 576 -130 779 6 36 15 108 21 160 15 142 114 503 150 546 5 6 21 40
34 75 49 124 153 281 291 440 69 79 90 109 81 118 -13 13 -13 13 -57 -2z"/>
<path d="M30581 4457 c-263 -264 -302 -307 -296 -327 6 -18 12 -21 38 -16 70
11 268 28 274 22 5 -4 222 -1436 249 -1641 9 -70 45 -218 72 -295 55 -160 97
-240 166 -316 119 -131 238 -178 471 -188 l139 -5 -66 34 c-187 96 -304 249
-348 458 -11 50 -26 114 -35 141 -8 27 -15 63 -15 79 0 22 -327 2259 -343
2345 -1 7 -139 -124 -306 -291z"/>
<path d="M22275 4619 c5 -8 27 -36 49 -64 61 -77 143 -261 172 -384 31 -133
42 -347 25 -476 -7 -49 -15 -120 -18 -156 l-6 -67 64 -10 c189 -32 360 -54
367 -47 4 4 7 68 6 143 -1 158 -26 333 -59 407 -12 28 -29 73 -39 100 -32 97
-166 277 -275 368 -72 60 -247 182 -280 195 -10 4 -12 1 -6 -9z"/>
<path d="M34884 4547 c-92 -99 -161 -200 -239 -353 -91 -176 -100 -222 -99
-469 2 -191 -1 -173 69 -410 32 -109 111 -268 174 -350 63 -82 196 -215 256
-256 28 -18 59 -41 70 -51 68 -58 491 -229 530 -214 27 10 16 34 -32 73 -138
111 -327 338 -432 516 -28 48 -51 90 -51 93 0 3 -14 33 -31 67 -29 57 -40 86
-83 207 -19 53 -68 243 -90 350 -47 223 -37 521 26 733 27 92 29 110 17 118
-22 13 -22 13 -85 -54z"/>
<path d="M24180 4547 l0 -42 58 -14 c31 -7 67 -19 79 -27 12 -8 47 -23 78 -35
31 -11 76 -36 100 -55 25 -19 49 -34 53 -34 10 -1 94 -105 111 -138 18 -33 61
-198 71 -272 15 -100 10 -352 -15 -831 -13 -261 -27 -530 -30 -599 -9 -179
-30 -319 -64 -419 -16 -47 -32 -98 -35 -114 -8 -35 -63 -96 -146 -161 -98 -78
-182 -121 -272 -140 -26 -6 -28 -10 -28 -53 l0 -46 73 6 c39 4 240 12 445 19
l372 12 0 35 c0 20 27 652 60 1406 33 753 60 1393 60 1421 l0 51 -171 7 c-95
4 -240 13 -323 21 -83 8 -185 15 -226 15 -41 0 -113 7 -160 15 -47 8 -86 15
-87 15 -2 0 -3 -19 -3 -43z"/>
<path d="M25697 4509 c-109 -4 -199 -8 -201 -10 -7 -8 -129 -2899 -123 -2906
8 -8 148 -18 432 -33 121 -6 272 -18 335 -26 63 -8 129 -14 148 -14 32 0 33 1
30 37 l-3 36 -95 31 c-94 31 -177 78 -246 138 -107 94 -202 322 -204 488 -1
30 16 441 37 914 l38 859 45 19 c41 18 83 32 315 103 44 14 141 38 215 55 74
17 155 35 180 42 25 6 128 13 230 16 262 5 375 -21 522 -121 51 -35 83 -81
122 -174 56 -134 58 -261 16 -1160 -34 -730 -42 -865 -69 -1113 -10 -96 -17
-177 -15 -178 1 -2 93 -1 203 3 l201 8 0 31 c0 17 18 445 40 951 43 988 48
1250 26 1415 -22 162 -56 232 -161 336 -54 53 -169 134 -191 134 -4 0 -15 6
-23 13 -19 17 -183 71 -278 93 -108 24 -441 30 -578 10 -156 -23 -257 -42
-312 -59 -27 -8 -86 -25 -133 -37 -117 -30 -194 -54 -267 -81 -34 -13 -65 -21
-68 -17 -4 3 2 51 13 105 11 54 20 98 19 98 -1 0 -91 -3 -200 -6z"/>
<path d="M27880 4396 c0 -3 26 -19 58 -35 75 -38 132 -89 186 -164 51 -73 70
-123 86 -232 6 -44 16 -111 22 -150 6 -40 8 -124 4 -195 -11 -212 -86 -2022
-86 -2066 l0 -41 72 -7 c39 -3 150 -11 245 -16 96 -6 236 -17 312 -25 76 -8
188 -18 250 -21 l111 -7 0 40 c0 40 -1 41 -47 52 -161 39 -268 95 -384 200
-47 43 -73 76 -92 118 -43 97 -67 226 -69 385 -3 146 23 834 43 1144 18 276
-10 522 -76 686 -14 35 -31 68 -38 73 -7 6 -23 24 -35 42 -27 38 -87 83 -157
118 -27 13 -61 31 -75 39 -42 25 -161 55 -247 62 -46 4 -83 4 -83 0z"/>
</g>
</svg>
