<!DOCTYPE svg PUBLIC "-//W3C//DTD SVG 20010904//EN" "http://www.w3.org/TR/2001/REC-SVG-20010904/DTD/svg10.dtd">
<svg version="1.0" xmlns="http://www.w3.org/2000/svg" width="1600px" height="640px" viewBox="0 0 16000 6400" preserveAspectRatio="xMidYMid meet">
<g id="layer101" fill="#040404" stroke="none">
 <path d="M0 3200 l0 -3200 8000 0 8000 0 0 3200 0 3200 -8000 0 -8000 0 0 -3200z"/>
 </g>
<g id="layer102" fill="#f8f9fa" stroke="none">
 <path d="M0 3200 l0 -3200 8000 0 8000 0 0 3200 0 3200 -8000 0 -8000 0 0 -3200z m10150 1971 c36 -12 71 -25 78 -29 14 -9 39 -148 29 -159 -4 -3 -33 19 -66 49 -71 64 -140 92 -226 92 -130 0 -209 -48 -268 -164 -48 -96 -63 -201 -47 -334 14 -120 51 -198 126 -264 62 -56 106 -72 190 -72 70 0 126 23 172 71 42 42 58 74 76 141 22 87 36 72 36 -40 0 -54 3 -119 6 -143 l6 -44 -79 -25 c-65 -21 -98 -25 -198 -25 -114 0 -123 1 -186 32 -109 53 -188 161 -218 302 -15 70 -13 242 3 316 37 170 141 284 287 315 66 14 205 4 279 -19z m694 -5 c24 -14 55 -41 70 -60 28 -38 65 -113 66 -133 0 -26 -36 -12 -54 20 -31 53 -68 88 -121 113 -61 29 -104 30 -154 4 -80 -40 -121 -120 -121 -234 l0 -56 180 0 181 0 -7 -37 c-29 -166 -103 -253 -214 -253 -75 0 -131 46 -177 145 -26 56 -28 69 -28 185 0 119 1 128 31 190 55 115 119 154 237 146 49 -4 81 -12 111 -30z m2167 3 c50 -28 113 -106 133 -166 14 -41 14 -43 -4 -43 -11 0 -27 12 -37 28 -45 73 -117 128 -182 138 -43 7 -110 -14 -145 -44 -35 -32 -67 -114 -73 -189 l-6 -73 183 0 183 0 -7 -51 c-10 -76 -57 -171 -100 -204 -43 -33 -115 -44 -170 -25 -81 26 -156 180 -156 319 0 117 59 262 123 304 66 43 186 46 258 6z m-1833 15 l52 -7 0 -317 0 -317 -46 -7 c-60 -8 -104 -8 -104 0 0 4 16 21 36 38 46 40 53 77 53 286 0 200 -7 242 -47 283 -49 50 -45 53 56 41z m252 1 c0 -3 -17 -22 -38 -43 -22 -22 -42 -53 -45 -72 -4 -18 -7 -121 -7 -229 l0 -197 47 -23 c26 -13 70 -25 99 -28 113 -12 128 31 123 363 -3 192 -2 233 9 229 8 -3 23 -5 34 -5 20 0 21 -3 16 -272 -5 -299 -8 -315 -67 -357 -36 -26 -126 -28 -186 -5 -77 29 -78 29 -70 4 6 -20 5 -22 -16 -17 -13 4 -30 7 -36 7 -10 0 -13 71 -13 319 l0 320 43 4 c74 6 107 7 107 2z m450 -4 c0 -5 -14 -14 -30 -21 -58 -24 -64 -51 -70 -295 -6 -230 -11 -257 -56 -296 -20 -17 -64 -32 -64 -21 0 3 10 16 22 29 30 32 36 93 37 370 l1 232 33 4 c63 8 127 7 127 -2z m458 -6 c64 -27 121 -97 107 -133 -5 -13 -11 -10 -31 16 -30 38 -92 72 -131 72 -15 0 -41 -11 -58 -24 l-30 -24 -3 -231 -3 -231 64 0 c87 0 119 -13 156 -65 35 -49 37 -55 16 -55 -8 0 -15 4 -15 9 0 21 -70 41 -144 41 l-75 0 -3 -101 -3 -101 -33 46 -33 46 3 323 c3 356 4 362 67 404 40 27 95 30 149 8z m1028 5 l34 0 0 -319 0 -318 -52 -7 c-112 -13 -134 -5 -74 28 56 30 60 49 64 276 4 236 -3 271 -58 308 -53 35 -51 46 5 39 26 -4 63 -7 81 -7z m254 3 c0 -5 -15 -15 -33 -23 -61 -28 -72 -71 -72 -269 0 -163 1 -174 20 -187 18 -12 28 -10 82 17 58 29 63 29 91 15 37 -19 50 -46 21 -46 -11 0 -47 -11 -80 -25 -33 -14 -64 -23 -69 -20 -24 15 -7 -15 17 -30 23 -15 31 -16 57 -6 17 7 48 17 68 23 46 13 75 -3 106 -57 19 -32 20 -36 6 -42 -10 -4 -20 1 -26 10 -20 37 -45 39 -108 11 -74 -33 -99 -28 -142 31 -18 24 -37 44 -42 45 -5 0 -6 -22 -3 -50 6 -53 4 -56 -40 -44 l-23 6 0 319 0 318 53 4 c103 7 117 7 117 0z m-10780 -13 c0 -5 24 -10 54 -10 64 0 59 8 110 -190 19 -74 50 -193 69 -265 20 -71 55 -207 80 -302 53 -202 65 -183 -116 -183 -107 0 -118 2 -115 18 3 14 17 17 95 20 l92 3 -32 49 c-18 26 -81 116 -142 200 -60 83 -138 190 -172 237 -37 51 -64 80 -67 72 -4 -12 -15 -114 -63 -547 -5 -43 -5 -43 -42 -40 -20 2 -35 8 -34 15 1 6 20 176 43 379 22 202 43 370 46 373 3 3 13 -3 21 -14 7 -11 60 -83 116 -160 57 -77 118 -162 137 -190 67 -98 142 -196 147 -192 2 3 -3 31 -12 63 -9 33 -34 124 -55 204 -21 80 -45 165 -52 190 l-14 45 -62 3 c-54 3 -62 6 -62 22 0 17 7 20 54 20 l55 0 -10 30 c-11 29 -11 29 -102 32 -74 2 -92 6 -92 18 0 12 17 16 75 20 l75 5 -29 23 c-25 19 -40 22 -127 22 -93 0 -118 7 -104 30 4 6 55 10 121 10 69 0 114 -4 114 -10z m2456 -27 c56 -25 118 -78 164 -139 22 -29 40 -56 40 -59 0 -20 -42 4 -100 58 -75 69 -136 97 -213 97 -99 0 -144 -56 -134 -164 3 -34 11 -76 17 -93 l12 -33 183 0 183 0 6 -31 c20 -102 -2 -193 -57 -233 -42 -31 -131 -28 -190 7 -130 76 -227 261 -227 432 0 79 19 127 62 159 52 37 170 37 254 -1z m2059 0 c22 -10 55 -29 73 -42 36 -25 132 -136 132 -152 0 -23 -37 -4 -85 45 -126 128 -294 145 -350 36 -20 -38 -19 -96 2 -165 l17 -55 182 0 181 0 7 -37 c21 -128 -7 -211 -80 -239 -88 -33 -193 14 -279 126 -55 71 -79 123 -101 216 -39 166 4 277 111 292 62 9 138 0 190 -25z m1320 27 c3 -5 -1 -20 -9 -32 -30 -42 -27 -56 90 -445 21 -67 41 -120 45 -117 5 2 18 -27 30 -66 13 -45 25 -68 31 -62 9 9 1 37 -104 377 -71 230 -76 267 -40 308 28 31 31 26 52 -102 5 -30 25 -105 44 -165 19 -61 45 -144 57 -183 l22 -73 78 0 c83 0 83 0 93 -42 l6 -28 -76 0 -76 0 8 -32 c3 -18 13 -37 20 -43 12 -9 44 -86 44 -105 0 -7 -99 19 -195 52 -37 12 -40 17 -60 82 -12 40 -30 76 -43 86 -27 22 -28 30 -2 30 11 0 20 5 20 11 0 6 -16 63 -37 127 -69 222 -88 309 -76 353 l10 39 -83 0 c-79 0 -103 8 -89 30 8 13 232 13 240 0z m3433 -30 c-23 -31 -23 -36 -28 -342 l-5 -310 -52 55 c-59 62 -64 77 -29 77 l25 0 3 238 c3 210 5 241 21 266 16 24 76 60 85 51 2 -2 -7 -18 -20 -35z m-10014 21 l100 -6 19 -65 c25 -87 207 -621 217 -640 11 -20 15 0 35 175 50 430 62 525 67 530 3 3 19 -11 35 -32 l30 -38 -18 -150 c-10 -82 -32 -271 -49 -420 -17 -148 -35 -273 -39 -277 -4 -5 -101 -9 -216 -10 -181 -3 -210 -1 -210 12 0 13 22 15 131 16 135 2 165 9 184 44 10 19 7 20 -100 20 -101 0 -111 2 -108 18 3 14 19 18 109 22 105 5 106 5 98 28 -7 20 -15 22 -74 22 -51 0 -65 3 -65 15 0 12 13 15 60 15 33 0 60 1 60 3 0 2 -38 113 -85 246 -47 134 -85 245 -85 247 0 2 -34 4 -76 4 -66 0 -75 2 -72 18 3 14 16 18 66 20 65 3 70 7 50 35 -11 13 -34 17 -128 19 -94 3 -115 6 -115 18 0 12 20 16 103 20 l103 5 -30 29 -31 30 -134 -3 c-130 -2 -157 3 -141 29 7 11 149 12 309 1z m1659 -34 c113 -73 180 -183 216 -355 30 -146 -7 -231 -111 -251 -171 -31 -328 108 -389 347 -36 143 -20 230 52 281 31 21 41 22 107 17 59 -5 82 -12 125 -39z m648 12 c19 -28 20 -35 10 -67 -7 -21 -30 -100 -51 -177 -21 -77 -53 -190 -70 -251 l-32 -112 -61 -4 c-34 -3 -66 -3 -70 -1 -5 3 9 20 31 38 46 40 63 88 185 528 12 42 25 77 29 77 4 0 17 -14 29 -31z m1230 21 l56 0 36 -117 c19 -65 54 -179 77 -253 22 -74 49 -163 60 -196 l18 -62 -72 -4 c-39 -3 -74 -3 -79 -1 -4 3 6 17 23 33 42 39 42 36 -33 285 -67 222 -89 263 -153 290 -38 16 -48 41 -11 31 12 -3 47 -6 78 -6z m450 0 l48 0 31 -102 c17 -57 49 -159 70 -228 21 -69 41 -136 45 -148 13 -43 7 -123 -10 -142 -9 -10 -34 -20 -56 -23 -46 -6 -153 14 -198 38 l-32 16 7 -26 c6 -24 5 -26 -22 -19 -16 4 -33 10 -38 15 -5 4 -26 65 -47 136 -34 116 -133 440 -144 471 -3 8 8 12 35 12 43 0 40 6 71 -125 15 -64 70 -250 100 -339 23 -67 25 -69 74 -87 60 -23 135 -34 168 -25 49 12 44 53 -40 314 -50 156 -83 214 -138 236 -45 19 -47 41 -4 32 17 -3 53 -6 80 -6z m1672 -14 c4 -6 16 -42 27 -81 11 -38 38 -126 60 -195 83 -266 102 -331 99 -334 -7 -6 -148 -13 -153 -8 -3 2 8 17 24 32 17 16 30 37 30 48 0 72 -119 448 -153 484 -12 12 -38 35 -57 50 l-35 27 75 -6 c41 -3 78 -11 83 -17z m-4659 6 c2 -4 12 -50 21 -102 22 -130 140 -582 183 -700 11 -30 23 -70 27 -87 7 -33 7 -33 -34 -33 -38 0 -41 2 -50 38 -5 20 -17 64 -26 97 -30 113 -96 360 -136 510 -21 83 -46 175 -54 205 -21 78 -21 80 24 80 22 0 42 -3 45 -8z m3175 -49 c18 -84 44 -180 89 -333 l40 -135 50 -23 c62 -28 136 -42 170 -33 60 16 54 56 -69 422 -27 81 -49 150 -49 153 0 4 16 6 36 4 l37 -3 32 -110 c41 -139 102 -341 115 -381 18 -54 12 -88 -20 -119 -26 -25 -37 -28 -89 -28 -61 1 -148 24 -189 51 -21 13 -24 13 -47 -12 -13 -14 -31 -26 -40 -26 -18 0 -18 2 -4 33 13 30 7 60 -51 247 -72 232 -100 325 -100 338 0 7 14 12 38 12 l39 0 12 -57z m458 -78 c18 -71 49 -181 68 -242 53 -170 50 -219 -15 -241 l-28 -10 13 31 c19 45 16 59 -83 382 -22 72 -45 143 -51 158 -19 50 -15 59 27 55 l37 -3 32 -130z m1162 98 c5 -21 12 -58 16 -83 4 -25 15 -70 25 -100 11 -30 35 -109 56 -175 20 -66 41 -125 48 -131 18 -18 136 -54 177 -54 21 0 45 7 53 16 31 30 21 78 -94 430 -22 67 -40 124 -40 128 0 3 15 6 33 6 37 0 32 12 113 -265 19 -66 39 -129 43 -140 37 -86 40 -164 7 -202 -23 -26 -29 -28 -103 -27 -57 0 -91 6 -126 22 -47 21 -48 21 -42 2 6 -17 2 -20 -29 -20 -34 0 -35 2 -51 58 -20 71 -85 283 -130 422 -18 58 -36 115 -40 128 -6 20 -3 22 34 22 38 0 41 -2 50 -37z m449 -15 c6 -29 14 -71 18 -93 3 -22 19 -80 35 -130 45 -134 71 -253 64 -286 -7 -29 -38 -59 -62 -59 -11 0 -10 6 1 28 17 32 13 52 -46 247 -77 258 -98 329 -98 337 0 4 17 8 38 8 39 0 39 0 50 -52z m-4928 -24 c-37 -97 32 -339 131 -456 22 -27 38 -48 34 -48 -3 0 -22 11 -43 24 -102 65 -178 196 -189 327 -6 69 7 109 50 157 26 28 29 28 17 -4z m7047 -1 c-54 -107 -54 -299 0 -450 10 -30 -57 38 -78 78 -40 80 -43 234 -4 308 15 30 74 91 87 91 5 0 2 -12 -5 -27z m2183 25 c0 -2 -10 -28 -21 -58 -30 -76 -38 -242 -15 -325 32 -122 32 -114 -3 -75 -54 61 -74 108 -79 192 -6 104 10 163 59 221 33 38 59 58 59 45z m-8685 -92 c80 -79 85 -87 109 -168 14 -46 26 -101 26 -121 0 -42 -27 -102 -59 -131 l-21 -19 11 32 c33 94 -41 342 -133 446 -67 76 -22 50 67 -39z m5647 42 c-99 -145 -111 -465 -24 -640 16 -32 25 -58 20 -58 -23 0 -95 90 -116 145 -48 129 -50 260 -5 405 32 100 93 177 151 189 2 1 -10 -18 -26 -41z m-4676 -14 c-13 -98 38 -269 114 -379 37 -54 38 -62 2 -36 -51 36 -109 102 -131 150 -12 25 -26 53 -31 63 -14 26 -23 113 -16 152 6 31 49 96 63 96 3 0 3 -21 -1 -46z m2066 -23 c-7 -113 29 -232 105 -346 18 -27 33 -54 33 -58 0 -10 -78 48 -103 77 -35 41 -85 142 -95 191 -10 46 -9 70 3 131 5 22 42 74 54 74 3 0 5 -31 3 -69z m-2367 -138 c182 -212 271 -304 319 -327 20 -9 36 -20 36 -24 0 -9 -280 -6 -281 3 0 3 11 15 25 26 15 11 26 31 26 43 0 42 -239 335 -253 311 -13 -24 -77 -268 -77 -296 0 -26 16 -45 66 -75 32 -20 10 -24 -82 -16 -71 6 -88 11 -85 22 3 15 53 191 112 398 17 61 34 112 38 111 3 0 74 -79 156 -176z m6379 -90 c-18 -84 -38 -126 -81 -168 -24 -25 -48 -45 -53 -45 -5 0 5 26 21 58 18 36 32 80 36 120 l6 62 39 0 c37 0 38 -1 32 -27z m2171 -5 c-18 -86 -32 -115 -78 -162 -26 -26 -50 -46 -52 -44 -2 2 7 26 21 54 13 27 27 74 30 104 8 78 9 80 49 80 36 0 36 -1 30 -32z m-7602 -25 c7 -66 -15 -142 -49 -170 -32 -25 -40 -24 -25 5 13 25 14 122 2 175 l-9 37 38 0 c37 0 37 0 43 -47z m2063 12 c13 -72 -14 -158 -59 -188 l-24 -15 12 46 c8 31 10 66 4 102 -13 91 -13 90 26 90 31 0 35 -3 41 -35z m874 -385 c0 -19 -7 -20 -120 -20 -113 0 -120 1 -120 20 0 19 7 20 120 20 113 0 120 -1 120 -20z m-290 -110 c0 -19 -7 -20 -189 -20 -129 0 -192 4 -197 11 -14 23 26 29 204 29 175 0 182 -1 182 -20z m480 -5 c0 -12 -20 -15 -120 -15 -100 0 -120 3 -120 15 0 13 20 15 120 15 100 0 120 -2 120 -15z m4757 -296 c69 -10 86 -16 109 -40 42 -43 28 -59 -53 -59 -175 -1 -283 -39 -283 -101 0 -17 4 -39 10 -49 9 -17 14 -17 62 -5 163 41 321 44 394 7 132 -67 110 -182 -46 -244 -46 -18 -75 -22 -180 -22 -151 -1 -223 14 -291 60 -46 31 -63 36 -151 45 -140 14 -222 -3 -260 -56 -15 -19 -8 -82 10 -97 23 -21 74 -35 150 -43 55 -6 61 -5 56 9 -4 10 1 25 12 37 23 26 72 20 152 -16 133 -61 175 -138 113 -207 -29 -32 -32 -33 -121 -37 -102 -3 -173 7 -296 44 -78 24 -174 76 -174 93 0 12 -167 45 -181 36 -18 -11 41 -62 132 -115 48 -27 91 -49 96 -49 29 0 62 -43 73 -94 15 -76 6 -104 -36 -112 -64 -12 -246 33 -402 100 -116 50 -115 44 3 -15 143 -71 162 -101 103 -154 -48 -43 -102 -40 -204 13 -44 23 -109 66 -145 94 -183 148 -336 101 -160 -49 85 -72 102 -98 94 -146 -5 -32 -3 -38 20 -46 46 -18 48 -98 3 -140 -70 -66 -352 -12 -571 109 -80 44 -104 67 -135 128 -50 96 -15 295 56 322 39 15 114 -9 199 -64 38 -25 71 -44 72 -42 2 1 -6 21 -17 44 -27 56 -26 119 2 149 42 45 167 22 290 -54 21 -13 40 -23 43 -23 3 0 5 27 5 59 0 106 47 118 175 46 44 -25 100 -54 125 -65 25 -11 53 -25 63 -30 32 -19 17 1 -40 53 -93 86 -117 165 -64 218 24 24 38 29 76 29 54 0 143 -21 209 -50 l45 -19 -6 62 c-10 111 30 193 105 218 48 17 159 14 250 -5 40 -9 75 -16 77 -16 2 0 -1 14 -7 31 -15 43 -4 133 21 168 63 89 206 119 418 90z m-5586 -121 c-63 -60 -85 -115 -86 -213 0 -44 4 -93 8 -110 l9 -30 -28 25 c-114 106 -66 316 81 355 28 8 52 14 55 14 2 1 -15 -18 -39 -41z m249 31 c30 -6 70 -25 96 -45 l45 -35 41 35 c39 34 105 56 163 56 34 0 32 -17 -2 -24 -71 -16 -223 -166 -425 -421 -73 -93 -136 -200 -144 -244 -9 -58 -10 -58 -22 -6 -13 60 -5 106 31 169 l25 44 -29 28 c-17 16 -41 52 -56 82 -23 46 -25 61 -20 118 11 115 92 222 182 243 56 12 58 12 115 0z m454 -53 c52 -22 53 -35 3 -34 -51 1 -101 -28 -163 -93 l-42 -44 70 -93 c44 -60 85 -103 113 -120 25 -15 45 -29 45 -32 0 -3 -65 -6 -145 -7 -83 -1 -145 3 -145 8 0 5 7 9 15 9 32 0 65 31 65 62 0 31 -30 97 -53 116 -13 11 -47 -23 -190 -194 l-27 -32 33 -22 c18 -13 50 -45 70 -73 45 -60 50 -119 16 -174 -50 -81 -192 -96 -265 -28 -30 28 -34 38 -34 82 0 69 40 143 151 281 110 137 301 337 343 360 33 18 86 40 99 41 4 1 23 -5 41 -13z m-6161 -187 c-66 -30 -165 -137 -219 -235 -61 -113 -84 -190 -84 -289 l0 -80 -20 31 c-77 119 -32 335 97 474 67 73 156 120 223 119 l45 -1 -42 -19z m403 -47 c79 -35 222 -137 259 -186 l26 -34 -19 -68 c-11 -38 -24 -69 -31 -69 -7 0 -22 25 -34 55 -29 71 -35 80 -77 126 -41 45 -115 94 -180 121 -72 29 -181 25 -251 -10 -141 -69 -258 -266 -259 -435 0 -107 22 -166 89 -233 78 -78 156 -113 246 -113 84 -1 125 17 200 86 29 27 56 45 59 40 4 -6 -103 -239 -119 -259 -4 -5 -182 45 -235 67 -125 50 -234 140 -281 232 -70 136 -58 291 35 461 76 140 176 224 299 252 75 17 191 3 273 -33z m555 -283 c-45 -20 -79 -76 -132 -222 -16 -45 -36 -95 -43 -112 -8 -16 -25 -61 -39 -100 -44 -123 -45 -125 -78 -113 -16 5 -29 15 -29 21 0 16 136 376 157 417 46 88 81 119 143 130 55 10 65 -1 21 -21z m178 -38 c23 -13 57 -59 48 -67 -3 -3 -19 2 -36 10 -42 22 -83 20 -116 -6 -33 -26 -65 -94 -151 -322 -35 -93 -66 -171 -68 -173 -3 -3 -66 17 -66 21 0 8 34 103 40 111 3 6 15 33 25 60 68 189 122 313 149 343 46 50 109 58 175 23z m171 -68 c39 -15 70 -33 70 -39 0 -13 -30 -113 -100 -329 -21 -66 -48 -153 -60 -193 -14 -47 -26 -72 -33 -69 -7 3 -48 13 -91 22 -71 16 -78 19 -61 31 10 8 28 14 40 14 57 0 91 59 157 279 54 179 58 218 24 258 -24 28 -34 53 -21 53 3 0 37 -12 75 -27z m298 -100 c2 -8 -6 -13 -23 -13 -85 0 -116 -55 -213 -392 l-20 -67 27 -24 c77 -70 146 -101 202 -90 23 4 35 17 59 67 29 61 140 406 140 438 0 24 14 29 49 17 36 -13 36 -13 15 -70 -8 -24 -37 -116 -64 -205 -83 -272 -110 -314 -208 -314 -53 0 -153 44 -205 90 -26 23 -37 28 -37 17 0 -24 -18 -30 -51 -17 -34 14 -32 11 -18 47 6 15 28 85 50 156 21 70 57 184 78 255 22 70 42 134 46 143 5 14 14 14 87 -5 45 -12 83 -27 86 -33z m405 -119 c81 -19 94 -35 36 -45 -48 -8 -77 -25 -93 -57 -17 -34 -58 -153 -87 -252 -26 -93 -62 -164 -91 -184 -13 -10 -43 -16 -73 -16 l-50 1 31 13 c43 19 67 57 99 156 15 47 35 110 45 140 10 30 32 104 51 163 18 62 37 106 43 104 6 -2 46 -12 89 -23z m6562 -90 c33 -9 65 -19 70 -24 6 -4 27 -13 48 -20 53 -17 204 -119 253 -171 150 -161 222 -323 240 -536 5 -62 11 -84 23 -89 78 -31 168 -56 226 -61 210 -17 357 97 331 258 -8 47 -53 150 -89 204 -29 42 -26 65 8 65 43 0 111 -117 141 -245 16 -68 16 -72 -6 -143 -43 -145 -150 -207 -355 -205 -91 1 -149 12 -267 50 -13 4 -20 -8 -34 -57 -47 -169 -196 -297 -419 -362 -68 -20 -103 -23 -235 -23 -131 0 -169 4 -244 24 -50 13 -97 27 -105 32 -9 5 -46 22 -83 38 -174 76 -327 230 -395 397 -24 59 -28 83 -28 164 0 87 3 100 30 149 90 162 288 205 517 110 191 -78 331 -190 396 -316 48 -94 57 -129 43 -181 -14 -52 -44 -88 -92 -112 -45 -24 -75 -25 -120 -6 -44 18 -70 47 -78 88 -12 52 5 86 47 99 68 20 121 -18 134 -96 3 -18 5 -17 22 8 29 43 24 95 -17 168 -60 106 -166 193 -329 268 -151 70 -283 79 -373 26 -149 -87 -125 -259 62 -455 173 -182 416 -304 643 -325 208 -18 445 92 520 241 20 41 54 155 47 159 -1 1 -27 15 -57 32 -159 86 -231 135 -501 344 -289 223 -406 279 -584 279 -62 0 -78 -4 -102 -23 -61 -51 -192 -137 -262 -173 -60 -30 -89 -38 -146 -42 -90 -6 -115 6 -115 52 0 26 7 39 34 59 70 54 223 118 376 158 54 14 108 37 150 64 116 73 259 130 375 149 55 8 239 -3 300 -20z m-5992 -46 c55 -17 75 -29 110 -68 43 -47 77 -126 77 -176 0 -41 -27 -27 -53 29 -13 28 -36 66 -50 83 -34 40 -115 82 -175 90 -166 21 -312 -239 -231 -412 33 -70 122 -124 204 -124 82 0 182 57 206 118 5 12 15 22 24 22 19 0 19 -1 -4 -85 -10 -39 -21 -82 -25 -97 -6 -27 -8 -28 -79 -28 -105 0 -190 17 -262 51 -110 52 -157 131 -158 264 -2 178 81 300 238 351 46 15 84 12 178 -18z m-365 -38 c-21 -23 -47 -58 -57 -79 -49 -96 -66 -254 -35 -331 9 -23 14 -43 11 -46 -8 -9 -73 79 -86 115 -19 56 -14 165 10 215 29 63 86 126 133 147 61 28 67 23 24 -21z m-1632 -150 c26 -38 55 -70 63 -70 9 0 51 9 94 19 42 10 77 16 77 13 0 -3 -25 -35 -56 -73 l-55 -67 49 -69 c26 -37 51 -74 55 -80 5 -7 -35 3 -88 22 l-95 34 -57 -70 c-31 -38 -59 -69 -61 -69 -2 0 -2 41 -1 92 l2 91 -74 29 c-41 16 -83 32 -94 37 -15 6 -1 12 60 26 120 26 115 21 115 126 0 50 4 88 9 85 5 -3 30 -37 57 -76z m2497 59 c-47 -30 -78 -105 -108 -259 -45 -239 -64 -333 -69 -337 -9 -9 -66 9 -66 20 1 7 7 41 14 77 8 36 28 137 46 224 17 88 40 177 51 198 23 44 99 98 138 98 26 0 26 -1 -6 -21z m158 -12 c13 -7 34 -19 47 -27 27 -18 31 -46 5 -35 -10 4 -35 9 -56 12 -33 5 -41 2 -70 -29 -37 -39 -59 -117 -105 -373 -26 -144 -28 -150 -52 -153 -49 -5 -50 3 -14 188 66 347 75 371 139 407 46 26 73 28 106 10z m207 -47 c62 -11 75 -18 66 -31 -3 -6 -24 -131 -46 -277 -22 -147 -42 -282 -45 -300 -6 -37 9 -35 -138 -16 -42 5 -65 24 -29 24 30 0 76 35 95 72 24 46 75 389 65 439 -3 19 -20 49 -36 66 -30 30 -30 47 -1 38 9 -2 40 -9 69 -15z m232 -37 c33 -3 60 -9 60 -13 0 -3 -18 -14 -40 -24 -66 -29 -73 -51 -126 -386 l-15 -94 23 -18 c46 -35 114 -62 165 -66 49 -4 55 -2 82 26 17 19 31 48 35 74 4 24 17 97 27 163 11 66 26 161 32 210 l12 91 37 -9 c32 -7 37 -13 34 -30 -15 -74 -29 -159 -46 -277 -35 -236 -48 -272 -107 -296 -67 -29 -167 -14 -255 38 -45 26 -48 26 -48 8 0 -22 -3 -23 -47 -14 l-29 6 17 111 c10 62 29 189 43 282 39 258 33 238 61 231 14 -4 52 -9 85 -13z m538 -80 c26 -6 30 -23 5 -23 -32 0 -84 -40 -99 -76 -8 -19 -23 -90 -34 -157 -38 -246 -51 -286 -102 -317 -18 -11 -46 -20 -63 -20 l-29 0 24 17 c14 9 28 22 33 27 19 28 48 158 72 326 14 102 28 198 31 214 l6 29 67 -7 c36 -4 76 -9 89 -13z m152 -19 c36 -4 64 -12 67 -20 6 -15 -44 -584 -53 -609 -6 -13 -15 -16 -43 -11 -20 3 -57 6 -83 6 -56 0 -62 14 -15 33 72 31 81 55 102 293 18 202 14 234 -31 274 -35 30 -46 57 -20 47 8 -3 42 -9 76 -13z m2628 0 c34 -10 26 -30 -12 -30 -66 0 -106 -46 -106 -122 0 -42 66 -457 74 -471 7 -11 -17 -21 -49 -21 -18 0 -24 7 -28 33 -2 17 -18 115 -36 216 -38 224 -40 310 -10 353 12 16 31 33 43 38 25 10 92 12 124 4z m-2367 -24 c48 0 50 -11 4 -33 -64 -31 -75 -66 -100 -326 -8 -86 -15 -159 -15 -162 0 -3 36 -23 80 -43 113 -51 175 -46 208 19 15 29 29 142 43 348 l13 179 34 -6 c19 -3 36 -6 37 -8 5 -5 -34 -430 -44 -492 -12 -66 -36 -100 -90 -122 -58 -24 -149 -11 -238 35 -43 21 -43 21 -43 1 0 -15 -7 -20 -27 -20 -16 0 -33 4 -40 8 -12 8 -12 6 32 452 8 85 15 161 15 169 0 11 10 12 46 7 26 -3 64 -6 85 -6z m2149 -15 c-42 -45 -40 -85 30 -479 12 -65 19 -125 16 -132 -3 -8 -19 -14 -35 -14 -26 0 -31 4 -36 33 -3 17 -14 86 -26 152 -54 319 -55 339 -17 403 22 35 54 62 77 62 10 0 8 -7 -9 -25z m-1612 -42 c2 -7 -4 -13 -14 -13 -9 0 -32 -11 -50 -25 -38 -29 -49 -63 -59 -170 -12 -135 -37 -300 -50 -326 -19 -37 -38 -49 -82 -55 -30 -4 -34 -3 -21 6 44 28 61 104 84 383 l18 218 85 -3 c56 -2 86 -7 89 -15z m1277 -3 c48 -23 63 -35 92 -77 30 -42 12 -53 -28 -18 -85 70 -203 72 -240 3 -12 -22 -6 -331 8 -419 l5 -37 98 5 98 6 46 -48 c66 -69 60 -88 -11 -39 -36 25 -42 26 -128 19 -49 -4 -93 -9 -97 -11 -4 -3 -5 -49 -1 -102 l6 -97 -41 45 c-33 37 -41 53 -42 85 0 22 -7 152 -15 290 -19 320 -13 354 67 394 54 27 129 27 183 1z m-848 -16 c28 -18 33 -18 33 2 0 11 8 14 33 12 l32 -3 -3 -245 c-2 -135 -8 -261 -13 -280 -4 -19 -22 -51 -38 -70 l-29 -35 -88 0 c-77 0 -97 4 -147 28 -65 32 -117 91 -98 110 12 12 14 12 74 -36 42 -34 139 -55 188 -41 51 15 71 51 77 138 l5 76 -62 0 c-77 0 -131 26 -167 79 -50 76 -45 165 14 231 52 59 128 73 189 34z m333 8 c0 -5 -18 -14 -40 -21 -63 -19 -67 -36 -78 -287 -5 -135 -13 -228 -21 -242 -14 -27 -47 -50 -91 -62 l-33 -10 27 29 c37 39 45 82 46 236 0 72 3 180 7 242 6 111 6 112 32 116 51 8 151 7 151 -1z m234 -23 l-29 -30 1 -142 c1 -78 7 -203 14 -277 7 -74 11 -150 9 -168 l-4 -33 -60 51 c-33 28 -61 55 -63 60 -2 6 9 10 25 10 l28 0 -9 128 c-15 234 -13 322 9 367 14 29 30 43 55 52 53 18 56 16 24 -18z m-827 -25 c-29 -41 -32 -52 -31 -113 1 -47 8 -79 23 -109 26 -51 12 -56 -42 -14 -45 34 -57 60 -57 125 0 56 15 86 59 122 62 50 87 45 48 -11z m-5304 -164 c24 -16 35 -30 31 -40 -5 -14 -59 -104 -171 -285 -29 -46 -53 -89 -53 -95 0 -5 -4 -10 -8 -10 -5 0 -14 -11 -20 -25 l-12 -25 -87 54 c-49 29 -103 61 -120 70 l-33 16 32 60 c17 33 34 60 38 60 4 0 7 -23 6 -52 l-1 -52 65 -43 c36 -24 71 -43 77 -43 7 0 20 15 29 32 10 18 41 70 71 116 58 91 112 193 119 225 2 11 -3 29 -11 41 -8 11 -15 24 -15 29 0 8 3 7 63 -33z m167 -102 c0 -5 -15 -8 -33 -8 -23 0 -41 -8 -59 -27 -26 -27 -221 -343 -216 -348 2 -2 30 -19 63 -39 71 -43 103 -45 138 -11 14 14 28 22 31 17 5 -8 -36 -96 -54 -115 -6 -7 -202 106 -234 134 -5 5 7 35 29 71 72 119 178 293 207 339 l29 47 49 -27 c27 -14 50 -29 50 -33z m213 -98 c5 -4 -3 -36 -17 -71 -13 -35 -54 -143 -90 -239 -99 -268 -91 -253 -129 -244 -69 15 -74 20 -35 33 40 13 60 49 123 227 19 54 39 108 45 119 36 72 52 176 30 190 -5 3 -10 10 -10 15 0 9 68 -15 83 -30z m2568 -56 c46 19 85 33 87 31 3 -3 -16 -39 -41 -80 l-47 -76 70 -69 c75 -76 74 -78 -30 -55 -98 22 -95 23 -142 -60 -24 -41 -46 -75 -49 -75 -4 0 -10 35 -14 78 -4 43 -11 85 -15 92 -5 8 -50 21 -102 30 l-93 17 78 36 c43 21 83 37 89 37 10 0 6 68 -9 160 l-5 35 70 -69 70 -68 83 36z m-2457 24 c18 -10 17 -12 -12 -23 -17 -8 -37 -24 -46 -37 -12 -19 -58 -136 -82 -209 -7 -21 88 -73 120 -65 32 8 50 39 90 153 52 149 47 141 75 124 12 -8 6 -31 -34 -138 -26 -70 -54 -138 -61 -149 -25 -42 -121 -38 -178 7 -15 12 -28 20 -30 18 -2 -2 -20 -51 -41 -109 -54 -153 -47 -141 -69 -125 -21 16 -23 6 94 320 23 61 54 143 68 183 27 71 27 72 57 66 17 -3 39 -11 49 -16z m230 -90 c52 -14 68 -28 34 -28 -45 0 -62 -24 -108 -153 -32 -86 -48 -109 -87 -121 -24 -8 -41 9 -18 17 19 8 55 83 96 200 18 53 35 97 37 97 3 0 23 -5 46 -12z m309 -59 c47 -13 99 -64 114 -112 14 -47 -3 -50 -32 -4 -50 78 -138 100 -198 47 -28 -24 -66 -104 -55 -115 2 -2 52 -10 111 -18 60 -8 111 -18 114 -20 11 -12 -52 -109 -81 -124 -46 -24 -120 -13 -148 22 -36 45 -46 83 -38 155 9 80 39 132 95 160 45 23 64 24 118 9z m5993 -54 c-3 -25 -8 -65 -11 -89 l-6 -44 73 -28 c114 -43 118 -48 45 -63 -138 -28 -137 -27 -138 -74 0 -23 -4 -64 -7 -92 l-7 -50 -48 78 c-27 42 -52 77 -56 77 -4 0 -46 -9 -94 -19 -48 -10 -87 -16 -87 -12 0 3 27 34 60 69 33 34 60 65 60 69 0 5 -21 39 -45 77 -25 38 -45 72 -45 76 0 4 39 -9 87 -28 l88 -35 60 66 c33 37 64 67 68 67 5 0 6 -20 3 -45z m-6195 7 c-29 -41 -44 -115 -38 -183 4 -52 3 -58 -10 -48 -63 53 -55 172 16 232 42 35 58 35 32 -1z m330 -182 c16 0 -29 -77 -57 -99 -40 -31 -60 -27 -30 6 14 15 28 41 32 58 9 41 14 47 31 41 8 -3 19 -6 24 -6z"/>
 <path d="M10540 4734 c0 -28 40 -98 66 -117 16 -12 42 -19 71 -19 57 0 85 25 113 100 l20 52 -135 0 c-118 0 -135 -2 -135 -16z"/>
 <path d="M12716 4728 c27 -90 66 -130 128 -130 68 0 114 43 129 120 l7 32 -136 0 -135 0 7 -22z"/>
 <path d="M5126 4713 c26 -42 76 -93 106 -109 40 -21 104 -18 127 5 21 21 35 75 29 108 -3 16 -16 18 -141 21 l-138 3 17 -28z"/>
 <path d="M7180 4732 c0 -5 15 -30 34 -56 40 -57 91 -86 150 -86 59 0 86 32 86 101 l0 49 -135 0 c-74 0 -135 -4 -135 -8z"/>
 <path d="M3552 5080 c-42 -39 -41 -110 3 -255 27 -90 77 -170 131 -211 46 -35 140 -46 179 -20 52 34 53 126 3 275 -36 111 -69 158 -137 203 -57 36 -144 40 -179 8z"/>
 <path d="M13165 3916 c-65 -30 -95 -64 -102 -114 -7 -49 27 -131 57 -139 12 -3 30 -23 41 -44 33 -66 154 -109 303 -109 119 0 250 47 262 94 15 60 -61 106 -174 106 -41 0 -72 -4 -72 -10 0 -5 13 -10 29 -10 58 0 141 -47 141 -80 0 -53 -141 -78 -255 -46 -66 19 -135 59 -135 79 0 7 -10 17 -22 22 -62 29 -83 131 -37 181 29 32 88 59 146 69 77 12 57 25 -39 25 -77 0 -102 -4 -143 -24z"/>
 <path d="M12702 3657 c-32 -18 -50 -48 -58 -94 -8 -49 12 -149 31 -157 8 -3 25 -27 39 -53 28 -57 68 -80 191 -113 85 -22 245 -37 288 -26 34 8 50 37 38 69 -10 25 -113 89 -163 102 -26 7 -27 6 -21 -28 4 -28 2 -35 -13 -39 -38 -9 -221 18 -254 38 -106 62 -99 187 13 246 36 19 58 22 156 23 l114 0 -94 22 c-104 25 -231 29 -267 10z"/>
 <path d="M13375 3625 c42 -19 126 -28 177 -20 l43 8 -30 13 c-18 8 -68 13 -125 13 -88 -1 -93 -2 -65 -14z"/>
 <path d="M12300 3435 c-17 -21 -3 -71 32 -110 16 -19 76 -69 134 -112 119 -88 128 -109 49 -106 -62 2 -185 50 -324 126 -57 31 -110 57 -118 57 -37 0 -26 -105 16 -153 15 -18 31 -44 35 -60 7 -31 69 -79 160 -127 64 -33 126 -39 146 -15 11 13 0 21 -76 57 -150 69 -213 123 -199 168 11 33 62 25 176 -29 141 -66 313 -120 388 -121 l34 0 -7 43 c-8 49 -18 59 -104 98 -77 35 -176 103 -197 135 -41 62 0 111 85 101 28 -3 50 -4 50 -2 0 2 -42 17 -94 34 -103 34 -167 39 -186 16z"/>
 <path d="M11708 3234 c-22 -22 9 -117 66 -201 52 -76 27 -97 -54 -44 -66 43 -75 48 -163 101 -87 51 -108 56 -129 33 -41 -48 -51 -178 -19 -249 23 -50 51 -71 184 -134 123 -59 242 -91 348 -93 80 -2 92 3 103 39 5 18 1 24 -26 35 -18 7 -40 12 -48 11 -8 -1 -64 8 -124 19 -283 53 -406 128 -406 249 0 45 26 63 77 56 23 -3 51 -10 60 -15 10 -5 47 -24 83 -41 70 -35 131 -78 253 -177 l77 -64 0 43 c0 40 -4 46 -85 122 -84 80 -85 82 -85 129 0 74 29 94 130 88 33 -2 34 -2 15 12 -73 53 -235 104 -257 81z"/>
 <path d="M11494 2980 c11 -60 72 -104 191 -138 77 -22 165 -42 165 -36 0 2 -33 28 -72 58 -75 56 -211 130 -262 142 -29 7 -29 6 -22 -26z"/>
 <path d="M8017 3816 c-48 -18 -61 -29 -91 -79 -48 -83 -44 -168 12 -235 l27 -32 45 57 c25 32 74 92 110 133 102 118 97 105 48 133 -56 33 -104 40 -151 23z"/>
 <path d="M8061 3304 c-11 -15 -33 -51 -47 -81 l-27 -54 20 -27 c41 -55 110 -54 143 1 11 17 20 43 20 56 0 31 -38 97 -66 116 -21 14 -24 13 -43 -11z"/>
 <path d="M10632 2845 c-34 -7 -97 -31 -140 -52 l-77 -38 65 -2 c170 -6 308 -47 432 -129 101 -66 153 -110 301 -252 113 -108 295 -257 305 -248 7 8 -28 147 -48 192 -81 178 -274 375 -460 469 -130 66 -261 87 -378 60z"/>
 <path d="M11130 2783 c1 -4 28 -28 61 -53 57 -43 183 -167 242 -240 33 -41 26 -26 -22 49 -35 57 -124 151 -175 186 -55 38 -106 66 -106 58z"/>
 <path d="M10780 2592 c74 -49 180 -124 235 -168 135 -106 266 -204 273 -204 10 0 -67 76 -184 184 -164 151 -322 251 -424 271 -27 5 -6 -12 100 -83z"/>
 <path d="M10126 2095 c9 -42 69 -150 112 -204 82 -100 228 -198 365 -245 111 -37 155 -42 72 -7 -223 93 -427 257 -515 413 -26 48 -38 63 -34 43z"/>
 <path d="M10810 1957 c0 -13 6 -31 13 -41 13 -17 15 -17 45 1 30 18 31 21 16 41 -10 14 -26 22 -45 22 -24 0 -29 -4 -29 -23z"/>
 <path d="M2980 2564 c0 -40 -1 -42 -37 -49 l-38 -7 38 -15 c33 -13 37 -19 37 -50 l0 -36 21 27 c21 26 27 27 77 8 8 -3 7 6 -5 26 -17 29 -17 31 0 50 24 27 21 31 -16 25 -30 -4 -36 -1 -55 28 l-22 34 0 -41z"/>
 <path d="M7903 2381 c-41 -25 -53 -49 -53 -103 1 -77 47 -125 130 -135 l50 -6 0 79 c0 43 3 95 6 114 5 30 2 37 -18 47 -45 23 -82 24 -115 4z"/>
 <path d="M5244 1897 c6 -33 4 -38 -19 -49 -33 -15 -32 -25 5 -33 25 -5 30 -11 30 -36 0 -36 16 -38 32 -3 11 23 16 25 47 19 l36 -7 -24 26 c-25 26 -25 27 -7 56 19 34 18 35 -19 18 -23 -10 -29 -8 -56 18 l-32 29 7 -38z"/>
 <path d="M3300 1611 c0 -7 7 -25 15 -41 23 -45 90 -56 128 -23 28 26 21 50 -15 56 -98 17 -128 19 -128 8z"/>
 <path d="M9375 1674 c-19 -25 -24 -26 -53 -16 -35 12 -40 6 -18 -24 13 -17 12 -22 -12 -48 l-27 -29 37 7 c32 6 39 4 54 -19 22 -34 32 -32 36 8 2 27 8 33 31 35 33 4 35 15 3 30 -19 8 -26 20 -28 47 l-3 37 -20 -28z"/>
 </g>

</svg>