<svg id="svg" version="1.1" width="3000" height="1200" xmlns="http://www.w3.org/2000/svg" xmlns:xlink="http://www.w3.org/1999/xlink" ><g id="svgg"><path id="path0" d="M234.087 35.942 C 233.202 37.392,232.852 37.861,232.687 37.815 C 231.729 37.546,228.222 36.800,228.169 36.853 C 228.132 36.890,228.832 37.709,229.724 38.673 C 231.256 40.329,231.336 40.443,231.159 40.713 C 230.343 41.963,228.934 44.312,228.976 44.353 C 229.004 44.382,229.891 44.068,230.947 43.655 C 232.003 43.242,232.989 42.857,233.139 42.799 C 233.371 42.710,233.652 42.956,235.001 44.429 C 235.875 45.383,236.614 46.093,236.643 46.006 C 236.672 45.919,236.593 44.887,236.469 43.714 C 236.344 42.540,236.263 41.564,236.288 41.545 C 236.313 41.526,237.293 41.130,238.467 40.667 C 239.640 40.203,240.625 39.803,240.656 39.778 C 240.781 39.676,240.497 39.593,238.463 39.135 C 237.292 38.871,236.240 38.627,236.126 38.593 C 235.963 38.545,235.882 38.150,235.750 36.766 C 235.545 34.602,235.457 33.999,235.350 34.004 C 235.304 34.006,234.736 34.878,234.087 35.942 M66.667 36.104 C 66.410 36.225,66.180 36.337,66.155 36.351 C 66.120 36.372,71.307 50.395,71.387 50.493 C 71.419 50.532,73.631 49.880,73.700 49.811 C 73.827 49.684,73.570 49.467,73.292 49.466 C 72.342 49.465,71.946 48.854,70.650 45.400 L 69.750 43.000 70.108 42.692 C 71.699 41.326,73.295 41.274,73.951 42.567 C 74.271 43.200,75.673 46.971,76.008 48.100 C 76.191 48.720,76.239 48.742,76.894 48.505 C 77.213 48.390,77.317 48.285,77.258 48.139 C 77.213 48.026,76.697 46.643,76.112 45.067 C 74.526 40.789,74.387 40.604,72.762 40.612 C 71.742 40.617,70.803 40.976,69.956 41.685 C 69.749 41.858,69.532 42.000,69.474 42.000 C 69.350 42.000,68.171 38.824,67.651 37.087 C 67.450 36.416,67.251 35.871,67.210 35.875 C 67.168 35.880,66.923 35.983,66.667 36.104 M64.070 37.024 C 63.028 37.353,62.857 37.733,63.753 37.733 C 64.693 37.733,64.976 38.269,67.202 44.261 C 69.322 49.967,69.433 50.509,68.620 51.183 C 68.397 51.369,68.317 51.732,68.500 51.734 C 68.716 51.737,70.805 50.749,70.770 50.661 C 70.750 50.609,69.566 47.440,68.140 43.617 C 66.216 38.463,65.493 36.670,65.340 36.678 C 65.226 36.684,64.655 36.840,64.070 37.024 M83.411 37.440 C 80.401 38.671,80.914 44.966,84.122 46.161 C 86.589 47.080,89.846 45.014,89.998 42.433 C 90.012 42.194,89.403 42.494,89.227 42.813 C 87.440 46.065,83.746 46.051,82.759 42.788 C 82.463 41.809,82.474 41.618,82.833 41.540 C 83.136 41.474,87.998 40.800,88.169 40.800 C 88.357 40.800,87.536 38.848,87.142 38.360 C 86.285 37.297,84.710 36.908,83.411 37.440 M87.333 37.519 C 87.333 37.548,87.506 37.757,87.717 37.983 C 88.169 38.466,88.608 39.354,88.738 40.044 C 88.852 40.653,88.917 40.694,89.595 40.585 C 90.206 40.488,90.211 40.435,89.713 39.375 C 89.275 38.443,87.333 36.929,87.333 37.519 M234.667 38.317 C 234.667 39.216,234.812 39.598,235.184 39.682 C 235.376 39.725,235.773 39.820,236.067 39.894 L 236.600 40.028 235.751 40.368 L 234.903 40.707 234.988 41.654 L 235.073 42.600 234.424 41.878 C 234.023 41.431,233.704 41.184,233.588 41.230 C 233.485 41.271,233.076 41.434,232.681 41.591 L 231.962 41.878 232.156 41.572 C 232.262 41.404,232.489 41.037,232.659 40.756 L 232.969 40.245 232.323 39.589 C 231.606 38.861,231.607 38.861,232.732 39.125 C 233.172 39.229,233.539 39.303,233.550 39.290 C 233.560 39.277,233.760 38.952,233.995 38.567 C 234.492 37.754,234.667 37.689,234.667 38.317 M85.490 38.291 C 85.868 38.432,86.484 39.223,86.557 39.661 C 86.596 39.897,86.452 39.943,85.000 40.150 C 84.120 40.276,83.205 40.410,82.967 40.448 C 81.765 40.638,83.036 38.412,84.283 38.143 C 84.743 38.043,84.865 38.058,85.490 38.291 M270.067 38.587 C 261.223 39.873,254.226 44.975,252.027 51.740 C 249.932 58.183,254.144 63.415,260.823 62.665 C 270.436 61.586,279.639 51.624,275.217 47.084 C 272.983 44.790,268.969 45.952,268.904 48.911 C 268.842 51.735,273.247 51.442,273.567 48.601 C 273.700 47.423,274.582 48.855,274.572 50.234 C 274.539 55.148,263.844 62.086,258.156 60.883 C 246.090 58.332,260.759 40.616,274.933 40.621 C 281.838 40.624,287.062 44.468,287.909 50.169 L 287.984 50.672 286.825 51.254 C 284.044 52.652,281.064 54.562,278.246 56.754 C 266.640 65.782,264.496 66.950,259.507 66.956 L 257.614 66.958 255.938 65.742 C 250.072 61.485,246.137 59.966,244.262 61.233 C 241.985 62.772,246.674 65.944,253.912 67.760 C 255.864 68.251,256.121 68.352,257.311 69.101 C 265.252 74.104,272.552 74.547,279.653 70.458 C 285.827 66.902,290.000 59.803,290.000 52.855 L 290.000 51.863 290.767 51.524 C 300.977 47.004,308.269 53.269,302.265 61.402 C 301.618 62.279,301.524 62.597,301.792 63.007 C 302.738 64.451,305.490 60.286,306.022 56.604 C 306.986 49.939,299.893 46.410,291.400 49.327 C 290.740 49.554,290.095 49.775,289.967 49.819 C 289.794 49.877,289.733 49.826,289.733 49.622 C 289.733 48.744,288.666 46.176,287.724 44.787 C 284.775 40.439,276.738 37.617,270.067 38.587 M80.427 39.433 C 78.935 41.318,79.498 44.453,81.520 45.521 C 82.189 45.875,82.215 45.756,81.669 44.840 C 80.761 43.315,80.453 41.407,80.867 39.867 C 81.173 38.725,81.069 38.622,80.427 39.433 M61.133 40.097 C 60.767 40.367,59.447 41.213,58.200 41.977 C 56.953 42.740,55.920 43.376,55.904 43.390 C 55.880 43.410,62.624 54.529,62.725 54.634 C 62.797 54.710,65.333 53.305,65.333 53.190 C 65.333 53.122,65.061 53.067,64.729 53.067 C 63.273 53.067,62.979 52.736,59.832 47.567 L 57.463 43.677 58.365 43.102 C 60.881 41.498,62.047 41.368,62.856 42.602 C 63.100 42.975,63.306 43.026,63.416 42.741 C 63.473 42.590,62.571 40.816,61.904 39.769 C 61.829 39.650,61.617 39.740,61.133 40.097 M130.879 39.748 C 130.845 39.850,130.720 40.713,130.601 41.667 C 130.482 42.620,130.352 43.589,130.313 43.821 L 130.242 44.242 127.954 44.670 C 126.696 44.906,125.619 45.142,125.562 45.195 C 125.504 45.247,126.404 45.700,127.562 46.201 C 128.719 46.702,129.712 47.149,129.767 47.196 C 129.821 47.242,129.743 48.169,129.593 49.255 C 129.205 52.055,129.130 52.012,131.047 50.088 L 132.694 48.435 134.832 49.355 C 136.008 49.861,136.997 50.247,137.031 50.214 C 137.064 50.180,136.573 49.267,135.940 48.184 L 134.788 46.216 136.488 44.512 C 137.422 43.576,138.155 42.777,138.116 42.738 C 138.077 42.699,136.980 42.882,135.678 43.144 C 134.375 43.406,133.296 43.601,133.279 43.577 C 133.262 43.553,132.749 42.663,132.139 41.600 C 130.852 39.358,130.956 39.511,130.879 39.748 M268.467 40.409 C 262.127 42.513,256.104 47.210,253.604 52.000 C 252.867 53.411,252.782 53.424,253.248 52.057 C 255.180 46.379,260.925 41.845,268.267 40.202 C 270.251 39.759,270.294 39.803,268.467 40.409 M74.233 40.092 C 73.847 40.154,73.720 40.400,74.073 40.400 C 74.942 40.400,75.274 40.956,76.750 44.893 C 77.377 46.563,77.914 47.968,77.943 48.016 C 78.025 48.148,80.311 47.401,80.370 47.223 C 80.401 47.132,80.285 47.067,80.093 47.067 C 78.991 47.067,78.460 46.389,77.466 43.711 C 76.218 40.352,75.764 39.843,74.233 40.092 M216.512 42.045 L 215.625 43.019 215.196 50.271 C 214.643 59.631,214.693 60.044,216.518 61.114 C 218.878 62.497,221.913 61.744,223.701 59.334 C 224.566 58.167,224.040 57.847,222.917 58.856 C 220.649 60.895,217.294 60.595,216.782 58.307 C 216.632 57.635,216.829 52.504,217.156 48.576 L 217.235 47.618 219.603 47.696 C 222.397 47.788,222.405 47.785,223.730 46.249 C 224.813 44.993,224.613 44.640,223.322 45.529 C 222.433 46.140,222.111 46.184,219.564 46.049 L 217.400 45.933 217.400 45.067 C 217.400 44.590,217.443 43.495,217.495 42.633 C 217.607 40.786,217.641 40.807,216.512 42.045 M132.478 44.754 C 132.665 45.056,132.645 45.056,134.133 44.723 C 134.422 44.659,134.379 44.738,133.813 45.316 L 133.159 45.984 133.641 46.792 C 133.905 47.236,134.098 47.600,134.070 47.600 C 134.041 47.600,133.650 47.441,133.201 47.246 L 132.385 46.892 131.711 47.546 L 131.038 48.200 131.130 47.295 L 131.222 46.390 130.387 46.029 L 129.551 45.668 130.475 45.465 L 131.400 45.262 131.519 44.292 L 131.638 43.321 131.970 43.894 C 132.152 44.209,132.381 44.596,132.478 44.754 M53.000 45.148 C 51.827 45.853,50.522 46.604,50.100 46.817 C 49.167 47.288,49.168 47.186,50.076 48.878 C 51.084 50.758,51.375 50.869,51.053 49.251 C 50.781 47.881,51.240 47.352,54.160 45.676 L 54.786 45.316 55.104 45.825 C 60.011 53.662,60.564 54.848,59.818 55.944 C 59.236 56.801,59.602 56.787,60.893 55.901 C 61.539 55.458,62.057 55.056,62.045 55.007 C 61.996 54.803,55.293 43.867,55.217 43.867 C 55.171 43.867,54.173 44.443,53.000 45.148 M212.543 45.571 C 210.734 47.109,210.719 47.137,211.613 47.243 C 211.993 47.288,212.314 47.342,212.328 47.363 C 212.341 47.383,212.241 49.200,212.104 51.400 C 211.634 58.992,211.881 60.311,213.905 60.987 C 214.919 61.326,215.027 61.269,214.493 60.678 C 213.480 59.558,213.433 58.726,213.922 50.651 C 214.305 44.338,214.308 44.265,214.167 44.271 C 214.112 44.273,213.381 44.858,212.543 45.571 M196.800 45.336 C 194.360 45.760,191.375 48.060,192.244 48.846 C 192.574 49.145,192.552 49.153,193.408 48.404 C 194.727 47.250,196.253 46.726,198.003 46.828 C 199.984 46.942,200.520 47.678,200.652 50.465 L 200.733 52.200 199.267 52.200 C 196.537 52.200,194.697 53.665,194.275 56.174 C 193.656 59.862,197.538 62.811,200.333 60.776 L 200.867 60.387 200.906 60.903 L 200.946 61.418 201.640 61.292 C 202.021 61.223,202.408 61.146,202.500 61.121 C 202.704 61.065,202.707 60.439,202.531 53.647 C 202.414 49.111,202.370 48.463,202.124 47.667 C 201.496 45.636,199.672 44.837,196.800 45.336 M202.646 46.246 C 203.671 47.245,203.739 47.819,203.946 57.215 L 204.029 61.030 205.035 61.115 C 207.127 61.292,208.400 61.229,208.400 60.948 C 208.400 60.754,208.269 60.677,207.829 60.611 C 205.948 60.329,205.628 59.158,205.605 52.467 C 205.592 48.646,205.266 47.223,204.227 46.449 C 203.774 46.111,202.476 45.600,202.071 45.600 C 202.022 45.600,202.281 45.891,202.646 46.246 M176.533 46.587 C 175.910 46.750,174.905 47.135,174.300 47.443 L 173.200 48.003 173.200 47.456 L 173.200 46.910 172.633 46.995 C 171.402 47.181,171.333 47.209,171.340 47.511 C 171.343 47.670,171.660 51.190,172.044 55.333 L 172.741 62.867 173.437 62.862 C 176.746 62.837,177.067 62.809,177.067 62.544 C 177.067 62.357,176.895 62.231,176.425 62.075 C 174.582 61.463,174.258 60.491,173.655 53.767 C 173.241 49.157,173.126 49.645,174.826 48.809 C 178.551 46.976,180.292 47.503,180.860 50.635 C 181.035 51.601,181.629 58.057,181.811 60.976 C 181.871 61.940,181.937 62.268,182.059 62.221 C 182.150 62.186,182.564 62.115,182.979 62.064 C 183.394 62.012,183.733 61.950,183.733 61.927 C 183.733 60.392,182.576 49.739,182.301 48.737 C 181.726 46.647,179.495 45.815,176.533 46.587 M182.533 46.814 C 183.301 47.396,183.674 48.160,183.926 49.667 C 184.097 50.690,185.067 60.730,185.067 61.477 C 185.067 61.739,188.452 61.877,189.300 61.649 C 189.794 61.517,189.676 61.111,189.114 61.005 C 187.092 60.626,186.635 59.542,186.126 53.933 C 185.568 47.776,185.068 46.676,182.719 46.439 L 181.933 46.359 182.533 46.814 M229.275 46.818 C 228.965 47.740,227.428 57.735,227.420 58.877 C 227.407 60.876,228.761 63.067,230.011 63.067 L 230.400 63.067 229.882 62.549 C 228.734 61.401,228.743 60.614,229.988 53.267 C 230.510 50.187,230.970 47.507,231.010 47.312 C 231.091 46.915,231.020 46.874,229.968 46.726 C 229.493 46.659,229.321 46.682,229.275 46.818 M231.364 52.956 C 230.062 60.721,230.076 61.570,231.535 62.878 C 232.361 63.619,234.002 63.827,235.200 63.343 C 236.072 62.991,236.159 62.453,235.322 62.586 C 233.416 62.891,231.999 61.318,232.211 59.133 C 232.280 58.434,233.897 48.541,234.067 47.781 C 234.142 47.445,234.033 47.390,233.054 47.268 L 232.333 47.178 231.364 52.956 M167.033 47.433 C 165.163 47.483,164.828 47.785,166.172 48.209 C 167.980 48.779,168.364 49.796,168.858 55.333 C 169.374 61.118,169.265 61.884,167.790 62.840 C 167.243 63.194,167.131 63.785,167.633 63.669 C 167.798 63.631,168.677 63.481,169.587 63.335 C 170.496 63.190,171.261 63.050,171.288 63.024 C 171.337 62.974,170.046 48.531,169.924 47.767 C 169.856 47.344,169.839 47.334,169.227 47.362 C 168.882 47.378,167.895 47.410,167.033 47.433 M271.792 48.000 C 272.497 48.000,272.442 48.875,271.704 49.392 C 270.528 50.216,269.663 49.005,270.617 47.870 L 270.957 47.466 271.297 47.733 C 271.483 47.880,271.706 48.000,271.792 48.000 M158.352 49.506 C 159.571 50.333,159.702 50.794,160.888 58.461 C 161.376 61.617,161.786 64.214,161.797 64.232 C 161.809 64.249,162.745 64.174,163.876 64.065 C 165.008 63.957,166.008 63.867,166.100 63.867 C 166.536 63.866,166.251 63.343,165.767 63.255 C 163.628 62.867,163.234 62.080,162.331 56.405 C 161.331 50.116,160.765 49.067,158.369 49.067 L 157.704 49.067 158.352 49.506 M152.393 49.576 C 151.766 49.772,150.764 50.218,150.166 50.567 C 148.856 51.330,148.933 51.325,148.933 50.652 C 148.933 50.263,148.884 50.124,148.763 50.170 C 148.670 50.206,148.247 50.307,147.824 50.395 C 147.209 50.523,147.068 50.599,147.119 50.777 C 147.154 50.900,147.703 54.390,148.339 58.533 C 148.976 62.677,149.513 66.085,149.533 66.107 C 149.572 66.150,152.685 65.890,153.442 65.782 C 154.080 65.690,153.953 65.323,153.209 65.107 C 151.232 64.535,150.913 63.782,149.942 57.400 C 149.607 55.200,149.306 53.280,149.272 53.133 C 149.225 52.925,149.382 52.755,149.978 52.369 C 153.149 50.316,155.378 50.127,156.329 51.830 C 156.808 52.687,157.913 58.880,158.404 63.466 C 158.486 64.235,158.566 64.877,158.581 64.892 C 158.611 64.922,160.309 64.512,160.377 64.459 C 160.558 64.315,158.513 52.304,158.137 51.303 C 157.415 49.382,155.167 48.706,152.393 49.576 M144.000 50.939 C 143.523 50.996,142.728 51.083,142.233 51.132 C 141.045 51.250,140.946 51.615,142.033 51.872 C 143.888 52.311,144.256 53.122,145.146 58.733 C 146.005 64.151,145.913 65.351,144.565 66.333 C 143.959 66.775,143.953 66.786,144.124 67.056 C 144.225 67.216,147.866 66.578,148.082 66.362 C 148.101 66.343,147.581 62.879,146.927 58.664 C 146.272 54.449,145.736 50.955,145.735 50.900 C 145.733 50.782,145.195 50.794,144.000 50.939 M134.875 52.817 C 134.586 52.884,134.328 52.961,134.302 52.987 C 134.127 53.162,136.634 65.057,137.051 66.029 C 137.985 68.209,140.581 68.753,142.537 67.181 C 143.422 66.470,143.278 65.919,142.333 66.400 C 141.131 67.013,139.674 66.627,138.964 65.507 C 138.414 64.640,138.169 63.667,137.067 58.000 C 136.547 55.323,136.090 53.028,136.052 52.900 C 135.975 52.644,135.695 52.624,134.875 52.817 M287.935 53.767 C 286.944 61.440,277.978 70.263,270.090 71.326 C 267.384 71.691,265.230 71.252,262.000 69.679 L 260.333 68.867 261.200 68.836 C 269.009 68.557,272.404 66.896,279.933 59.673 C 283.317 56.427,284.533 55.399,286.990 53.704 C 288.117 52.927,288.044 52.922,287.935 53.767 M132.000 53.364 C 131.597 53.436,131.250 53.510,131.229 53.530 C 131.166 53.588,133.192 63.723,133.480 64.795 C 134.120 67.171,136.070 69.005,137.637 68.705 C 138.046 68.627,138.132 68.400,137.753 68.400 C 137.289 68.400,136.469 67.659,136.041 66.854 C 135.488 65.814,135.360 65.288,134.077 58.808 C 133.476 55.770,132.927 53.272,132.858 53.258 C 132.790 53.245,132.403 53.292,132.000 53.364 M193.117 53.506 C 189.906 55.223,190.313 59.670,193.789 60.844 C 194.636 61.130,194.679 61.060,194.070 60.386 C 192.632 58.794,192.412 56.267,193.534 54.226 C 194.180 53.051,194.129 52.965,193.117 53.506 M200.750 53.652 C 200.759 53.660,200.796 54.910,200.832 56.431 L 200.898 59.194 200.426 59.473 C 197.075 61.450,194.381 56.534,197.557 54.236 C 198.308 53.693,200.376 53.314,200.750 53.652 M282.267 55.704 C 281.718 56.197,280.278 57.555,279.067 58.721 C 273.546 64.044,269.622 66.551,265.933 67.113 L 265.400 67.194 265.986 66.928 C 268.108 65.963,271.704 63.481,277.415 59.040 C 280.272 56.819,283.012 54.815,283.200 54.810 C 283.237 54.809,282.817 55.211,282.267 55.704 M121.867 55.472 C 115.457 56.574,112.883 60.772,114.962 66.733 C 117.551 74.160,128.067 73.708,129.404 66.112 C 129.666 64.624,129.668 64.645,129.233 64.749 C 128.690 64.879,128.592 64.995,128.260 65.904 C 126.846 69.775,122.319 71.567,119.265 69.465 C 116.777 67.754,115.389 62.979,116.622 60.376 C 118.653 56.089,124.769 55.884,127.097 60.025 C 127.305 60.396,127.470 60.533,127.706 60.533 C 128.122 60.533,128.054 59.925,127.408 57.865 C 127.166 57.095,126.926 56.218,126.875 55.918 L 126.783 55.372 125.692 55.287 C 124.137 55.166,123.454 55.199,121.867 55.472 M73.080 58.817 L 73.113 61.101 71.723 61.621 C 68.902 62.675,68.519 62.831,68.584 62.895 C 68.620 62.931,69.657 63.213,70.887 63.521 C 73.529 64.182,73.301 63.885,73.320 66.700 C 73.327 67.782,73.380 68.667,73.438 68.667 C 73.495 68.667,74.132 67.820,74.853 66.785 C 76.372 64.607,75.853 64.771,78.900 65.507 C 79.945 65.759,80.800 65.926,80.800 65.876 C 80.800 65.827,80.170 65.020,79.400 64.082 C 78.630 63.145,78.000 62.350,78.000 62.317 C 78.000 62.283,78.576 61.437,79.280 60.438 C 80.927 58.099,80.911 58.183,79.615 58.664 C 78.079 59.236,76.503 59.828,76.255 59.927 C 76.100 59.989,75.664 59.550,74.615 58.273 C 73.829 57.316,73.155 56.533,73.116 56.533 C 73.078 56.533,73.061 57.561,73.080 58.817 M112.949 59.804 C 110.233 62.708,110.704 67.605,113.959 70.297 C 114.582 70.812,116.667 71.771,116.667 71.542 C 116.667 71.520,116.262 71.089,115.767 70.584 C 113.182 67.946,112.137 62.649,113.619 59.700 C 114.118 58.706,113.952 58.732,112.949 59.804 M75.275 61.129 L 75.585 61.525 76.293 61.274 C 76.682 61.137,77.089 60.992,77.198 60.952 C 77.307 60.913,77.172 61.193,76.898 61.574 C 76.291 62.418,76.290 62.324,76.928 63.129 C 77.557 63.924,77.567 63.905,76.660 63.663 C 75.645 63.393,75.675 63.383,75.074 64.222 L 74.533 64.977 74.533 64.035 L 74.533 63.093 73.833 62.929 C 72.726 62.670,72.701 62.605,73.589 62.281 L 74.400 61.986 74.404 61.026 L 74.409 60.067 74.687 60.400 C 74.840 60.583,75.104 60.911,75.275 61.129 M286.632 61.167 C 285.104 64.622,281.739 67.989,277.873 69.930 C 276.621 70.559,276.067 70.706,277.101 70.135 C 279.870 68.607,283.875 64.902,285.859 62.033 C 286.765 60.722,286.891 60.581,286.632 61.167 M101.867 61.040 C 101.867 61.098,102.077 61.222,102.333 61.315 C 103.791 61.842,103.978 62.248,106.470 70.267 C 107.325 73.017,108.063 75.308,108.112 75.359 C 108.315 75.573,112.505 74.388,112.439 74.136 C 112.392 73.956,112.208 73.884,111.686 73.841 C 109.580 73.666,109.137 72.983,107.327 67.133 C 105.946 62.666,105.295 61.470,104.042 61.095 C 103.439 60.914,101.867 60.875,101.867 61.040 M98.333 61.650 C 97.190 61.942,95.641 62.749,94.611 63.591 C 93.496 64.502,93.467 64.515,93.465 64.100 C 93.460 63.458,93.293 63.399,92.413 63.729 C 91.966 63.896,91.600 64.091,91.600 64.163 C 91.600 64.288,96.123 78.919,96.209 79.074 C 96.232 79.115,97.049 78.950,98.025 78.708 C 99.001 78.466,99.935 78.237,100.100 78.198 C 100.697 78.059,100.466 77.645,99.742 77.559 C 97.690 77.316,97.286 76.645,95.269 70.137 L 94.010 66.073 94.305 65.751 C 96.573 63.272,99.671 62.433,100.833 63.983 C 101.508 64.883,103.381 70.410,104.602 75.107 C 104.807 75.891,105.014 76.533,105.064 76.533 C 105.288 76.533,106.732 75.870,106.716 75.774 C 106.615 75.139,103.203 64.500,102.868 63.775 C 102.010 61.919,100.343 61.138,98.333 61.650 M248.400 63.867 C 248.803 64.080,249.073 64.254,249.000 64.254 C 248.927 64.254,248.537 64.080,248.133 63.867 C 247.730 63.654,247.460 63.479,247.533 63.479 C 247.607 63.479,247.997 63.654,248.400 63.867 M88.067 65.011 C 87.113 65.260,86.228 65.464,86.100 65.465 C 85.972 65.466,85.868 65.512,85.869 65.567 C 85.875 65.857,86.166 66.028,86.813 66.118 C 88.726 66.385,89.166 67.104,90.928 72.851 C 92.529 78.073,92.572 78.646,91.465 79.903 C 90.960 80.477,90.812 80.846,91.033 80.976 C 91.181 81.063,94.715 79.656,94.770 79.489 C 94.881 79.156,90.222 64.533,90.009 64.546 C 89.894 64.553,89.020 64.762,88.067 65.011 M296.516 64.997 C 292.295 65.686,286.541 68.165,284.870 70.014 C 283.356 71.689,282.973 74.742,283.930 77.506 C 284.923 80.372,286.450 80.389,290.902 77.584 C 291.587 77.153,292.168 76.800,292.192 76.800 C 292.217 76.800,292.022 77.295,291.760 77.900 C 289.757 82.510,293.192 83.667,299.037 80.350 C 299.635 80.011,300.141 79.733,300.162 79.733 C 300.183 79.733,300.181 80.300,300.158 80.994 C 300.050 84.210,301.141 84.370,305.661 81.801 C 306.982 81.051,310.072 79.600,310.350 79.600 C 310.392 79.600,309.895 80.011,309.246 80.514 C 305.959 83.061,305.048 85.685,306.967 87.076 C 308.135 87.922,310.566 87.565,314.862 85.917 C 315.067 85.838,315.096 85.866,315.019 86.066 C 314.523 87.358,314.681 89.556,315.369 90.933 C 316.527 93.251,319.742 93.723,324.927 92.337 C 325.813 92.101,325.808 92.097,325.559 92.891 C 324.146 97.386,327.900 100.315,334.333 99.737 C 337.803 99.426,338.382 99.276,339.100 98.500 C 340.332 97.169,340.081 96.989,336.867 96.890 C 331.914 96.738,329.866 95.558,330.931 93.470 C 331.287 92.773,331.242 92.782,332.587 93.141 C 339.650 95.027,344.765 93.737,344.553 90.123 C 344.328 86.266,332.898 85.195,328.638 88.631 C 328.200 88.984,327.968 89.051,326.638 89.212 C 321.518 89.832,318.932 89.015,318.934 86.780 C 318.935 85.294,319.920 84.720,323.084 84.362 L 324.634 84.187 324.567 84.687 C 324.312 86.585,327.355 86.289,330.577 84.103 C 332.640 82.703,332.694 80.215,330.681 79.284 C 328.150 78.114,319.339 79.930,317.094 82.085 C 316.433 82.719,314.953 83.201,313.045 83.404 C 310.830 83.639,312.589 81.929,316.641 79.910 C 317.764 79.350,318.825 78.780,319.000 78.643 C 319.838 77.984,320.277 75.021,319.632 74.374 C 318.535 73.273,312.342 74.814,306.619 77.611 C 306.029 77.899,305.885 77.937,306.104 77.747 C 306.486 77.417,308.244 76.469,309.733 75.791 C 311.725 74.885,312.133 74.508,312.133 73.581 C 312.133 72.303,310.438 71.379,308.738 71.732 C 307.257 72.040,303.743 74.067,302.161 75.526 C 300.393 77.159,296.667 77.927,296.667 76.659 C 296.667 75.814,297.113 75.239,299.067 73.563 C 301.123 71.800,301.426 71.183,301.024 69.580 C 300.952 69.293,301.007 69.233,301.504 69.061 C 302.921 68.571,302.737 66.040,301.220 65.154 C 300.632 64.811,298.163 64.728,296.516 64.997 M65.933 66.056 C 56.088 68.352,51.806 75.097,55.232 82.914 C 58.894 91.270,65.805 93.436,73.145 88.529 C 74.722 87.474,76.242 86.185,77.061 85.207 L 77.578 84.589 77.035 82.794 C 76.335 80.482,76.175 80.406,75.622 82.122 C 73.818 87.724,66.795 90.856,62.136 88.135 C 56.121 84.622,54.246 75.279,58.773 71.373 C 62.749 67.942,66.644 67.914,69.924 71.293 C 70.518 71.904,70.814 72.120,70.975 72.058 C 71.295 71.935,71.299 71.947,70.230 69.843 C 69.696 68.793,69.024 67.408,68.735 66.767 C 68.395 66.008,68.139 65.604,68.006 65.610 C 67.893 65.616,66.960 65.817,65.933 66.056 M300.557 66.280 C 300.841 66.431,301.200 67.159,301.200 67.580 C 301.200 67.841,300.868 67.995,300.299 67.998 C 300.133 67.999,299.897 68.118,299.773 68.262 C 299.604 68.459,299.505 68.488,299.372 68.377 C 298.822 67.920,291.460 69.659,289.126 70.797 C 286.678 71.990,285.366 74.254,286.194 75.855 C 287.137 77.678,292.184 75.312,298.485 70.093 L 299.704 69.083 299.796 69.938 C 299.921 71.106,299.880 71.183,298.561 72.278 C 296.042 74.368,295.612 74.940,295.499 76.338 C 295.337 78.356,297.416 79.237,299.900 78.202 C 300.921 77.777,298.986 78.974,297.237 79.850 C 292.204 82.371,291.114 80.878,294.350 75.895 C 295.901 73.505,295.219 73.322,292.108 75.293 C 286.912 78.584,286.174 78.878,285.527 77.914 C 284.333 76.135,284.453 72.486,285.754 71.008 C 288.174 68.259,298.246 65.042,300.557 66.280 M79.696 68.303 C 79.111 68.519,78.946 68.637,79.009 68.794 C 79.055 68.907,79.984 71.329,81.075 74.175 C 83.377 80.181,83.696 80.875,84.493 81.610 C 85.988 82.988,88.135 82.881,89.472 81.363 C 90.286 80.438,90.149 79.859,89.260 80.463 C 87.608 81.584,86.032 81.088,85.034 79.133 C 84.810 78.693,83.744 76.026,82.666 73.207 C 81.588 70.387,80.652 68.066,80.586 68.049 C 80.520 68.032,80.120 68.147,79.696 68.303 M76.900 69.374 C 75.949 69.719,75.845 69.152,77.813 74.322 C 80.413 81.150,80.964 82.204,82.357 83.021 C 83.138 83.478,84.510 83.744,85.019 83.536 C 85.442 83.363,85.352 83.275,84.618 83.142 C 83.230 82.891,82.609 81.764,79.802 74.400 C 77.534 68.451,77.864 69.024,76.900 69.374 M296.000 70.416 C 292.965 73.048,287.579 75.862,287.244 74.990 C 286.620 73.363,289.683 71.488,294.933 70.284 C 296.463 69.933,296.544 69.943,296.000 70.416 M310.490 73.215 C 311.153 73.624,311.089 73.679,308.316 75.067 C 304.814 76.820,303.867 77.580,303.867 78.641 C 303.867 79.840,304.792 79.883,307.133 78.792 C 311.732 76.649,316.161 75.211,318.185 75.202 L 318.703 75.200 318.635 76.046 C 318.520 77.483,318.482 77.521,315.867 78.868 C 312.484 80.609,311.103 81.676,310.807 82.774 C 310.376 84.376,311.755 85.023,314.411 84.464 C 315.955 84.140,315.634 84.296,312.766 85.266 C 308.510 86.706,307.203 86.632,307.376 84.963 C 307.516 83.603,308.016 83.065,311.700 80.313 C 314.326 78.351,314.565 78.085,314.107 77.627 C 313.384 76.904,308.915 78.487,304.192 81.137 C 302.109 82.307,301.649 82.475,301.468 82.136 C 301.062 81.377,301.538 78.840,302.154 78.476 C 302.654 78.180,302.866 77.828,303.067 76.960 C 303.256 76.139,303.621 75.820,306.000 74.394 C 308.461 72.918,309.549 72.633,310.490 73.215 M201.133 76.114 C 198.694 76.562,197.771 78.894,199.015 81.467 C 200.561 84.664,208.166 93.523,210.764 95.153 C 212.441 96.205,213.645 96.342,214.967 95.631 C 215.887 95.136,215.759 94.819,214.728 95.038 C 213.602 95.277,212.227 94.587,210.447 92.889 L 209.298 91.793 210.767 89.725 C 212.373 87.463,213.568 86.233,214.403 85.983 C 214.759 85.877,214.933 85.748,214.933 85.591 C 214.933 85.377,214.751 85.359,212.767 85.378 C 211.575 85.390,209.985 85.352,209.233 85.294 C 207.957 85.195,207.867 85.204,207.867 85.433 C 207.867 85.612,208.033 85.723,208.480 85.842 C 210.199 86.302,210.293 87.559,208.778 89.811 L 208.232 90.623 207.740 90.078 C 207.062 89.327,204.166 85.936,203.558 85.182 L 203.060 84.564 203.835 83.982 C 208.452 80.515,206.596 75.110,201.133 76.114 M52.348 76.568 C 49.112 82.129,53.914 91.264,60.367 91.822 C 62.001 91.963,62.020 91.934,60.695 91.335 C 56.454 89.418,52.771 83.288,52.744 78.100 C 52.732 75.968,52.722 75.926,52.348 76.568 M203.065 77.847 C 204.779 78.767,204.296 81.981,202.281 83.059 C 201.831 83.300,200.163 80.836,199.940 79.600 C 199.681 78.162,201.622 77.073,203.065 77.847 M196.904 79.667 C 196.326 81.473,196.567 82.781,197.882 84.963 L 198.181 85.459 197.452 86.229 C 195.782 87.993,195.257 89.745,195.721 92.007 C 196.770 97.122,201.806 99.071,205.687 95.864 C 206.478 95.210,206.421 95.208,207.221 95.927 C 208.555 97.126,211.358 97.911,212.263 97.338 C 212.482 97.200,212.538 97.235,211.533 96.886 C 209.480 96.173,207.695 94.537,203.657 89.666 C 198.725 83.718,197.804 82.267,197.229 79.533 L 197.117 79.000 196.904 79.667 M329.676 80.283 C 332.354 80.957,330.164 83.774,326.228 84.719 L 325.856 84.808 326.061 84.411 C 326.870 82.846,325.891 82.623,321.303 83.327 C 318.288 83.791,316.804 86.056,317.992 88.384 C 318.842 90.050,320.335 90.602,323.973 90.595 C 325.389 90.592,326.435 90.631,326.298 90.681 C 324.018 91.524,319.578 92.073,318.223 91.679 C 316.362 91.138,315.597 89.222,316.201 86.617 C 316.477 85.425,316.501 85.379,316.983 85.095 C 317.369 84.867,317.803 84.074,318.180 82.907 C 318.590 81.636,327.224 79.665,329.676 80.283 M200.470 88.467 C 201.113 89.273,202.276 90.674,203.053 91.579 C 203.831 92.484,204.632 93.423,204.835 93.665 L 205.203 94.105 204.393 94.707 C 200.015 97.960,195.031 91.932,198.478 87.553 C 198.816 87.124,199.139 86.824,199.196 86.886 C 199.253 86.949,199.827 87.660,200.470 88.467 M194.223 88.403 C 191.302 91.652,192.860 96.536,197.073 97.334 C 198.005 97.511,198.012 97.462,197.150 96.789 C 194.883 95.019,193.950 91.837,194.753 88.619 C 195.006 87.608,194.956 87.587,194.223 88.403 M338.586 87.873 C 341.506 88.279,343.699 89.729,343.203 90.926 C 342.598 92.388,339.683 93.121,336.467 92.620 C 335.314 92.441,335.296 92.433,336.000 92.414 C 339.605 92.318,342.246 90.798,340.990 89.542 C 339.311 87.864,331.403 89.226,331.628 91.155 C 331.675 91.561,331.659 91.578,331.300 91.507 C 330.854 91.418,330.417 91.767,329.929 92.600 C 328.230 95.506,330.462 97.776,335.333 98.098 L 336.733 98.191 335.600 98.352 C 330.067 99.140,326.379 97.536,326.555 94.419 C 326.620 93.267,327.296 91.786,327.846 91.592 C 328.478 91.368,328.593 91.255,329.068 90.389 C 330.139 88.435,334.444 87.297,338.586 87.873 M339.535 90.233 C 340.343 90.685,335.881 91.316,334.333 90.968 L 333.800 90.849 334.210 90.633 C 335.269 90.076,338.782 89.812,339.535 90.233 M51.619 105.699 C 51.262 106.366,51.500 106.416,54.920 106.390 L 58.086 106.367 58.627 106.708 C 58.924 106.896,59.323 107.248,59.513 107.491 L 59.859 107.933 57.096 108.000 L 54.333 108.067 54.333 108.467 L 54.333 108.867 57.041 108.903 L 59.750 108.939 59.657 109.236 C 59.361 110.187,59.498 110.122,57.705 110.163 L 56.067 110.200 56.067 110.600 L 56.067 111.000 57.500 111.038 C 58.288 111.059,58.933 111.128,58.933 111.192 C 58.933 111.339,54.853 123.139,54.737 123.327 C 54.684 123.413,53.990 123.467,52.942 123.467 C 51.106 123.467,50.702 123.602,51.022 124.111 C 51.137 124.294,51.437 124.340,52.714 124.371 C 53.568 124.392,54.265 124.452,54.263 124.504 C 54.261 124.557,54.121 124.870,53.953 125.200 L 53.646 125.800 50.790 125.867 L 47.933 125.933 47.933 126.333 L 47.933 126.733 50.439 126.800 L 52.944 126.867 52.305 127.486 C 51.530 128.237,50.834 128.620,50.625 128.411 C 50.530 128.316,49.488 128.267,47.582 128.267 C 44.469 128.267,44.348 128.296,44.611 128.981 C 44.715 129.252,48.625 129.273,52.450 129.023 L 54.833 128.867 55.219 127.817 C 55.431 127.239,55.719 126.249,55.858 125.617 C 56.122 124.420,56.671 122.754,59.215 115.433 C 60.077 112.955,60.803 111.067,60.894 111.067 C 61.107 111.067,61.058 110.712,62.199 120.521 C 62.748 125.244,63.222 129.133,63.252 129.163 C 63.283 129.194,63.666 128.747,64.105 128.171 L 64.902 127.124 63.656 116.545 C 62.971 110.727,62.393 105.954,62.372 105.938 C 61.902 105.597,51.794 105.372,51.619 105.699 M73.118 105.659 C 72.875 106.292,72.994 106.329,75.506 106.400 L 77.876 106.467 72.708 113.626 C 69.866 117.563,67.517 120.762,67.489 120.734 C 67.438 120.682,65.743 106.530,65.737 106.100 C 65.734 105.900,65.598 105.867,64.788 105.867 L 63.843 105.867 63.920 106.367 C 63.962 106.642,64.449 110.857,65.003 115.733 C 66.169 126.006,66.068 125.330,66.389 124.988 C 66.520 124.848,68.852 121.643,71.571 117.867 C 77.558 109.548,76.953 110.350,76.801 110.933 C 76.488 112.137,73.699 122.548,73.525 123.162 L 73.328 123.858 71.764 123.896 L 70.200 123.933 70.200 124.333 L 70.200 124.733 71.567 124.771 C 72.318 124.792,72.933 124.841,72.933 124.880 C 72.933 124.919,72.807 125.245,72.652 125.605 L 72.370 126.260 70.152 126.297 L 67.933 126.333 67.933 126.733 L 67.933 127.133 69.775 127.200 L 71.616 127.267 71.175 127.684 C 70.388 128.428,70.247 128.462,67.614 128.533 C 64.999 128.604,64.609 128.715,65.057 129.255 C 65.326 129.580,70.861 129.572,71.043 129.247 C 71.140 129.074,71.446 129.014,72.502 128.963 L 73.838 128.899 74.324 127.083 C 74.591 126.084,75.970 120.917,77.388 115.600 L 79.966 105.933 79.616 105.888 C 79.424 105.864,79.219 105.759,79.160 105.655 C 79.000 105.373,73.226 105.377,73.118 105.659 M247.600 105.603 C 242.291 106.339,239.288 110.751,239.298 117.800 C 239.313 127.919,245.496 132.351,254.809 128.917 L 255.951 128.496 256.244 126.681 C 256.655 124.130,256.553 123.951,255.428 125.254 C 252.406 128.755,246.495 129.118,243.671 125.976 C 241.916 124.025,241.132 121.460,241.149 117.733 C 241.178 111.440,243.842 107.663,248.533 107.264 C 252.192 106.953,254.514 108.978,255.605 113.433 C 255.685 113.762,255.822 114.000,255.929 114.000 C 256.176 114.000,256.243 113.264,256.316 109.707 L 256.376 106.813 255.022 106.399 C 254.276 106.171,253.487 105.932,253.267 105.868 C 252.145 105.539,249.091 105.397,247.600 105.603 M81.105 106.367 C 81.035 106.642,79.667 111.801,78.066 117.832 C 76.464 123.863,75.179 128.820,75.210 128.849 C 75.241 128.877,75.727 128.928,76.289 128.962 L 77.311 129.025 77.578 127.946 C 77.725 127.352,77.886 126.447,77.935 125.933 C 78.120 124.018,81.366 111.597,82.206 109.591 C 82.488 108.915,83.200 106.352,83.200 106.009 C 83.200 105.921,82.825 105.867,82.216 105.867 L 81.232 105.867 81.105 106.367 M196.016 106.570 C 195.238 107.348,195.894 107.467,200.991 107.467 L 205.600 107.467 205.600 107.062 C 205.600 106.840,205.525 106.635,205.433 106.607 C 204.975 106.464,196.156 106.430,196.016 106.570 M211.540 106.645 C 211.325 107.323,211.407 107.341,214.582 107.303 L 217.533 107.267 217.533 106.867 L 217.533 106.467 214.576 106.431 C 211.784 106.397,211.615 106.409,211.540 106.645 M223.467 109.183 C 221.887 109.675,221.936 109.644,221.749 110.267 C 221.657 110.575,221.549 110.912,221.510 111.014 C 221.466 111.129,221.526 111.200,221.667 111.200 C 221.804 111.200,221.868 111.272,221.826 111.380 C 221.194 113.026,217.632 125.044,217.461 126.106 C 217.263 127.339,218.024 129.255,218.505 128.733 C 218.672 128.552,219.152 126.671,219.311 125.574 C 219.382 125.083,220.091 122.550,220.887 119.945 L 222.333 115.209 224.315 115.171 L 226.297 115.133 226.534 114.367 L 226.771 113.600 224.804 113.600 L 222.837 113.600 223.107 112.685 C 223.314 111.982,223.426 111.783,223.591 111.826 C 223.758 111.869,223.903 111.583,224.254 110.507 C 224.501 109.752,224.731 109.058,224.766 108.967 C 224.845 108.756,224.830 108.759,223.467 109.183 M303.833 109.773 L 303.067 110.792 303.069 118.429 C 303.072 127.926,303.111 128.190,304.688 129.210 C 306.704 130.515,309.611 129.523,310.940 127.076 C 311.705 125.669,311.276 125.525,310.031 126.773 C 308.221 128.587,305.892 128.627,305.000 126.861 C 304.749 126.364,304.731 126.020,304.691 120.912 L 304.648 115.491 306.624 115.444 C 308.187 115.406,308.690 115.347,309.031 115.162 C 309.453 114.934,310.921 113.030,310.929 112.700 C 310.937 112.403,310.308 112.517,310.089 112.851 C 309.635 113.544,308.907 113.733,306.694 113.733 L 304.673 113.733 304.636 111.244 L 304.600 108.754 303.833 109.773 M239.245 109.582 C 234.699 113.214,235.149 124.337,239.957 127.154 C 240.748 127.618,240.752 127.556,240.016 126.397 C 239.032 124.847,238.543 123.365,238.069 120.493 C 237.554 117.374,238.277 112.650,239.678 109.967 C 240.218 108.932,240.143 108.865,239.245 109.582 M206.740 109.579 C 206.525 110.257,206.607 110.274,209.782 110.236 L 212.733 110.200 212.733 109.800 L 212.733 109.400 209.776 109.364 C 206.984 109.330,206.815 109.342,206.740 109.579 M220.200 110.128 L 219.000 110.493 218.504 111.880 C 218.232 112.643,218.029 113.404,218.053 113.571 C 218.087 113.803,217.945 113.993,217.456 114.371 C 216.572 115.054,216.539 115.200,217.271 115.200 C 218.019 115.200,218.082 114.789,216.603 119.576 C 214.642 125.925,214.408 127.357,215.194 128.194 L 215.513 128.533 213.306 128.533 C 210.945 128.533,210.549 128.639,210.889 129.178 C 211.013 129.374,211.368 129.400,213.933 129.400 C 217.297 129.400,217.457 129.347,216.698 128.482 C 215.862 127.529,215.922 127.087,217.671 121.400 C 219.870 114.247,219.861 114.273,220.039 114.341 C 220.151 114.384,220.435 113.708,220.921 112.236 C 221.315 111.043,221.666 109.992,221.700 109.900 C 221.784 109.675,221.600 109.703,220.200 110.128 M300.484 113.692 C 299.013 115.325,298.957 115.467,299.790 115.467 L 300.379 115.467 300.433 120.967 C 300.502 128.040,300.672 128.696,302.586 129.257 C 303.441 129.508,303.476 129.457,302.894 128.813 C 302.069 127.900,302.079 127.999,302.033 119.767 C 302.010 115.642,301.941 112.267,301.880 112.267 C 301.819 112.267,301.190 112.908,300.484 113.692 M94.399 112.930 C 90.768 113.399,87.997 116.682,86.579 122.196 C 85.322 127.084,87.304 129.921,91.416 129.124 C 95.256 128.380,98.130 124.772,99.267 119.267 C 100.181 114.845,98.321 112.424,94.399 112.930 M153.397 112.932 C 152.460 113.069,151.283 113.426,150.308 113.869 L 149.477 114.245 149.689 113.717 C 149.805 113.427,149.874 113.163,149.842 113.131 C 149.737 113.026,148.404 113.234,148.212 113.385 C 148.063 113.503,146.510 118.430,143.386 128.700 C 143.323 128.908,143.424 128.933,144.305 128.933 L 145.294 128.933 145.581 127.967 C 145.739 127.435,145.867 126.869,145.867 126.708 C 145.866 126.078,148.359 117.392,148.928 116.047 C 149.195 115.414,152.979 114.267,154.172 114.457 C 155.826 114.721,155.822 115.151,154.113 120.733 C 152.256 126.799,151.804 127.652,150.046 128.397 C 149.032 128.827,148.952 129.266,149.908 129.154 C 150.289 129.109,151.200 129.033,151.933 128.985 L 153.267 128.897 155.046 123.069 C 157.267 115.794,157.433 114.916,156.813 113.758 C 156.550 113.266,155.033 112.720,154.200 112.818 C 154.127 112.826,153.765 112.878,153.397 112.932 M164.321 112.934 C 163.302 113.074,161.623 113.631,160.676 114.143 C 159.801 114.615,159.813 114.615,159.624 114.200 C 159.444 113.805,158.724 113.335,158.300 113.334 C 157.944 113.333,157.948 113.310,158.200 113.913 C 158.625 114.929,158.597 115.053,156.203 122.839 C 155.193 126.124,154.389 128.832,154.417 128.858 C 154.444 128.884,154.883 128.926,155.393 128.952 L 156.319 129.000 156.625 128.000 C 156.794 127.450,156.932 126.820,156.933 126.600 C 156.934 126.060,157.366 124.488,158.707 120.133 C 159.329 118.117,159.873 116.317,159.918 116.133 C 159.978 115.881,160.201 115.710,160.832 115.432 C 164.883 113.648,166.923 114.096,166.330 116.638 C 165.881 118.561,163.338 126.465,162.551 128.384 L 162.257 129.102 163.228 129.006 C 163.763 128.954,164.217 128.894,164.238 128.872 C 164.311 128.801,167.829 117.269,168.000 116.544 C 168.646 113.806,167.333 112.517,164.321 112.934 M204.850 113.074 C 204.401 113.132,203.501 113.366,202.850 113.594 C 202.199 113.822,201.562 114.043,201.434 114.086 C 201.215 114.159,201.214 114.133,201.410 113.663 L 201.620 113.161 200.714 113.254 C 200.216 113.305,199.799 113.359,199.788 113.373 C 199.713 113.469,195.053 128.830,195.089 128.865 C 195.113 128.888,195.548 128.928,196.055 128.954 L 196.977 129.000 197.280 127.867 C 197.446 127.243,197.649 126.283,197.731 125.733 C 197.814 125.183,198.493 122.753,199.242 120.333 L 200.604 115.933 201.202 115.637 C 205.673 113.420,207.711 114.280,206.648 117.933 C 206.001 120.158,204.213 125.891,203.728 127.297 C 203.438 128.140,203.200 128.891,203.200 128.965 C 203.200 129.079,204.777 129.001,204.896 128.881 C 204.951 128.827,207.862 119.333,208.294 117.800 C 209.113 114.896,208.664 113.479,206.797 113.079 C 206.056 112.919,206.033 112.919,204.850 113.074 M103.104 113.295 C 103.057 113.417,103.087 113.540,103.170 113.568 C 104.705 114.080,104.950 114.647,107.548 123.700 C 108.483 126.958,109.191 129.200,109.284 129.200 C 109.371 129.200,109.691 128.902,109.996 128.539 L 110.549 127.877 108.508 120.648 C 106.575 113.801,106.449 113.414,106.133 113.331 C 105.232 113.093,103.191 113.069,103.104 113.295 M109.566 113.199 C 108.704 113.249,107.959 113.330,107.910 113.379 C 107.840 113.448,109.747 120.245,111.425 125.909 C 111.674 126.747,111.293 127.099,115.802 121.867 C 121.459 115.303,122.166 114.586,123.686 113.867 C 124.901 113.293,124.856 113.009,123.567 113.115 C 120.933 113.334,120.103 113.349,118.881 113.203 C 117.797 113.072,117.543 113.076,117.450 113.222 C 117.280 113.490,117.294 113.510,117.873 113.841 C 119.064 114.521,119.018 115.407,117.700 117.156 C 116.937 118.168,112.700 123.113,112.547 123.170 C 112.456 123.203,110.828 117.596,110.542 116.266 C 110.290 115.088,110.621 114.401,111.699 113.868 C 113.266 113.094,112.971 113.002,109.566 113.199 M131.766 113.199 C 126.942 114.222,122.728 123.178,125.038 127.501 C 126.469 130.179,131.379 129.953,134.660 127.057 C 135.541 126.279,137.467 123.965,137.467 123.685 C 137.467 123.216,136.435 123.669,135.715 124.455 C 130.371 130.287,124.258 127.631,126.921 120.633 L 127.060 120.267 131.588 120.267 C 135.783 120.267,136.121 120.250,136.189 120.033 C 137.521 115.810,135.342 112.442,131.766 113.199 M143.155 113.156 C 142.967 113.344,143.084 113.549,143.509 113.778 C 144.794 114.469,144.740 115.209,142.988 120.931 C 141.183 126.826,140.801 127.553,139.100 128.331 C 138.484 128.614,138.123 128.968,138.287 129.131 C 138.316 129.161,139.207 129.113,140.267 129.026 L 142.194 128.867 144.562 121.133 C 145.864 116.880,146.930 113.389,146.931 113.376 C 146.940 113.266,143.259 113.052,143.155 113.156 M183.333 113.213 C 177.825 114.284,173.512 125.627,177.495 128.569 C 180.243 130.599,185.232 128.899,188.162 124.933 L 189.098 123.667 188.587 123.624 C 188.106 123.583,188.024 123.636,187.204 124.512 C 182.020 130.060,176.257 127.942,178.283 121.233 L 178.575 120.267 183.138 120.267 L 187.702 120.267 187.791 119.967 C 188.037 119.138,188.039 116.256,187.794 115.447 C 187.233 113.594,185.594 112.773,183.333 113.213 M194.608 113.294 C 194.559 113.423,194.579 113.548,194.653 113.573 C 196.450 114.172,196.426 115.039,194.437 121.467 C 192.830 126.662,192.242 127.756,190.679 128.461 C 190.207 128.674,189.900 129.012,190.046 129.157 C 190.092 129.203,193.785 128.936,193.809 128.886 C 193.821 128.860,198.399 113.857,198.480 113.577 C 198.551 113.331,198.256 113.280,195.916 113.135 C 194.835 113.068,194.688 113.086,194.608 113.294 M266.067 113.316 C 262.411 113.958,260.350 120.084,262.023 125.333 C 264.109 131.877,271.985 131.632,274.283 124.952 C 274.610 124.002,274.609 124.000,274.076 124.000 C 273.660 124.000,273.581 124.067,273.184 124.767 C 269.820 130.682,263.200 128.575,263.200 121.588 L 263.200 120.533 267.684 120.533 L 272.168 120.533 272.075 119.700 C 271.590 115.335,269.176 112.770,266.067 113.316 M276.933 113.452 C 276.933 113.638,277.101 113.813,277.446 113.989 C 279.013 114.789,279.133 115.336,279.133 121.667 C 279.133 127.472,279.092 127.736,278.047 128.656 C 277.707 128.955,277.378 129.200,277.315 129.200 C 277.252 129.200,277.200 129.357,277.200 129.548 C 277.200 129.844,277.245 129.884,277.508 129.818 C 277.677 129.776,278.487 129.700,279.308 129.651 L 280.800 129.560 280.800 121.529 L 280.800 113.499 279.367 113.411 C 278.578 113.363,277.708 113.291,277.433 113.250 C 276.993 113.185,276.933 113.209,276.933 113.452 M286.333 113.386 C 285.893 113.482,285.123 113.749,284.621 113.980 C 283.491 114.500,283.550 114.508,283.639 113.851 L 283.712 113.302 283.223 113.383 C 282.954 113.427,282.568 113.464,282.367 113.465 L 282.000 113.467 282.000 121.513 L 282.000 129.559 283.633 129.648 C 284.532 129.697,285.402 129.773,285.567 129.818 C 286.128 129.968,285.944 129.378,285.332 129.066 C 283.766 128.267,283.600 127.514,283.600 121.195 L 283.600 116.039 284.767 115.505 C 287.396 114.303,288.954 114.387,289.641 115.769 C 290.094 116.678,290.162 117.853,290.114 123.894 C 290.067 129.693,290.069 129.746,290.333 129.675 C 290.480 129.636,290.855 129.603,291.167 129.602 L 291.733 129.600 291.729 124.300 C 291.725 118.109,291.599 115.846,291.217 115.105 C 290.391 113.502,288.633 112.883,286.333 113.386 M320.312 113.339 C 314.631 114.463,314.240 127.454,319.823 129.606 C 322.218 130.529,325.064 129.902,326.771 128.076 C 327.682 127.101,328.933 124.764,328.933 124.038 C 328.933 124.008,328.710 124.003,328.436 124.025 C 327.979 124.063,327.898 124.137,327.442 124.923 C 324.217 130.480,317.880 128.700,317.630 122.167 L 317.568 120.533 322.063 120.533 L 326.558 120.533 326.468 119.833 C 325.860 115.146,323.541 112.700,320.312 113.339 M331.067 113.440 C 331.067 113.625,331.281 113.807,331.793 114.057 C 333.354 114.821,333.533 115.586,333.524 121.467 C 333.516 127.472,333.322 128.223,331.587 129.006 C 331.034 129.255,330.760 130.016,331.300 129.804 C 331.428 129.753,332.328 129.678,333.300 129.636 L 335.067 129.560 335.067 121.530 L 335.067 113.501 333.433 113.412 C 332.535 113.363,331.635 113.290,331.433 113.251 C 331.133 113.192,331.067 113.226,331.067 113.440 M336.967 113.370 L 336.267 113.504 336.267 121.531 L 336.267 129.559 338.100 129.646 C 339.108 129.694,340.074 129.771,340.245 129.818 C 340.807 129.972,340.563 129.340,339.985 129.142 C 338.143 128.512,337.867 127.563,337.867 121.869 C 337.867 116.805,337.868 116.803,340.402 118.001 C 342.127 118.816,342.398 118.809,343.285 117.922 C 343.916 117.291,344.058 116.955,343.588 117.207 C 343.228 117.399,342.863 117.304,341.416 116.641 C 340.737 116.329,340.013 116.092,339.716 116.085 C 339.087 116.068,339.073 115.977,339.634 115.549 C 340.502 114.887,340.709 114.876,341.913 115.429 C 343.860 116.324,344.835 116.066,345.708 114.427 C 346.210 113.485,346.206 113.515,345.868 113.334 C 345.642 113.213,345.519 113.280,345.024 113.796 C 344.299 114.553,344.086 114.559,342.529 113.858 C 340.362 112.882,339.946 113.046,338.094 115.603 C 337.860 115.927,337.857 115.907,337.915 114.567 C 337.958 113.581,337.932 113.205,337.821 113.218 C 337.736 113.227,337.352 113.296,336.967 113.370 M168.804 113.431 C 168.807 113.487,168.898 113.651,169.007 113.796 C 169.712 114.728,169.620 115.208,167.267 122.850 C 166.277 126.067,165.467 128.747,165.467 128.806 C 165.467 128.864,165.887 128.931,166.401 128.956 L 167.334 129.000 167.527 128.333 C 167.775 127.472,167.959 126.661,168.130 125.677 C 168.205 125.243,168.812 123.095,169.478 120.904 C 171.006 115.876,171.164 114.842,170.513 114.143 C 170.104 113.703,168.793 113.157,168.804 113.431 M209.508 113.705 C 210.427 114.721,210.386 114.957,207.806 123.391 C 206.889 126.393,206.152 128.861,206.169 128.876 C 206.186 128.891,206.622 128.945,207.137 128.996 L 208.074 129.088 208.370 128.080 C 208.533 127.526,208.668 126.846,208.669 126.569 C 208.671 125.854,208.919 124.899,210.050 121.239 C 211.831 115.472,211.870 114.317,210.304 113.649 C 209.644 113.368,209.229 113.397,209.508 113.705 M291.467 113.699 C 291.467 113.766,291.623 113.966,291.813 114.143 C 292.811 115.075,292.925 116.061,292.930 123.816 L 292.933 129.566 294.567 129.655 C 295.465 129.704,296.365 129.776,296.567 129.816 C 297.229 129.946,297.045 129.401,296.300 129.030 C 294.648 128.207,294.520 127.699,294.403 121.467 C 294.299 115.918,294.232 115.388,293.532 114.556 C 293.069 114.005,291.467 113.341,291.467 113.699 M137.415 114.767 C 137.910 115.900,137.948 117.461,137.525 119.267 C 137.422 119.707,137.336 120.112,137.335 120.167 C 137.334 120.222,137.753 120.267,138.267 120.267 C 138.780 120.267,139.202 120.222,139.204 120.167 C 139.207 120.112,139.264 119.647,139.332 119.133 C 139.574 117.301,139.055 115.645,137.957 114.745 C 137.221 114.143,137.144 114.146,137.415 114.767 M188.800 114.322 C 188.800 114.353,188.926 114.668,189.080 115.022 C 189.430 115.826,189.459 117.628,189.145 118.975 C 188.830 120.325,188.798 120.267,189.856 120.267 L 190.779 120.267 190.874 119.379 C 191.032 117.906,190.861 116.606,190.406 115.810 C 189.991 115.085,188.800 113.981,188.800 114.322 M88.583 114.902 C 84.148 117.631,82.100 124.243,84.772 127.214 C 85.481 128.003,85.569 127.977,85.267 127.068 C 84.290 124.126,86.193 118.137,89.112 114.967 C 89.755 114.269,89.637 114.254,88.583 114.902 M96.150 114.596 C 98.285 115.528,98.121 119.501,95.760 124.048 C 93.339 128.709,87.773 128.977,88.037 124.419 C 88.393 118.294,92.694 113.087,96.150 114.596 M100.267 114.490 C 100.267 114.569,100.364 114.866,100.483 115.150 C 101.478 117.524,99.438 124.032,96.820 126.835 C 96.048 127.662,96.162 127.736,97.145 127.048 C 101.845 123.754,103.690 117.635,100.815 114.873 C 100.514 114.583,100.267 114.411,100.267 114.490 M271.862 115.127 C 272.642 116.260,273.083 117.673,273.269 119.633 L 273.355 120.533 274.277 120.533 C 274.785 120.533,275.200 120.507,275.200 120.475 C 275.200 118.693,273.863 116.074,272.408 115.006 C 271.544 114.372,271.369 114.411,271.862 115.127 M326.130 114.967 C 326.961 116.208,327.437 117.683,327.584 119.467 L 327.667 120.467 328.617 120.506 L 329.568 120.544 329.326 119.372 C 328.904 117.324,328.041 115.861,326.740 114.985 C 325.902 114.420,325.762 114.416,326.130 114.967 M133.518 114.852 C 134.393 115.217,134.942 116.885,134.616 118.185 L 134.528 118.533 131.130 118.533 L 127.731 118.533 128.153 117.767 C 129.417 115.468,131.841 114.151,133.518 114.852 M185.144 114.881 C 185.971 115.273,186.392 116.472,186.198 117.882 L 186.108 118.533 182.719 118.533 L 179.329 118.533 179.660 117.879 C 180.851 115.529,183.481 114.091,185.144 114.881 M267.782 115.024 C 268.635 115.182,269.659 116.540,269.926 117.867 C 269.978 118.123,270.049 118.438,270.086 118.567 C 270.147 118.784,269.928 118.800,266.809 118.800 C 264.223 118.800,263.467 118.762,263.469 118.633 C 263.498 116.753,265.563 114.590,267.049 114.884 C 267.222 114.918,267.552 114.981,267.782 115.024 M321.996 115.007 C 323.063 115.223,324.131 116.638,324.330 118.100 L 324.425 118.800 321.092 118.800 L 317.759 118.800 317.957 118.033 C 318.461 116.089,320.043 114.608,321.333 114.872 C 321.443 114.895,321.741 114.956,321.996 115.007 M125.582 116.043 C 121.858 118.985,120.388 124.315,122.620 126.787 C 123.311 127.552,123.402 127.466,123.198 126.252 C 122.784 123.802,123.908 119.815,125.825 116.934 C 127.029 115.124,126.979 114.940,125.582 116.043 M177.200 116.002 C 173.423 118.906,171.940 124.431,174.269 126.915 C 174.824 127.507,174.975 127.335,174.785 126.326 C 174.325 123.876,175.477 119.758,177.441 116.838 C 178.608 115.103,178.565 114.953,177.200 116.002 M260.572 116.271 C 257.846 119.336,257.947 124.677,260.780 127.286 C 261.379 127.837,261.834 128.043,261.694 127.700 C 260.718 125.299,260.482 124.385,260.327 122.400 C 260.184 120.572,260.593 117.913,261.254 116.371 C 261.731 115.258,261.503 115.225,260.572 116.271 M314.884 116.354 C 312.132 119.538,312.318 124.976,315.261 127.388 C 315.955 127.957,316.139 127.930,315.879 127.295 C 314.390 123.662,314.251 120.109,315.467 116.777 C 315.983 115.362,315.834 115.254,314.884 116.354 " stroke="none" fill="#000000" fill-rule="evenodd"></path></g></svg>